{
.appVersion = "895";
copyright = "Copyright (c) 2011, The Questrial Project Authors (joe@admixdesigns.com), with Reserved Font Name Questrial";
customParameters = (
{
name = licenseURL;
value = "http://scripts.sil.org/OFL";
},
{
name = description;
value = "Copyright (c) 2011, Admix Designs (http://www.admixdesigns.com/) with Reserved Font Name Questrial.";
},
{
name = trademark;
value = "Questrial is a trademark of Admix Designs (www.admixdesigns.com)";
},
{
name = license;
value = "This Font Software is licensed under the SIL Open Font License, Version 1.1. This license is available with a FAQ at: http://scripts.sil.org/OFL";
},
{
name = panose;
value = (
2,
0,
0,
0,
0,
0,
0,
0,
0,
0
);
},
{
name = glyphOrder;
value = (
.null,
uni00A0,
space,
quotedbl,
numbersign,
dollar,
percent,
ampersand,
quotesingle,
parenleft,
parenright,
asterisk,
plus,
comma,
hyphen,
period,
slash,
zero,
one,
two,
three,
four,
five,
six,
seven,
eight,
nine,
colon,
semicolon,
less,
equal,
greater,
question,
at,
A,
B,
C,
D,
E,
F,
G,
H,
I,
J,
K,
L,
M,
N,
O,
P,
Q,
R,
S,
T,
U,
V,
W,
X,
Y,
Z,
bracketleft,
backslash,
bracketright,
asciicircum,
underscore,
grave,
a,
b,
c,
d,
e,
f,
g,
h,
i,
j,
k,
l,
m,
n,
o,
p,
q,
r,
s,
t,
u,
v,
w,
x,
y,
z,
braceleft,
bar,
braceright,
asciitilde,
exclamdown,
cent,
sterling,
currency,
yen,
section,
dieresis,
copyright,
ordfeminine,
guillemotleft,
logicalnot,
registered,
degree,
plusminus,
twosuperior,
threesuperior,
acute,
mu,
paragraph,
periodcentered,
cedilla,
onesuperior,
ordmasculine,
guillemotright,
onequarter,
onehalf,
threequarters,
questiondown,
Agrave,
Aacute,
Acircumflex,
Atilde,
Adieresis,
Aring,
AE,
Ccedilla,
Egrave,
Eacute,
Ecircumflex,
Edieresis,
Igrave,
Iacute,
Icircumflex,
Idieresis,
Eth,
Ntilde,
Ograve,
Oacute,
Ocircumflex,
Otilde,
Odieresis,
multiply,
Oslash,
Oslashacute,
Ugrave,
Uacute,
Ucircumflex,
Udieresis,
Yacute,
Thorn,
germandbls,
agrave,
aacute,
acircumflex,
atilde,
adieresis,
aring,
ae,
ccedilla,
egrave,
eacute,
ecircumflex,
edieresis,

glyphs = (
{
glyphname = quotedbl;
lastChange = "2016-08-03 12:43:26 +0000";
layers = (
{
hints = (
{
place = "{47, 223}";
},
{
horizontal = 1;
place = "{443, 219}";
}
);
layerId = UUID0;
paths = (
{
closed = 1;
nodes = (
"251 443 LINE",
"270 662 LINE",
"181 662 LINE",
"200 443 LINE"
);
},
{
closed = 1;
nodes = (
"117 443 LINE",
"136 662 LINE",
"47 662 LINE",
"66 443 LINE"
);
}
);
width = 317;
}
);
leftKerningGroup = quotesingle;
rightKerningGroup = quotesingle;
unicode = 0022;
},
{
glyphname = numbersign;
lastChange = "2016-08-03 12:43:26 +0000";
layers = (
{
hints = (
{
place = "{45, 491}";
},
{
horizontal = 1;
place = "{168, 65}";
},
{
horizontal = 1;
place = "{377, 65}";
}
);
layerId = UUID0;
paths = (
{
closed = 1;
nodes = (
"193 25 LINE",
"213 168 LINE",
"329 168 LINE",
"309 25 LINE",
"374 25 LINE",
"394 168 LINE",
"506 168 LINE",
"506 233 LINE",
"403 233 LINE",
"423 377 LINE",
"536 377 LINE",
"536 442 LINE",
"432 442 LINE",
"453 585 LINE",
"388 585 LINE",
"367 442 LINE",
"251 442 LINE",
"272 585 LINE",
"207 585 LINE",
"186 442 LINE",
"75 442 LINE",
"75 377 LINE",
"177 377 LINE",
"157 233 LINE",
"45 233 LINE",
"45 168 LINE",
"148 168 LINE",
"128 25 LINE"
);
},
{
closed = 1;
nodes = (
"242 377 LINE",
"358 377 LINE",
"338 233 LINE",
"222 233 LINE"
);
}
);
width = 581;
}
);
unicode = 0023;
},
{
glyphname = dollar;
lastChange = "2016-08-03 12:43:26 +0000";
layers = (
{
hints = (
{
place = "{63, 73}";
},
{
place = "{298, 37}";
},
{
place = "{516, 75}";
},
{
horizontal = 1;
place = "{-8, 71}";
},
{
horizontal = 1;
place = "{600, 70}";
},
{
horizontal = 1;
place = "{599, 70}";
},
{
horizontal = 1;
place = "{-7, 70}";
}
);
layerId = UUID0;
paths = (
{
closed = 1;
nodes = (
"335 -107 LINE",
"335 -8 LINE",
"494 -6 OFFCURVE",
"591 61 OFFCURVE",
"591 183 CURVE SMOOTH",
"591 183 LINE SMOOTH",
"591 308 OFFCURVE",
"457 342 OFFCURVE",
"335 371 CURVE",
"335 599 LINE",
"440 593 OFFCURVE",
"489 543 OFFCURVE",
"497 481 CURVE",
"574 481 LINE",
"568 576 OFFCURVE",
"495 662 OFFCURVE",
"335 669 CURVE",
"335 746 LINE",
"298 746 LINE",
"298 670 LINE",
"141 666 OFFCURVE",
"63 592 OFFCURVE",
"63 487 CURVE SMOOTH",
"63 370 OFFCURVE",
"182 335 OFFCURVE",
"298 307 CURVE",
"298 64 LINE",
"200 72 OFFCURVE",
"125 112 OFFCURVE",
"121 198 CURVE",
"43 198 LINE",
"52 85 OFFCURVE",
"124 1 OFFCURVE",
"298 -7 CURVE",
"298 -107 LINE"
);
},
{
closed = 1;
nodes = (
"335 298 LINE",
"431 274 OFFCURVE",
"516 250 OFFCURVE",
"516 180 CURVE SMOOTH",
"516 102 OFFCURVE",
"446 63 OFFCURVE",
"335 63 CURVE",
"335 63 LINE"
);
},
{
closed = 1;
nodes = (
"210 402 OFFCURVE",
"136 426 OFFCURVE",
"136 488 CURVE SMOOTH",
"136 488 LINE SMOOTH",
"136 531 OFFCURVE",
"160 596 OFFCURVE",
"298 600 CURVE",
"298 380 LINE"
);
}
);
width = 636;
}
);
unicode = 0024;
},
{
glyphname = percent;
lastChange = "2016-08-03 12:43:26 +0000";
layers = (
{
hints = (
{
place = "{42, 61}";
},
{
place = "{280, 62}";
},
{
place = "{503, 61}";
},
{
place = "{741, 62}";
},
{
horizontal = 1;
place = "{-8, 57}";
},
{
horizontal = 1;
place = "{288, 57}";
},
{
horizontal = 1;
place = "{609, 58}";
},
{
horizontal = 1;
place = "{313, 58}";
},
{
horizontal = 1;
place = "{670, -20}";
target = down;
type = TopGhost;
}
);
layerId = UUID0;
paths = (
{
closed = 1;
nodes = (
"224 -12 LINE",
"683 670 LINE",
"620 670 LINE",
"161 -12 LINE"
);
},
{
closed = 1;
nodes = (
"284 288 OFFCURVE",
"342 354 OFFCURVE",
"342 477 CURVE SMOOTH",
"342 574 OFFCURVE",
"300 665 OFFCURVE",
"192 667 CURVE",
"192 667 LINE",
"99 667 OFFCURVE",
"42 601 OFFCURVE",
"42 477 CURVE SMOOTH",
"42 354 OFFCURVE",
"99 288 OFFCURVE",
"192 288 CURVE SMOOTH"
);
},
{
closed = 1;
nodes = (
"136 345 OFFCURVE",
"103 389 OFFCURVE",
"103 477 CURVE SMOOTH",
"103 565 OFFCURVE",
"136 609 OFFCURVE",
"192 609 CURVE SMOOTH",
"246 609 OFFCURVE",
"280 565 OFFCURVE",
"280 477 CURVE SMOOTH",
"280 416 OFFCURVE",
"259 347 OFFCURVE",
"192 345 CURVE",
"192 345 LINE"
);
},
{
closed = 1;
nodes = (
"745 -8 OFFCURVE",
"803 58 OFFCURVE",
"803 181 CURVE SMOOTH",
"803 278 OFFCURVE",
"761 369 OFFCURVE",
"653 371 CURVE",
"653 371 LINE",
"560 371 OFFCURVE",
"503 305 OFFCURVE",
"503 181 CURVE SMOOTH",
"503 58 OFFCURVE",
"560 -8 OFFCURVE",
"653 -8 CURVE SMOOTH"
);
},
{
closed = 1;
nodes = (
"597 49 OFFCURVE",
"564 93 OFFCURVE",
"564 181 CURVE SMOOTH",
"564 269 OFFCURVE",
"597 313 OFFCURVE",
"653 313 CURVE SMOOTH",
"707 313 OFFCURVE",
"741 269 OFFCURVE",
"741 181 CURVE SMOOTH",
"741 120 OFFCURVE",
"720 51 OFFCURVE",
"653 49 CURVE",
"653 49 LINE"
);
}
);
width = 845;
}
);
unicode = 0025;
},
{
glyphname = ampersand;
lastChange = "2016-08-03 12:43:26 +0000";
layers = (
{
hints = (
{
place = "{37, 75}";
},
{
place = "{425, 70}";
},
{
place = "{59, 75}";
},
{
horizontal = 1;
place = "{-8, 67}";
},
{
horizontal = 1;
place = "{311, 67}";
},
{
horizontal = 1;
place = "{602, 68}";
}
);
layerId = UUID0;
paths = (
{
closed = 1;
nodes = (
"410 -8 OFFCURVE",
"495 71 OFFCURVE",
"495 184 CURVE SMOOTH",
"495 311 LINE",
"560 311 LINE",
"560 378 LINE",
"495 378 LINE",
"495 422 LINE",
"425 422 LINE",
"425 378 LINE",
"264 378 LINE SMOOTH",
"195 378 OFFCURVE",
"134 413 OFFCURVE",
"134 488 CURVE SMOOTH",
"134 551 OFFCURVE",
"178 602 OFFCURVE",
"277 602 CURVE SMOOTH",
"355 602 OFFCURVE",
"400 564 OFFCURVE",
"410 532 CURVE",
"489 532 LINE",
"475 600 OFFCURVE",
"415 670 OFFCURVE",
"279 670 CURVE SMOOTH",
"279 670 LINE SMOOTH",
"135 670 OFFCURVE",
"59 592 OFFCURVE",
"59 489 CURVE SMOOTH",
"59 423 OFFCURVE",
"114 364 OFFCURVE",
"159 350 CURVE",
"82 321 OFFCURVE",
"37 261 OFFCURVE",
"37 190 CURVE SMOOTH",
"37 72 OFFCURVE",
"144 -8 OFFCURVE",
"269 -8 CURVE SMOOTH"
);
},
{
closed = 1;
nodes = (
"175 59 OFFCURVE",
"112 120 OFFCURVE",
"112 188 CURVE SMOOTH",
"112 255 OFFCURVE",
"171 311 OFFCURVE",
"255 311 CURVE SMOOTH",
"425 311 LINE",
"425 178 LINE SMOOTH",
"425 116 OFFCURVE",
"374 59 OFFCURVE",
"269 59 CURVE SMOOTH"
);
}
);
width = 580;
}
);
unicode = 0026;
},
{
glyphname = quotesingle;
lastChange = "2016-08-03 12:43:26 +0000";
layers = (
{
hints = (
{
place = "{47, 89}";
},
{
horizontal = 1;
place = "{662, -20}";
target = down;
type = TopGhost;
},
{
horizontal = 1;
place = "{443, 219}";
}
);
layerId = UUID0;
paths = (
{
closed = 1;
nodes = (
"117 443 LINE",
"136 662 LINE",
"47 662 LINE",
"66 443 LINE"
);
}
);
width = 183;
}
);
leftKerningGroup = quotesingle;
rightKerningGroup = quotesingle;
unicode = 0027;
},
{
glyphname = parenleft;
lastChange = "2016-08-03 12:43:26 +0000";
layers = (
{
hints = (
{
place = "{35, 76}";
},
{
horizontal = 1;
place = "{-138, 838}";
}
);
layerId = UUID0;
paths = (
{
closed = 1;
nodes = (
"231 -138 LINE",
"155 -17 OFFCURVE",
"111 127 OFFCURVE",
"111 281 CURVE SMOOTH",
"111 434 OFFCURVE",
"155 578 OFFCURVE",
"231 700 CURVE",
"231 700 LINE",
"163 700 LINE",
"79 570 OFFCURVE",
"35 429 OFFCURVE",
"35 281 CURVE SMOOTH",
"35 131 OFFCURVE",
"79 -8 OFFCURVE",
"163 -138 CURVE"
);
}
);
width = 245;
}
);
unicode = 0028;
},
{
glyphname = parenright;
lastChange = "2016-08-03 12:43:26 +0000";
layers = (
{
hints = (
{
place = "{134, 76}";
},
{
horizontal = 1;
place = "{-138, 838}";
}
);
layerId = UUID0;
paths = (
{
closed = 1;
nodes = (
"82 -138 LINE",
"166 -8 OFFCURVE",
"210 131 OFFCURVE",
"210 281 CURVE SMOOTH",
"210 429 OFFCURVE",
"166 570 OFFCURVE",
"82 700 CURVE",
"14 700 LINE",
"90 578 OFFCURVE",
"134 434 OFFCURVE",
"134 281 CURVE SMOOTH",
"134 127 OFFCURVE",
"90 -17 OFFCURVE",
"14 -138 CURVE"
);
}
);
width = 245;
}
);
unicode = 0029;
},
{
glyphname = asterisk;
lastChange = "2016-08-03 12:43:26 +0000";
layers = (
{
hints = (
{
place = "{161, 51}";
},
{
horizontal = 1;
place = "{662, -20}";
target = down;
type = TopGhost;
}
);
layerId = UUID0;
paths = (
{
closed = 1;
nodes = (
"187 492 LINE",
"241 397 LINE",
"292 434 LINE",
"218 516 LINE",
"325 538 LINE",
"306 598 LINE",
"206 553 LINE",
"218 662 LINE",
"155 662 LINE",
"167 553 LINE",
"67 598 LINE",
"48 538 LINE",
"155 515 LINE",
"81 434 LINE",
"132 397 LINE"
);
}
);
width = 373;
}
);
unicode = 002A;
},
{
glyphname = plus;
lastChange = "2016-08-03 12:43:26 +0000";
layers = (
{
hints = (
{
place = "{242, 65}";
},
{
horizontal = 1;
place = "{0, 21}";
target = up;
type = BottomGhost;
},
{
horizontal = 1;
place = "{203, 65}";
}
);
layerId = UUID0;
paths = (
{
closed = 1;
nodes = (
"307 0 LINE",
"307 203 LINE",
"500 203 LINE",
"500 268 LINE",
"307 268 LINE",
"307 471 LINE",
"242 471 LINE",
"242 268 LINE",
"50 268 LINE",
"50 203 LINE",
"242 203 LINE",
"242 0 LINE"
);
}
);
width = 550;
}
);
unicode = 002B;
},
{
glyphname = comma;
lastChange = "2016-08-03 12:43:26 +0000";
layers = (
{
hints = (
{
place = "{11, 156}";
},
{
horizontal = 1;
place = "{-133, 213}";
}
);
layerId = UUID0;
paths = (
{
closed = 1;
nodes = (
"79 -133 LINE",
"167 80 LINE",
"69 80 LINE",
"11 -133 LINE"
);
}
);
width = 220;
}
);
leftKerningGroup = period;
rightKerningGroup = period;
unicode = 002C;
},
{
glyphname = hyphen;
lastChange = "2016-08-03 12:43:26 +0000";
layers = (
{
hints = (
{
place = "{53, 250}";
},
{
horizontal = 1;
place = "{259, 73}";
}
);
layerId = UUID0;
paths = (
{
closed = 1;
nodes = (
"303 259 LINE",
"303 332 LINE",
"53 332 LINE",
"53 259 LINE"
);
}
);
width = 356;
}
);
leftKerningGroup = hyphen;
rightKerningGroup = hyphen;
unicode = 002D;
},
{
glyphname = period;
lastChange = "2016-08-03 12:43:26 +0000";
layers = (
{
hints = (
{
place = "{53, 97}";
},
{
horizontal = 1;
place = "{0, 102}";
}
);
layerId = UUID0;
paths = (
{
closed = 1;
nodes = (
"150 0 LINE",
"150 102 LINE",
"53 102 LINE",
"53 0 LINE"
);
}
);
width = 203;
}
);
leftKerningGroup = period;
rightKerningGroup = period;
unicode = 002E;
},
{
glyphname = slash;
lastChange = "2016-08-03 12:43:26 +0000";
layers = (
{
hints = (
{
place = "{36, 299}";
},
{
horizontal = 1;
place = "{-32, 712}";
}
);
layerId = UUID0;
paths = (
{
closed = 1;
nodes = (
"106 -32 LINE",
"335 680 LINE",
"265 680 LINE",
"265 680 LINE",
"36 -32 LINE"
);
}
);
width = 371;
}
);
unicode = 002F;
},
{
glyphname = zero;
lastChange = "2016-08-03 12:43:26 +0000";
layers = (
{
hints = (
{
place = "{43, 75}";
},
{
place = "{432, 75}";
},
{
horizontal = 1;
place = "{-8, 73}";
},
{
horizontal = 1;
place = "{597, 73}";
}
);
layerId = UUID0;
paths = (
{
closed = 1;
nodes = (
"431 -8 OFFCURVE",
"507 110 OFFCURVE",
"507 331 CURVE SMOOTH",
"507 504 OFFCURVE",
"457 667 OFFCURVE",
"275 670 CURVE",
"275 670 LINE",
"119 670 OFFCURVE",
"43 552 OFFCURVE",
"43 331 CURVE SMOOTH",
"43 110 OFFCURVE",
"119 -8 OFFCURVE",
"275 -8 CURVE SMOOTH"
);
},
{
closed = 1;
nodes = (
"165 65 OFFCURVE",
"118 154 OFFCURVE",
"118 331 CURVE SMOOTH",
"118 508 OFFCURVE",
"165 597 OFFCURVE",
"275 597 CURVE SMOOTH",
"385 597 OFFCURVE",
"432 508 OFFCURVE",
"432 331 CURVE SMOOTH",
"432 208 OFFCURVE",
"411 68 OFFCURVE",
"275 65 CURVE",
"275 65 LINE"
);
}
);
width = 550;
}
);
unicode = 0030;
},
{
glyphname = one;
lastChange = "2016-08-03 12:43:26 +0000";
layers = (
{
hints = (
{
place = "{275, 75}";
},
{
horizontal = 1;
place = "{0, 21}";
target = up;
type = BottomGhost;
},
{
horizontal = 1;
place = "{590, 72}";
}
);
layerId = UUID0;
paths = (
{
closed = 1;
nodes = (
"350 0 LINE",
"350 662 LINE",
"135 662 LINE",
"135 590 LINE",
"275 590 LINE",
"275 0 LINE"
);
}
);
width = 550;
}
);
unicode = 0031;
},
{
glyphname = two;
lastChange = "2016-08-03 12:43:26 +0000";
layers = (
{
hints = (
{
place = "{424, 75}";
},
{
horizontal = 1;
place = "{0, 72}";
},
{
horizontal = 1;
place = "{597, 73}";
}
);
layerId = UUID0;
paths = (
{
closed = 1;
nodes = (
"497 0 LINE",
"497 72 LINE",
"141 72 LINE",
"153 189 OFFCURVE",
"499 290 OFFCURVE",
"499 475 CURVE",
"499 475 LINE",
"499 585 OFFCURVE",
"416 670 OFFCURVE",
"273 670 CURVE SMOOTH",
"151 670 OFFCURVE",
"54 596 OFFCURVE",
"43 482 CURVE",
"118 482 LINE",
"128 556 OFFCURVE",
"187 597 OFFCURVE",
"275 597 CURVE SMOOTH",
"371 597 OFFCURVE",
"424 550 OFFCURVE",
"424 473 CURVE SMOOTH",
"424 321 OFFCURVE",
"52 237 OFFCURVE",
"52 41 CURVE SMOOTH",
"52 0 LINE"
);
}
);
width = 550;
}
);
unicode = 0032;
},
{
glyphname = three;
lastChange = "2016-08-03 12:43:26 +0000";
layers = (
{
hints = (
{
place = "{427, 75}";
},
{
place = "{405, 75}";
},
{
horizontal = 1;
place = "{-8, 73}";
},
{
horizontal = 1;
place = "{314, 69}";
},
{
horizontal = 1;
place = "{597, 73}";
}
);
layerId = UUID0;
paths = (
{
closed = 1;
nodes = (
"402 -8 OFFCURVE",
"502 72 OFFCURVE",
"502 190 CURVE SMOOTH",
"502 261 OFFCURVE",
"457 324 OFFCURVE",
"380 353 CURVE",
"380 353 LINE",
"425 367 OFFCURVE",
"480 428 OFFCURVE",
"480 494 CURVE SMOOTH",
"480 597 OFFCURVE",
"401 670 OFFCURVE",
"271 670 CURVE SMOOTH",
"142 670 OFFCURVE",
"68 584 OFFCURVE",
"59 503 CURVE",
"132 503 LINE",
"141 554 OFFCURVE",
"192 597 OFFCURVE",
"273 597 CURVE SMOOTH",
"360 597 OFFCURVE",
"405 554 OFFCURVE",
"405 491 CURVE SMOOTH",
"405 427 OFFCURVE",
"344 383 OFFCURVE",
"275 383 CURVE SMOOTH",
"208 383 LINE",
"208 314 LINE",
"284 314 LINE SMOOTH",
"368 314 OFFCURVE",
"427 255 OFFCURVE",
"427 188 CURVE SMOOTH",
"427 120 OFFCURVE",
"371 65 OFFCURVE",
"277 65 CURVE SMOOTH",
"197 65 OFFCURVE",
"127 113 OFFCURVE",
"117 175 CURVE",
"41 175 LINE",
"51 72 OFFCURVE",
"153 -8 OFFCURVE",
"277 -8 CURVE SMOOTH"
);
}
);
width = 550;
}
);
unicode = 0033;
},
{
glyphname = four;
lastChange = "2016-08-03 12:43:26 +0000";
layers = (
{
hints = (
{
place = "{347, 75}";
},
{
horizontal = 1;
place = "{0, 21}";
target = up;
type = BottomGhost;
},
{
horizontal = 1;
place = "{169, 67}";
},
{
horizontal = 1;
place = "{598, 64}";
}
);
layerId = UUID0;
paths = (
{
closed = 1;
nodes = (
"422 0 LINE",
"422 169 LINE",
"511 169 LINE",
"511 236 LINE",
"422 236 LINE",
"422 662 LINE",
"309 662 LINE",
"31 242 LINE",
"31 169 LINE",
"347 169 LINE",
"347 0 LINE"
);
},
{
closed = 1;
nodes = (
"347 598 LINE",
"347 236 LINE",
"101 236 LINE"
);
}
);
width = 550;
}
);
unicode = 0034;
},
{
glyphname = five;
lastChange = "2016-08-03 12:43:26 +0000";
layers = (
{
hints = (
{
place = "{427, 75}";
},
{
horizontal = 1;
place = "{-8, 73}";
},
{
horizontal = 1;
place = "{359, 70}";
},
{
horizontal = 1;
place = "{590, 72}";
}
);
layerId = UUID0;
paths = (
{
closed = 1;
nodes = (
"405 -8 OFFCURVE",
"502 90 OFFCURVE",
"502 212 CURVE SMOOTH",
"502 339 OFFCURVE",
"413 429 OFFCURVE",
"279 429 CURVE SMOOTH",
"279 429 LINE SMOOTH",
"239 429 OFFCURVE",
"192 417 OFFCURVE",
"162 398 CURVE",
"192 590 LINE",
"469 590 LINE",
"469 662 LINE",
"124 662 LINE",
"79 348 LINE",
"148 306 LINE",
"171 332 OFFCURVE",
"220 359 OFFCURVE",
"279 359 CURVE SMOOTH",
"366 359 OFFCURVE",
"427 300 OFFCURVE",
"427 212 CURVE SMOOTH",
"427 130 OFFCURVE",
"367 65 OFFCURVE",
"277 65 CURVE SMOOTH",
"179 65 OFFCURVE",
"134 117 OFFCURVE",
"119 166 CURVE",
"42 166 LINE",
"56 98 OFFCURVE",
"110 -8 OFFCURVE",
"280 -8 CURVE SMOOTH"
);
}
);
width = 550;
}
);
unicode = 0035;
},
{
glyphname = six;
lastChange = "2016-08-03 12:43:26 +0000";
layers = (
{
hints = (
{
place = "{43, 75}";
},
{
place = "{441, 75}";
},
{
horizontal = 1;
place = "{-8, 73}";
},
{
horizontal = 1;
place = "{351, 71}";
},
{
horizontal = 1;
place = "{597, 73}";
}
);
layerId = UUID0;
paths = (
{
closed = 1;
nodes = (
"413 -8 OFFCURVE",
"516 83 OFFCURVE",
"516 207 CURVE SMOOTH",
"516 333 OFFCURVE",
"416 422 OFFCURVE",
"291 422 CURVE SMOOTH",
"217 422 OFFCURVE",
"150 383 OFFCURVE",
"118 328 CURVE",
"118 478 OFFCURVE",
"171 597 OFFCURVE",
"294 597 CURVE SMOOTH",
"369 597 OFFCURVE",
"399 551 OFFCURVE",
"413 508 CURVE",
"497 508 LINE",
"480 587 OFFCURVE",
"421 670 OFFCURVE",
"294 670 CURVE SMOOTH",
"294 670 LINE SMOOTH",
"127 670 OFFCURVE",
"43 540 OFFCURVE",
"43 331 CURVE SMOOTH",
"43 114 OFFCURVE",
"127 -8 OFFCURVE",
"288 -8 CURVE SMOOTH"
);
},
{
closed = 1;
nodes = (
"202 65 OFFCURVE",
"135 124 OFFCURVE",
"135 212 CURVE SMOOTH",
"135 294 OFFCURVE",
"204 351 OFFCURVE",
"288 351 CURVE",
"288 351 LINE",
"372 351 OFFCURVE",
"441 289 OFFCURVE",
"441 207 CURVE SMOOTH",
"441 124 OFFCURVE",
"372 65 OFFCURVE",
"288 65 CURVE SMOOTH"
);
}
);
width = 550;
}
);
unicode = 0036;
},
{
glyphname = seven;
lastChange = "2016-08-03 12:43:26 +0000";
layers = (
{
hints = (
{
place = "{47, 459}";
},
{
horizontal = 1;
place = "{0, 21}";
target = up;
type = BottomGhost;
},
{
horizontal = 1;
place = "{590, 72}";
}
);
layerId = UUID0;
paths = (
{
closed = 1;
nodes = (
"230 0 LINE",
"506 577 LINE",
"506 662 LINE",
"47 662 LINE",
"47 590 LINE",
"429 590 LINE",
"143 0 LINE"
);
}
);
width = 550;
}
);
unicode = 0037;
},
{
glyphname = eight;
lastChange = "2016-08-03 12:43:26 +0000";
layers = (
{
hints = (
{
place = "{38, 75}";
},
{
place = "{437, 75}";
},
{
place = "{64, 75}";
},
{
place = "{411, 75}";
},
{
horizontal = 1;
place = "{-8, 72}";
},
{
horizontal = 1;
place = "{327, 69}";
},
{
horizontal = 1;
place = "{598, 72}";
}
);
layerId = UUID0;
paths = (
{
closed = 1;
nodes = (
"426 -8 OFFCURVE",
"512 73 OFFCURVE",
"512 190 CURVE SMOOTH",
"512 266 OFFCURVE",
"463 334 OFFCURVE",
"385 364 CURVE",
"385 364 LINE",
"429 380 OFFCURVE",
"486 424 OFFCURVE",
"486 503 CURVE SMOOTH",
"486 602 OFFCURVE",
"411 670 OFFCURVE",
"275 670 CURVE SMOOTH",
"139 670 OFFCURVE",
"64 602 OFFCURVE",
"64 503 CURVE SMOOTH",
"64 424 OFFCURVE",
"121 380 OFFCURVE",
"165 364 CURVE",
"87 334 OFFCURVE",
"38 266 OFFCURVE",
"38 190 CURVE SMOOTH",
"38 73 OFFCURVE",
"124 -8 OFFCURVE",
"275 -8 CURVE SMOOTH"
);
},
{
closed = 1;
nodes = (
"176 64 OFFCURVE",
"113 113 OFFCURVE",
"113 191 CURVE SMOOTH",
"113 277 OFFCURVE",
"186 327 OFFCURVE",
"275 327 CURVE SMOOTH",
"364 327 OFFCURVE",
"437 277 OFFCURVE",
"437 191 CURVE SMOOTH",
"437 113 OFFCURVE",
"374 64 OFFCURVE",
"275 64 CURVE SMOOTH",
"275 64 LINE SMOOTH"
);
},
{
closed = 1;
nodes = (
"213 396 OFFCURVE",
"139 426 OFFCURVE",
"139 499 CURVE SMOOTH",
"139 499 LINE SMOOTH",
"139 562 OFFCURVE",
"195 598 OFFCURVE",
"275 598 CURVE SMOOTH",
"355 598 OFFCURVE",
"411 562 OFFCURVE",
"411 499 CURVE SMOOTH",
"411 426 OFFCURVE",
"337 396 OFFCURVE",
"275 396 CURVE SMOOTH"
);
}
);
width = 550;
}
);
unicode = 0038;
},
{
glyphname = nine;
lastChange = "2016-08-03 12:43:26 +0000";
layers = (
{
hints = (
{
place = "{34, 75}";
},
{
place = "{432, 75}";
},
{
horizontal = 1;
place = "{-8, 73}";
},
{
horizontal = 1;
place = "{240, 71}";
},
{
horizontal = 1;
place = "{597, 73}";
}
);
layerId = UUID0;
paths = (
{
closed = 1;
nodes = (
"423 -8 OFFCURVE",
"507 122 OFFCURVE",
"507 331 CURVE SMOOTH",
"507 548 OFFCURVE",
"423 670 OFFCURVE",
"262 670 CURVE SMOOTH",
"137 670 OFFCURVE",
"34 579 OFFCURVE",
"34 455 CURVE SMOOTH",
"34 329 OFFCURVE",
"134 240 OFFCURVE",
"259 240 CURVE SMOOTH",
"333 240 OFFCURVE",
"400 279 OFFCURVE",
"432 334 CURVE",
"432 184 OFFCURVE",
"379 65 OFFCURVE",
"256 65 CURVE SMOOTH",
"181 65 OFFCURVE",
"151 111 OFFCURVE",
"137 154 CURVE",
"53 154 LINE",
"70 75 OFFCURVE",
"129 -8 OFFCURVE",
"256 -8 CURVE SMOOTH",
"256 -8 LINE SMOOTH"
);
},
{
closed = 1;
nodes = (
"178 311 OFFCURVE",
"109 373 OFFCURVE",
"109 455 CURVE SMOOTH",
"109 538 OFFCURVE",
"178 597 OFFCURVE",
"262 597 CURVE SMOOTH",
"348 597 OFFCURVE",
"415 538 OFFCURVE",
"415 450 CURVE SMOOTH",
"415 368 OFFCURVE",
"346 311 OFFCURVE",
"262 311 CURVE SMOOTH",
"262 311 LINE SMOOTH"
);
}
);
width = 550;
}
);
unicode = 0039;
},
{
glyphname = colon;
lastChange = "2016-08-03 12:43:26 +0000";
layers = (
{
hints = (
{
place = "{53, 97}";
},
{
horizontal = 1;
place = "{0, 102}";
},
{
horizontal = 1;
place = "{398, 102}";
}
);
layerId = UUID0;
paths = (
{
closed = 1;
nodes = (
"150 398 LINE",
"150 500 LINE",
"53 500 LINE",
"53 398 LINE"
);
},
{
closed = 1;
nodes = (
"150 0 LINE",
"150 102 LINE",
"53 102 LINE",
"53 0 LINE"
);
}
);
width = 203;
}
);
leftKerningGroup = colon;
rightKerningGroup = colon;
unicode = 003A;
},
{
glyphname = semicolon;
lastChange = "2016-08-03 12:43:26 +0000";
layers = (
{
hints = (
{
place = "{80, 97}";
},
{
horizontal = 1;
place = "{-133, 213}";
},
{
horizontal = 1;
place = "{398, 102}";
}
);
layerId = UUID0;
paths = (
{
closed = 1;
nodes = (
"93 -133 LINE",
"181 80 LINE",
"83 80 LINE",
"25 -133 LINE"
);
},
{
closed = 1;
nodes = (
"177 398 LINE",
"177 500 LINE",
"80 500 LINE",
"80 398 LINE"
);
}
);
width = 245;
}
);
leftKerningGroup = colon;
rightKerningGroup = colon;
unicode = 003B;
},
{
glyphname = less;
lastChange = "2016-08-03 12:24:03 +0000";
layers = (
{
hints = (
{
place = "{26, 481}";
},
{
horizontal = 1;
place = "{8, 488}";
}
);
layerId = UUID0;
paths = (
{
closed = 1;
nodes = (
"507 86 LINE",
"102 252 LINE",
"507 418 LINE",
"507 496 LINE",
"26 283 LINE",
"26 220 LINE",
"507 8 LINE"
);
}
);
width = 550;
}
);
unicode = 003C;
},
{
glyphname = equal;
lastChange = "2016-08-03 12:43:26 +0000";
layers = (
{
hints = (
{
place = "{7, 536}";
},
{
horizontal = 1;
place = "{103, 67}";
},
{
horizontal = 1;
place = "{301, 67}";
}
);
layerId = UUID0;
paths = (
{
closed = 1;
nodes = (
"493 301 LINE",
"493 368 LINE",
"57 368 LINE",
"57 301 LINE"
);
},
{
closed = 1;
nodes = (
"493 103 LINE",
"493 170 LINE",
"57 170 LINE",
"57 103 LINE"
);
}
);
width = 550;
}
);
unicode = 003D;
},
{
glyphname = greater;
lastChange = "2016-08-03 12:43:26 +0000";
layers = (
{
hints = (
{
place = "{42, 481}";
},
{
horizontal = 1;
place = "{8, 488}";
}
);
layerId = UUID0;
paths = (
{
closed = 1;
nodes = (
"523 220 LINE",
"523 283 LINE",
"42 496 LINE",
"42 418 LINE",
"447 252 LINE",
"42 86 LINE",
"42 8 LINE"
);
}
);
width = 550;
}
);
unicode = 003E;
},
{
glyphname = question;
lastChange = "2016-08-03 12:43:26 +0000";
layers = (
{
hints = (
{
place = "{227, 73}";
},
{
place = "{394, 71}";
},
{
place = "{215, 97}";
},
{
horizontal = 1;
place = "{0, 102}";
},
{
horizontal = 1;
place = "{601, 69}";
}
);
layerId = UUID0;
paths = (
{
closed = 1;
nodes = (
"300 183 LINE",
"300 324 OFFCURVE",
"465 333 OFFCURVE",
"465 489 CURVE SMOOTH",
"465 489 LINE SMOOTH",
"465 579 OFFCURVE",
"404 670 OFFCURVE",
"260 670 CURVE SMOOTH",
"128 670 OFFCURVE",
"45 576 OFFCURVE",
"39 466 CURVE",
"110 466 LINE",
"116 536 OFFCURVE",
"168 601 OFFCURVE",
"266 601 CURVE SMOOTH",
"364 601 OFFCURVE",
"394 539 OFFCURVE",
"394 489 CURVE SMOOTH",
"394 366 OFFCURVE",
"227 347 OFFCURVE",
"227 183 CURVE"
);
},
{
closed = 1;
nodes = (
"312 0 LINE",
"312 102 LINE",
"215 102 LINE",
"215 0 LINE"
);
}
);
width = 515;
}
);
unicode = 003F;
},
{
glyphname = at;
lastChange = "2016-08-03 12:43:26 +0000";
layers = (
{
hints = (
{
place = "{50, 37}";
},
{
place = "{216, 60}";
},
{
place = "{531, 65}";
},
{
place = "{773, 37}";
},
{
horizontal = 1;
place = "{-50, 37}";
},
{
horizontal = 1;
place = "{123, 45}";
},
{
horizontal = 1;
place = "{479, 53}";
},
{
horizontal = 1;
place = "{669, 37}";
},
{
horizontal = 1;
place = "{123, 54}";
}
);
layerId = UUID0;
paths = (
{
closed = 1;
nodes = (
"477 -50 OFFCURVE",
"564 -25 OFFCURVE",
"634 31 CURVE",
"612 61 LINE",
"551 11 OFFCURVE",
"484 -13 OFFCURVE",
"392 -13 CURVE SMOOTH",
"392 -13 LINE SMOOTH",
"222 -13 OFFCURVE",
"87 117 OFFCURVE",
"87 289 CURVE SMOOTH",
"87 494 OFFCURVE",
"267 669 OFFCURVE",
"468 669 CURVE SMOOTH",
"638 669 OFFCURVE",
"773 537 OFFCURVE",
"773 364 CURVE SMOOTH",
"773 228 OFFCURVE",
"723 168 OFFCURVE",
"649 168 CURVE SMOOTH",
"602 168 OFFCURVE",
"596 202 OFFCURVE",
"596 221 CURVE SMOOTH",
"596 229 OFFCURVE",
"597 234 OFFCURVE",
"597 234 CURVE",
"644 526 LINE",
"584 526 LINE",
"574 462 LINE",
"551 505 OFFCURVE",
"509 532 OFFCURVE",
"443 532 CURVE SMOOTH",
"316 532 OFFCURVE",
"216 434 OFFCURVE",
"216 289 CURVE SMOOTH",
"216 195 OFFCURVE",
"273 123 OFFCURVE",
"386 123 CURVE SMOOTH",
"451 123 OFFCURVE",
"496 150 OFFCURVE",
"531 193 CURVE",
"531 193 OFFCURVE",
"534 123 OFFCURVE",
"624 123 CURVE SMOOTH",
"718 123 OFFCURVE",
"810 198 OFFCURVE",
"810 368 CURVE SMOOTH",
"810 559 OFFCURVE",
"650 706 OFFCURVE",
"468 706 CURVE SMOOTH",
"243 706 OFFCURVE",
"50 508 OFFCURVE",
"50 289 CURVE SMOOTH",
"50 105 OFFCURVE",
"192 -50 OFFCURVE",
"392 -50 CURVE SMOOTH"
);
},
{
closed = 1;
nodes = (
"317 177 OFFCURVE",
"276 227 OFFCURVE",
"276 295 CURVE SMOOTH",
"276 406 OFFCURVE",
"345 479 OFFCURVE",
"443 479 CURVE SMOOTH",
"519 479 OFFCURVE",
"558 425 OFFCURVE",
"558 358 CURVE SMOOTH",
"558 264 OFFCURVE",
"500 177 OFFCURVE",
"402 177 CURVE SMOOTH",
"402 177 LINE SMOOTH"
);
}
);
width = 852;
}
);
unicode = 0040;
},
{
glyphname = A;
lastChange = "2016-08-03 12:43:26 +0000";
layers = (
{
hints = (
{
place = "{3, 656}";
},
{
horizontal = 1;
place = "{0, 21}";
target = up;
type = BottomGhost;
},
{
horizontal = 1;
place = "{192, 69}";
},
{
horizontal = 1;
place = "{662, -20}";
target = down;
type = TopGhost;
},
{
horizontal = 1;
place = "{584, 78}";
}
);
layerId = UUID0;
paths = (
{
closed = 1;
nodes = (
"86 0 LINE",
"167 192 LINE",
"495 192 LINE",
"576 0 LINE",
"659 0 LINE",
"378 662 LINE",
"284 662 LINE",
"3 0 LINE"
);
},
{
closed = 1;
nodes = (
"331 584 LINE",
"466 261 LINE",
"196 261 LINE"
);
}
);
width = 662;
}
);
leftKerningGroup = A;
rightKerningGroup = A;
unicode = 0041;
},
{
glyphname = B;
lastChange = "2016-08-03 12:43:26 +0000";
layers = (
{
hints = (
{
place = "{81, 75}";
},
{
place = "{546, 75}";
},
{
place = "{512, 75}";
},
{
horizontal = 1;
place = "{0, 71}";
},
{
horizontal = 1;
place = "{298, 68}";
},
{
horizontal = 1;
place = "{591, 71}";
}
);
layerId = UUID0;
paths = (
{
closed = 1;
nodes = (
"395 0 LINE SMOOTH",
"546 0 OFFCURVE",
"621 75 OFFCURVE",
"621 174 CURVE SMOOTH",
"621 273 OFFCURVE",
"554 320 OFFCURVE",
"498 338 CURVE",
"498 338 LINE",
"545 359 OFFCURVE",
"587 402 OFFCURVE",
"587 487 CURVE SMOOTH",
"587 567 OFFCURVE",
"534 662 OFFCURVE",
"378 662 CURVE SMOOTH",
"81 662 LINE",
"81 0 LINE"
);
},
{
closed = 1;
nodes = (
"156 298 LINE",
"395 298 LINE SMOOTH",
"500 298 OFFCURVE",
"546 242 OFFCURVE",
"546 180 CURVE SMOOTH",
"546 111 OFFCURVE",
"494 71 OFFCURVE",
"403 71 CURVE",
"403 71 LINE",
"156 71 LINE"
);
},
{
closed = 1;
nodes = (
"156 591 LINE",
"386 591 LINE SMOOTH",
"477 591 OFFCURVE",
"512 536 OFFCURVE",
"512 481 CURVE SMOOTH",
"512 400 OFFCURVE",
"447 366 OFFCURVE",
"378 366 CURVE SMOOTH",
"156 366 LINE"
);
}
);
width = 662;
}
);
leftKerningGroup = I;
unicode = 0042;
},
{
glyphname = C;
lastChange = "2016-08-03 12:43:26 +0000";
layers = (
{
hints = (
{
place = "{39, 75}";
},
{
horizontal = 1;
place = "{-8, 73}";
},
{
horizontal = 1;
place = "{597, 73}";
}
);
layerId = UUID0;
paths = (
{
closed = 1;
nodes = (
"509 -8 OFFCURVE",
"617 77 OFFCURVE",
"659 198 CURVE",
"580 198 LINE",
"546 117 OFFCURVE",
"474 65 OFFCURVE",
"365 65 CURVE SMOOTH",
"365 65 LINE SMOOTH",
"204 65 OFFCURVE",
"114 182 OFFCURVE",
"114 331 CURVE SMOOTH",
"114 480 OFFCURVE",
"204 597 OFFCURVE",
"365 597 CURVE SMOOTH",
"474 597 OFFCURVE",
"546 545 OFFCURVE",
"580 464 CURVE",
"659 464 LINE",
"617 585 OFFCURVE",
"509 670 OFFCURVE",
"359 670 CURVE SMOOTH",
"160 670 OFFCURVE",
"39 519 OFFCURVE",
"39 331 CURVE SMOOTH",
"39 143 OFFCURVE",
"160 -8 OFFCURVE",
"359 -8 CURVE SMOOTH"
);
}
);
width = 690;
}
);
leftKerningGroup = O;
rightKerningGroup = C;
unicode = 0043;
},
{
glyphname = D;
lastChange = "2016-08-03 12:43:26 +0000";
layers = (
{
hints = (
{
place = "{81, 75}";
},
{
place = "{589, 75}";
},
{
horizontal = 1;
place = "{0, 71}";
},
{
horizontal = 1;
place = "{591, 71}";
}
);
layerId = UUID0;
paths = (
{
closed = 1;
nodes = (
"360 0 LINE SMOOTH",
"518 0 OFFCURVE",
"664 124 OFFCURVE",
"664 331 CURVE SMOOTH",
"664 538 OFFCURVE",
"518 662 OFFCURVE",
"360 662 CURVE",
"360 662 LINE",
"81 662 LINE",
"81 0 LINE"
);
},
{
closed = 1;
nodes = (
"156 591 LINE",
"357 591 LINE SMOOTH",
"498 591 OFFCURVE",
"589 473 OFFCURVE",
"589 331 CURVE SMOOTH",
"589 189 OFFCURVE",
"498 71 OFFCURVE",
"357 71 CURVE",
"357 71 LINE",
"156 71 LINE"
);
}
);
width = 704;
}
);
leftKerningGroup = I;
rightKerningGroup = O;
unicode = 0044;
},
{
glyphname = E;
lastChange = "2016-08-03 12:43:26 +0000";
layers = (
{
hints = (
{
place = "{81, 75}";
},
{
horizontal = 1;
place = "{0, 72}";
},
{
horizontal = 1;
place = "{295, 73}";
},
{
horizontal = 1;
place = "{590, 72}";
}
);
layerId = UUID0;
paths = (
{
closed = 1;
nodes = (
"568 0 LINE",
"568 72 LINE",
"156 72 LINE",
"156 295 LINE",
"524 295 LINE",
"524 368 LINE",
"156 368 LINE",
"156 590 LINE",
"568 590 LINE",
"568 662 LINE",
"81 662 LINE",
"81 0 LINE"
);
}
);
width = 608;
}
);
leftKerningGroup = I;
rightKerningGroup = E;
unicode = 0045;
},
{
glyphname = F;
lastChange = "2016-08-03 12:43:26 +0000";
layers = (
{
hints = (
{
place = "{81, 75}";
},
{
horizontal = 1;
place = "{0, 21}";
target = up;
type = BottomGhost;
},
{
horizontal = 1;
place = "{287, 73}";
},
{
horizontal = 1;
place = "{590, 72}";
}
);
layerId = UUID0;
paths = (
{
closed = 1;
nodes = (
"156 0 LINE",
"156 287 LINE",
"515 287 LINE",
"515 360 LINE",
"156 360 LINE",
"156 590 LINE",
"559 590 LINE",
"559 662 LINE",
"81 662 LINE",
"81 0 LINE"
);
}
);
width = 583;
}
);
leftKerningGroup = I;
unicode = 0046;
},
{
glyphname = G;
lastChange = "2016-08-03 12:43:26 +0000";
layers = (
{
hints = (
{
place = "{39, 75}";
},
{
place = "{603, 69}";
},
{
horizontal = 1;
place = "{-8, 73}";
},
{
horizontal = 1;
place = "{284, 68}";
},
{
horizontal = 1;
place = "{597, 73}";
},
{
horizontal = 1;
place = "{0, 21}";
target = up;
type = BottomGhost;
}
);
layerId = UUID0;
paths = (
{
closed = 1;
nodes = (
"483 -8 OFFCURVE",
"561 53 OFFCURVE",
"603 117 CURVE",
"603 0 LINE",
"672 0 LINE",
"672 352 LINE",
"361 352 LINE",
"361 284 LINE",
"603 284 LINE",
"603 146 OFFCURVE",
"489 65 OFFCURVE",
"369 65 CURVE SMOOTH",
"208 65 OFFCURVE",
"114 182 OFFCURVE",
"114 331 CURVE SMOOTH",
"114 480 OFFCURVE",
"210 597 OFFCURVE",
"371 597 CURVE SMOOTH",
"472 597 OFFCURVE",
"544 553 OFFCURVE",
"584 482 CURVE",
"666 482 LINE",
"617 593 OFFCURVE",
"507 670 OFFCURVE",
"365 670 CURVE SMOOTH",
"365 670 LINE SMOOTH",
"166 670 OFFCURVE",
"39 519 OFFCURVE",
"39 331 CURVE SMOOTH",
"39 143 OFFCURVE",
"161 -8 OFFCURVE",
"363 -8 CURVE SMOOTH"
);
}
);
width = 723;
}
);
leftKerningGroup = O;
unicode = 0047;
},
{
glyphname = H;
lastChange = "2016-08-03 12:43:26 +0000";
layers = (
{
hints = (
{
place = "{81, 75}";
},
{
place = "{541, 75}";
},
{
horizontal = 1;
place = "{0, 21}";
target = up;
type = BottomGhost;
},
{
horizontal = 1;
place = "{295, 73}";
},
{
horizontal = 1;
place = "{662, -20}";
target = down;
type = TopGhost;
}
);
layerId = UUID0;
paths = (
{
closed = 1;
nodes = (
"156 0 LINE",
"156 295 LINE",
"541 295 LINE",
"541 0 LINE",
"616 0 LINE",
"616 662 LINE",
"541 662 LINE",
"541 368 LINE",
"156 368 LINE",
"156 662 LINE",
"81 662 LINE",
"81 0 LINE"
);
}
);
width = 697;
}
);
leftKerningGroup = I;
rightKerningGroup = I;
unicode = 0048;
},
{
glyphname = I;
lastChange = "2016-08-03 12:43:26 +0000";
layers = (
{
hints = (
{
place = "{81, 75}";
},
{
horizontal = 1;
place = "{0, 21}";
target = up;
type = BottomGhost;
},
{
horizontal = 1;
place = "{662, -20}";
target = down;
type = TopGhost;
}
);
layerId = UUID0;
paths = (
{
closed = 1;
nodes = (
"156 0 LINE",
"156 662 LINE",
"81 662 LINE",
"81 0 LINE"
);
}
);
width = 237;
}
);
leftKerningGroup = I;
rightKerningGroup = I;
unicode = 0049;
},
{
glyphname = J;
lastChange = "2016-08-03 12:43:26 +0000";
layers = (
{
hints = (
{
place = "{377, 75}";
},
{
horizontal = 1;
place = "{-8, 73}";
},
{
horizontal = 1;
place = "{662, -20}";
target = down;
type = TopGhost;
}
);
layerId = UUID0;
paths = (
{
closed = 1;
nodes = (
"396 -8 OFFCURVE",
"452 103 OFFCURVE",
"452 219 CURVE SMOOTH",
"452 662 LINE",
"377 662 LINE",
"377 222 LINE SMOOTH",
"377 154 OFFCURVE",
"360 65 OFFCURVE",
"240 65 CURVE SMOOTH",
"146 65 OFFCURVE",
"101 125 OFFCURVE",
"93 177 CURVE",
"15 177 LINE",
"24 87 OFFCURVE",
"93 -8 OFFCURVE",
"236 -8 CURVE SMOOTH"
);
}
);
width = 527;
}
);
unicode = 004A;
},
{
glyphname = K;
lastChange = "2016-08-03 12:43:26 +0000";
layers = (
{
hints = (
{
place = "{81, 75}";
},
{
horizontal = 1;
place = "{0, 21}";
target = up;
type = BottomGhost;
},
{
horizontal = 1;
place = "{662, -20}";
target = down;
type = TopGhost;
}
);
layerId = UUID0;
paths = (
{
closed = 1;
nodes = (
"156 0 LINE",
"156 217 LINE",
"293 345 LINE",
"552 0 LINE",
"646 0 LINE",
"348 396 LINE",
"630 662 LINE",
"524 662 LINE",
"156 317 LINE",
"156 662 LINE",
"81 662 LINE",
"81 0 LINE"
);
}
);
width = 641;
}
);
leftKerningGroup = I;
unicode = 004B;
},
{
glyphname = L;
lastChange = "2016-08-03 12:43:26 +0000";
layers = (
{
hints = (
{
place = "{81, 75}";
},
{
horizontal = 1;
place = "{0, 72}";
},
{
horizontal = 1;
place = "{662, -20}";
target = down;
type = TopGhost;
}
);
layerId = UUID0;
paths = (
{
closed = 1;
nodes = (
"517 0 LINE",
"517 72 LINE",
"156 72 LINE",
"156 662 LINE",
"81 662 LINE",
"81 0 LINE"
);
}
);
width = 533;
}
);
leftKerningGroup = I;
unicode = 004C;
},
{
glyphname = M;
lastChange = "2016-08-03 12:43:26 +0000";
layers = (
{
hints = (
{
place = "{81, 75}";
},
{
place = "{650, 75}";
},
{
horizontal = 1;
place = "{0, 21}";
target = up;
type = BottomGhost;
},
{
horizontal = 1;
place = "{662, -20}";
target = down;
type = TopGhost;
},
{
horizontal = 1;
place = "{548, 114}";
}
);
layerId = UUID0;
paths = (
{
closed = 1;
nodes = (
"156 0 LINE",
"156 548 LINE",
"405 233 LINE",
"650 548 LINE",
"650 0 LINE",
"725 0 LINE",
"725 662 LINE",
"638 662 LINE",
"405 348 LINE",
"168 662 LINE",
"81 662 LINE",
"81 0 LINE"
);
}
);
width = 806;
}
);
leftKerningGroup = I;
rightKerningGroup = I;
unicode = 004D;
},
{
glyphname = N;
lastChange = "2016-08-03 12:43:26 +0000";
layers = (
{
hints = (
{
place = "{81, 75}";
},
{
place = "{577, 75}";
},
{
horizontal = 1;
place = "{0, 21}";
target = up;
type = BottomGhost;
},
{
horizontal = 1;
place = "{662, -20}";
target = down;
type = TopGhost;
},
{
horizontal = 1;
place = "{0, 105}";
},
{
horizontal = 1;
place = "{559, 103}";
}
);
layerId = UUID0;
paths = (
{
closed = 1;
nodes = (
"156 0 LINE",
"156 559 LINE",
"565 0 LINE",
"652 0 LINE",
"652 662 LINE",
"577 662 LINE",
"577 105 LINE",
"168 662 LINE",
"81 662 LINE",
"81 0 LINE"
);
}
);
width = 733;
}
);
leftKerningGroup = I;
rightKerningGroup = I;
unicode = 004E;
},
{
glyphname = O;
lastChange = "2016-08-03 12:43:26 +0000";
layers = (
{
hints = (
{
place = "{39, 75}";
},
{
place = "{636, 75}";
},
{
horizontal = 1;
place = "{-8, 73}";
},
{
horizontal = 1;
place = "{597, 73}";
}
);
layerId = UUID0;
paths = (
{
closed = 1;
nodes = (
"576 -8 OFFCURVE",
"711 143 OFFCURVE",
"711 331 CURVE SMOOTH",
"711 519 OFFCURVE",
"576 670 OFFCURVE",
"375 670 CURVE SMOOTH",
"375 670 LINE SMOOTH",
"174 670 OFFCURVE",
"39 519 OFFCURVE",
"39 331 CURVE SMOOTH",
"39 143 OFFCURVE",
"174 -8 OFFCURVE",
"375 -8 CURVE SMOOTH"
);
},
{
closed = 1;
nodes = (
"214 65 OFFCURVE",
"114 182 OFFCURVE",
"114 331 CURVE SMOOTH",
"114 480 OFFCURVE",
"214 597 OFFCURVE",
"375 597 CURVE SMOOTH",
"536 597 OFFCURVE",
"636 480 OFFCURVE",
"636 331 CURVE SMOOTH",
"636 182 OFFCURVE",
"536 65 OFFCURVE",
"375 65 CURVE SMOOTH",
"375 65 LINE SMOOTH"
);
}
);
width = 750;
}
);
leftKerningGroup = O;
rightKerningGroup = O;
unicode = 004F;
},
{
glyphname = P;
lastChange = "2016-08-03 12:43:26 +0000";
layers = (
{
hints = (
{
place = "{81, 75}";
},
{
place = "{532, 75}";
},
{
horizontal = 1;
place = "{0, 21}";
target = up;
type = BottomGhost;
},
{
horizontal = 1;
place = "{236, 70}";
},
{
horizontal = 1;
place = "{591, 71}";
}
);
layerId = UUID0;
paths = (
{
closed = 1;
nodes = (
"156 0 LINE",
"156 236 LINE",
"379 236 LINE SMOOTH",
"520 236 OFFCURVE",
"607 318 OFFCURVE",
"607 449 CURVE SMOOTH",
"607 579 OFFCURVE",
"520 662 OFFCURVE",
"379 662 CURVE SMOOTH",
"81 662 LINE",
"81 0 LINE"
);
},
{
closed = 1;
nodes = (
"156 591 LINE",
"374 591 LINE SMOOTH",
"478 591 OFFCURVE",
"532 537 OFFCURVE",
"532 449 CURVE SMOOTH",
"532 360 OFFCURVE",
"478 306 OFFCURVE",
"374 306 CURVE SMOOTH",
"156 306 LINE"
);
}
);
width = 628;
}
);
leftKerningGroup = I;
unicode = 0050;
},
{
glyphname = Q;
lastChange = "2016-08-03 12:43:26 +0000";
layers = (
{
hints = (
{
place = "{39, 75}";
},
{
place = "{636, 75}";
},
{
horizontal = 1;
place = "{-157, 64}";
},
{
horizontal = 1;
place = "{-2, 67}";
},
{
horizontal = 1;
place = "{597, 73}";
}
);
layerId = UUID0;
paths = (
{
closed = 1;
nodes = (
"660 -157 OFFCURVE",
"711 -139 OFFCURVE",
"758 -102 CURVE",
"718 -48 LINE",
"683 -76 OFFCURVE",
"645 -93 OFFCURVE",
"597 -93 CURVE SMOOTH",
"505 -93 OFFCURVE",
"457 -39 OFFCURVE",
"437 -2 CURVE",
"601 25 OFFCURVE",
"711 163 OFFCURVE",
"711 331 CURVE SMOOTH",
"711 519 OFFCURVE",
"576 670 OFFCURVE",
"375 670 CURVE SMOOTH",
"174 670 OFFCURVE",
"39 519 OFFCURVE",
"39 331 CURVE SMOOTH",
"39 147 OFFCURVE",
"168 0 OFFCURVE",
"361 -7 CURVE",
"404 -96 OFFCURVE",
"497 -157 OFFCURVE",
"596 -157 CURVE SMOOTH"
);
},
{
closed = 1;
nodes = (
"214 65 OFFCURVE",
"114 182 OFFCURVE",
"114 331 CURVE SMOOTH",
"114 480 OFFCURVE",
"214 597 OFFCURVE",
"375 597 CURVE SMOOTH",
"536 597 OFFCURVE",
"636 480 OFFCURVE",
"636 331 CURVE SMOOTH",
"636 182 OFFCURVE",
"536 65 OFFCURVE",
"375 65 CURVE SMOOTH",
"375 65 LINE SMOOTH"
);
}
);
width = 750;
}
);
leftKerningGroup = O;
rightKerningGroup = O;
unicode = 0051;
},
{
glyphname = R;
lastChange = "2016-08-03 12:43:26 +0000";
layers = (
{
hints = (
{
place = "{81, 75}";
},
{
place = "{546, 75}";
},
{
horizontal = 1;
place = "{0, 21}";
target = up;
type = BottomGhost;
},
{
horizontal = 1;
place = "{254, 71}";
},
{
horizontal = 1;
place = "{591, 71}";
}
);
layerId = UUID0;
paths = (
{
closed = 1;
nodes = (
"156 0 LINE",
"156 254 LINE",
"386 254 LINE",
"546 0 LINE",
"635 0 LINE",
"461 267 LINE",
"535 284 OFFCURVE",
"621 327 OFFCURVE",
"621 455 CURVE SMOOTH",
"621 581 OFFCURVE",
"534 662 OFFCURVE",
"398 662 CURVE SMOOTH",
"81 662 LINE",
"81 0 LINE"
);
},
{
closed = 1;
nodes = (
"156 591 LINE",
"389 591 LINE SMOOTH",
"483 591 OFFCURVE",
"546 539 OFFCURVE",
"546 455 CURVE SMOOTH",
"546 352 OFFCURVE",
"456 325 OFFCURVE",
"385 325 CURVE SMOOTH",
"156 325 LINE"
);
}
);
width = 669;
}
);
leftKerningGroup = I;
unicode = 0052;
},
{
glyphname = S;
lastChange = "2016-08-03 12:43:26 +0000";
layers = (
{
hints = (
{
place = "{52, 73}";
},
{
place = "{505, 75}";
},
{
horizontal = 1;
place = "{-8, 71}";
},
{
horizontal = 1;
place = "{298, 75}";
},
{
horizontal = 1;
place = "{600, 70}";
}
);
layerId = UUID0;
paths = (
{
closed = 1;
nodes = (
"481 -8 OFFCURVE",
"580 60 OFFCURVE",
"580 183 CURVE SMOOTH",
"580 414 OFFCURVE",
"125 334 OFFCURVE",
"125 488 CURVE SMOOTH",
"125 488 LINE SMOOTH",
"125 532 OFFCURVE",
"151 600 OFFCURVE",
"301 600 CURVE SMOOTH",
"422 600 OFFCURVE",
"478 547 OFFCURVE",
"486 481 CURVE",
"563 481 LINE",
"557 580 OFFCURVE",
"477 670 OFFCURVE",
"301 670 CURVE SMOOTH",
"135 670 OFFCURVE",
"52 595 OFFCURVE",
"52 487 CURVE SMOOTH",
"52 260 OFFCURVE",
"505 342 OFFCURVE",
"505 180 CURVE SMOOTH",
"505 102 OFFCURVE",
"435 63 OFFCURVE",
"323 63 CURVE SMOOTH",
"208 63 OFFCURVE",
"115 102 OFFCURVE",
"110 198 CURVE",
"32 198 LINE",
"42 79 OFFCURVE",
"122 -8 OFFCURVE",
"318 -8 CURVE SMOOTH"
);
}
);
width = 615;
}
);
unicode = 0053;
},
{
glyphname = T;
lastChange = "2016-08-03 12:43:26 +0000";
layers = (
{
hints = (
{
place = "{245, 75}";
},
{
horizontal = 1;
place = "{0, 21}";
target = up;
type = BottomGhost;
},
{
horizontal = 1;
place = "{590, 72}";
}
);
layerId = UUID0;
paths = (
{
closed = 1;
nodes = (
"320 0 LINE",
"320 590 LINE",
"551 590 LINE",
"551 662 LINE",
"14 662 LINE",
"14 590 LINE",
"245 590 LINE",
"245 0 LINE"
);
}
);
width = 565;
}
);
unicode = 0054;
},
{
glyphname = U;
lastChange = "2016-08-03 12:43:26 +0000";
layers = (
{
hints = (
{
place = "{73, 75}";
},
{
place = "{561, 75}";
},
{
horizontal = 1;
place = "{-8, 73}";
},
{
horizontal = 1;
place = "{662, -20}";
target = down;
type = TopGhost;
}
);
layerId = UUID0;
paths = (
{
closed = 1;
nodes = (
"520 -8 OFFCURVE",
"636 110 OFFCURVE",
"636 285 CURVE SMOOTH",
"636 662 LINE",
"561 662 LINE",
"561 283 LINE SMOOTH",
"561 129 OFFCURVE",
"459 65 OFFCURVE",
"354 65 CURVE SMOOTH",
"249 65 OFFCURVE",
"148 129 OFFCURVE",
"148 283 CURVE SMOOTH",
"148 662 LINE",
"73 662 LINE",
"73 285 LINE SMOOTH",
"73 109 OFFCURVE",
"189 -8 OFFCURVE",
"354 -8 CURVE SMOOTH"
);
}
);
width = 709;
}
);
leftKerningGroup = U;
rightKerningGroup = U;
unicode = 0055;
},
{
glyphname = V;
lastChange = "2016-08-03 12:43:26 +0000";
layers = (
{
hints = (
{
place = "{3, 622}";
},
{
horizontal = 1;
place = "{0, 21}";
target = up;
type = BottomGhost;
},
{
horizontal = 1;
place = "{662, -20}";
target = down;
type = TopGhost;
},
{
horizontal = 1;
place = "{0, 85}";
}
);
layerId = UUID0;
paths = (
{
closed = 1;
nodes = (
"357 0 LINE",
"625 662 LINE",
"543 662 LINE",
"314 85 LINE",
"85 662 LINE",
"3 662 LINE",
"271 0 LINE"
);
}
);
width = 628;
}
);
unicode = 0056;
},
{
glyphname = W;
lastChange = "2016-08-03 12:43:26 +0000";
layers = (
{
hints = (
{
place = "{9, 940}";
},
{
horizontal = 1;
place = "{0, 21}";
target = up;
type = BottomGhost;
},
{
horizontal = 1;
place = "{556, 106}";
},
{
horizontal = 1;
place = "{0, 106}";
},
{
horizontal = 1;
place = "{662, -20}";
target = down;
type = TopGhost;
}
);
layerId = UUID0;
paths = (
{
closed = 1;
nodes = (
"300 0 LINE",
"479 556 LINE",
"658 0 LINE",
"743 0 LINE",
"949 662 LINE",
"870 662 LINE",
"700 106 LINE",
"522 662 LINE",
"436 662 LINE",
"258 106 LINE",
"88 662 LINE",
"9 662 LINE",
"215 0 LINE"
);
}
);
width = 958;
}
);
unicode = 0057;
},
{
glyphname = X;
lastChange = "2016-08-03 12:43:26 +0000";
layers = (
{
hints = (
{
place = "{-3, 619}";
},
{
horizontal = 1;
place = "{0, 21}";
target = up;
type = BottomGhost;
},
{
horizontal = 1;
place = "{662, -20}";
target = down;
type = TopGhost;
}
);
layerId = UUID0;
paths = (
{
closed = 1;
nodes = (
"92 0 LINE",
"306 284 LINE",
"521 0 LINE",
"616 0 LINE",
"352 342 LINE",
"598 662 LINE",
"503 662 LINE",
"306 402 LINE",
"110 662 LINE",
"15 662 LINE",
"261 342 LINE",
"-3 0 LINE"
);
}
);
width = 613;
}
);
unicode = 0058;
},
{
glyphname = Y;
lastChange = "2016-08-03 12:43:26 +0000";
layers = (
{
hints = (
{
place = "{277, 75}";
},
{
horizontal = 1;
place = "{0, 21}";
target = up;
type = BottomGhost;
},
{
horizontal = 1;
place = "{662, -20}";
target = down;
type = TopGhost;
}
);
layerId = UUID0;
paths = (
{
closed = 1;
nodes = (
"352 0 LINE",
"352 262 LINE",
"629 662 LINE",
"538 662 LINE",
"314 340 LINE",
"90 662 LINE",
"-1 662 LINE",
"277 262 LINE",
"277 0 LINE"
);
}
);
width = 629;
}
);
leftKerningGroup = Y;
rightKerningGroup = Y;
unicode = 0059;
},
{
glyphname = Z;
lastChange = "2016-08-03 12:43:26 +0000";
layers = (
{
hints = (
{
place = "{29, 524}";
},
{
horizontal = 1;
place = "{0, 70}";
},
{
horizontal = 1;
place = "{592, 70}";
}
);
layerId = UUID0;
paths = (
{
closed = 1;
nodes = (
"553 0 LINE",
"553 70 LINE",
"121 70 LINE",
"553 590 LINE",
"553 662 LINE",
"35 662 LINE",
"35 592 LINE",
"461 592 LINE",
"29 71 LINE",
"29 0 LINE"
);
}
);
width = 584;
}
);
unicode = 005A;
},
{
glyphname = bracketleft;
lastChange = "2016-08-03 12:43:26 +0000";
layers = (
{
hints = (
{
place = "{66, 66}";
},
{
horizontal = 1;
place = "{-133, 62}";
},
{
horizontal = 1;
place = "{617, 62}";
}
);
layerId = UUID0;
paths = (
{
closed = 1;
nodes = (
"253 -133 LINE",
"253 -71 LINE",
"132 -71 LINE",
"132 617 LINE",
"253 617 LINE",
"253 679 LINE",
"66 679 LINE",
"66 -133 LINE"
);
}
);
width = 280;
}
);
unicode = 005B;
},
{
glyphname = backslash;
lastChange = "2016-08-03 12:43:26 +0000";
layers = (
{
hints = (
{
place = "{36, 299}";
},
{
horizontal = 1;
place = "{-32, 712}";
}
);
layerId = UUID0;
paths = (
{
closed = 1;
nodes = (
"335 -32 LINE",
"106 680 LINE",
"36 680 LINE",
"265 -32 LINE"
);
}
);
width = 371;
}
);
unicode = 005C;
},
{
glyphname = bracketright;
lastChange = "2016-08-03 12:43:26 +0000";
layers = (
{
hints = (
{
place = "{148, 66}";
},
{
horizontal = 1;
place = "{-133, 62}";
},
{
horizontal = 1;
place = "{617, 62}";
}
);
layerId = UUID0;
paths = (
{
closed = 1;
nodes = (
"214 -133 LINE",
"214 679 LINE",
"27 679 LINE",
"27 617 LINE",
"148 617 LINE",
"148 -71 LINE",
"27 -71 LINE",
"27 -133 LINE"
);
}
);
width = 280;
}
);
unicode = 005D;
},
{
glyphname = asciicircum;
lastChange = "2016-08-03 12:43:26 +0000";
layers = (
{
hints = (
{
place = "{75, 359}";
},
{
horizontal = 1;
place = "{668, -20}";
target = down;
type = TopGhost;
}
);
layerId = UUID0;
paths = (
{
closed = 1;
nodes = (
"145 355 LINE",
"255 570 LINE",
"364 355 LINE",
"434 355 LINE",
"285 668 LINE",
"285 668 LINE",
"224 668 LINE",
"75 355 LINE"
);
}
);
width = 500;
}
);
unicode = 005E;
},
{
glyphname = underscore;
lastChange = "2016-08-03 12:43:26 +0000";
layers = (
{
hints = (
{
place = "{50, 500}";
},
{
horizontal = 1;
place = "{-128, 55}";
}
);
layerId = UUID0;
paths = (
{
closed = 1;
nodes = (
"550 -128 LINE",
"550 -73 LINE",
"50 -73 LINE",
"50 -128 LINE"
);
}
);
width = 600;
}
);
unicode = 005F;
},
{
glyphname = grave;
lastChange = "2016-08-03 12:43:26 +0000";
layers = (
{
hints = (
{
place = "{93, 168}";
},
{
horizontal = 1;
place = "{570, 105}";
}
);
layerId = UUID0;
paths = (
{
closed = 1;
nodes = (
"261 570 LINE",
"200 675 LINE",
"93 675 LINE",
"200 570 LINE"
);
}
);
width = 340;
}
);
unicode = 0060;
},
{
glyphname = a;
lastChange = "2016-08-03 12:43:26 +0000";
layers = (
{
hints = (
{
place = "{34, 75}";
},
{
place = "{455, 75}";
},
{
horizontal = 1;
place = "{-8, 68}";
},
{
horizontal = 1;
place = "{440, 68}";
},
{
horizontal = 1;
place = "{0, 21}";
target = up;
type = BottomGhost;
},
{
horizontal = 1;
place = "{500, -20}";
target = down;
type = TopGhost;
}
);
layerId = UUID0;
paths = (
{
closed = 1;
nodes = (
"359 -8 OFFCURVE",
"418 26 OFFCURVE",
"455 80 CURVE",
"455 0 LINE",
"530 0 LINE",
"530 500 LINE",
"455 500 LINE",
"455 419 LINE",
"418 473 OFFCURVE",
"359 508 OFFCURVE",
"276 508 CURVE SMOOTH",
"276 508 LINE SMOOTH",
"130 508 OFFCURVE",
"34 393 OFFCURVE",
"34 250 CURVE SMOOTH",
"34 107 OFFCURVE",
"130 -8 OFFCURVE",
"276 -8 CURVE SMOOTH"
);
},
{
closed = 1;
nodes = (
"175 60 OFFCURVE",
"109 147 OFFCURVE",
"109 250 CURVE SMOOTH",
"109 353 OFFCURVE",
"175 440 OFFCURVE",
"286 440 CURVE SMOOTH",
"397 440 OFFCURVE",
"459 353 OFFCURVE",
"459 250 CURVE SMOOTH",
"459 147 OFFCURVE",
"397 60 OFFCURVE",
"286 60 CURVE SMOOTH",
"286 60 LINE SMOOTH"
);
}
);
width = 595;
}
);
leftKerningGroup = o;
rightKerningGroup = a;
unicode = 0061;
},
{
glyphname = b;
lastChange = "2016-08-03 12:43:26 +0000";
layers = (
{
hints = (
{
place = "{65, 75}";
},
{
place = "{486, 75}";
},
{
horizontal = 1;
place = "{-8, 68}";
},
{
horizontal = 1;
place = "{440, 68}";
},
{
horizontal = 1;
place = "{0, 21}";
target = up;
type = BottomGhost;
}
);
layerId = UUID0;
paths = (
{
closed = 1;
nodes = (
"465 -8 OFFCURVE",
"561 107 OFFCURVE",
"561 250 CURVE SMOOTH",
"561 393 OFFCURVE",
"465 508 OFFCURVE",
"319 508 CURVE SMOOTH",
"319 508 LINE SMOOTH",
"236 508 OFFCURVE",
"177 473 OFFCURVE",
"140 419 CURVE",
"140 700 LINE",
"65 700 LINE",
"65 0 LINE",
"140 0 LINE",
"140 80 LINE",
"177 26 OFFCURVE",
"236 -8 OFFCURVE",
"319 -8 CURVE SMOOTH"
);
},
{
closed = 1;
nodes = (
"198 60 OFFCURVE",
"136 147 OFFCURVE",
"136 250 CURVE SMOOTH",
"136 353 OFFCURVE",
"198 440 OFFCURVE",
"309 440 CURVE SMOOTH",
"420 440 OFFCURVE",
"486 353 OFFCURVE",
"486 250 CURVE SMOOTH",
"486 147 OFFCURVE",
"420 60 OFFCURVE",
"309 60 CURVE SMOOTH",
"309 60 LINE SMOOTH"
);
}
);
width = 594;
}
);
leftKerningGroup = h;
rightKerningGroup = o;
unicode = 0062;
},
{
glyphname = c;
lastChange = "2016-08-03 12:43:26 +0000";
layers = (
{
hints = (
{
place = "{34, 75}";
},
{
horizontal = 1;
place = "{-8, 68}";
},
{
horizontal = 1;
place = "{440, 68}";
}
);
layerId = UUID0;
paths = (
{
closed = 1;
nodes = (
"398 -8 OFFCURVE",
"487 60 OFFCURVE",
"516 157 CURVE",
"435 157 LINE",
"412 100 OFFCURVE",
"361 60 OFFCURVE",
"290 60 CURVE SMOOTH",
"290 60 LINE SMOOTH",
"179 60 OFFCURVE",
"109 147 OFFCURVE",
"109 250 CURVE SMOOTH",
"109 353 OFFCURVE",
"179 440 OFFCURVE",
"290 440 CURVE SMOOTH",
"361 440 OFFCURVE",
"412 400 OFFCURVE",
"435 343 CURVE",
"516 343 LINE",
"487 440 OFFCURVE",
"398 508 OFFCURVE",
"280 508 CURVE SMOOTH",
"130 508 OFFCURVE",
"34 393 OFFCURVE",
"34 250 CURVE SMOOTH",
"34 107 OFFCURVE",
"130 -8 OFFCURVE",
"280 -8 CURVE SMOOTH"
);
}
);
width = 544;
}
);
leftKerningGroup = o;
rightKerningGroup = c;
unicode = 0063;
},
{
glyphname = d;
lastChange = "2016-08-03 12:43:26 +0000";
layers = (
{
hints = (
{
place = "{34, 75}";
},
{
place = "{455, 75}";
},
{
horizontal = 1;
place = "{-8, 68}";
},
{
horizontal = 1;
place = "{440, 68}";
},
{
horizontal = 1;
place = "{0, 21}";
target = up;
type = BottomGhost;
}
);
layerId = UUID0;
paths = (
{
closed = 1;
nodes = (
"359 -8 OFFCURVE",
"418 26 OFFCURVE",
"455 80 CURVE",
"455 0 LINE",
"530 0 LINE",
"530 700 LINE",
"455 700 LINE",
"455 419 LINE",
"418 473 OFFCURVE",
"359 508 OFFCURVE",
"276 508 CURVE SMOOTH",
"276 508 LINE SMOOTH",
"130 508 OFFCURVE",
"34 393 OFFCURVE",
"34 250 CURVE SMOOTH",
"34 107 OFFCURVE",
"130 -8 OFFCURVE",
"276 -8 CURVE SMOOTH"
);
},
{
closed = 1;
nodes = (
"175 60 OFFCURVE",
"109 147 OFFCURVE",
"109 250 CURVE SMOOTH",
"109 353 OFFCURVE",
"175 440 OFFCURVE",
"286 440 CURVE SMOOTH",
"397 440 OFFCURVE",
"459 353 OFFCURVE",
"459 250 CURVE SMOOTH",
"459 147 OFFCURVE",
"397 60 OFFCURVE",
"286 60 CURVE SMOOTH",
"286 60 LINE SMOOTH"
);
}
);
width = 595;
}
);
leftKerningGroup = o;
unicode = 0064;
},
{
glyphname = e;
lastChange = "2016-08-03 12:43:26 +0000";
layers = (
{
hints = (
{
place = "{34, 77}";
},
{
horizontal = 1;
place = "{-8, 68}";
},
{
horizontal = 1;
place = "{220, 70}";
},
{
horizontal = 1;
place = "{440, 68}";
}
);
layerId = UUID0;
paths = (
{
closed = 1;
nodes = (
"406 -8 OFFCURVE",
"480 54 OFFCURVE",
"515 144 CURVE",
"433 144 LINE",
"406 94 OFFCURVE",
"358 60 OFFCURVE",
"288 60 CURVE",
"288 60 LINE",
"187 60 OFFCURVE",
"122 131 OFFCURVE",
"111 220 CURVE",
"530 220 LINE",
"530 250 LINE SMOOTH",
"530 393 OFFCURVE",
"435 508 OFFCURVE",
"282 508 CURVE SMOOTH",
"129 508 OFFCURVE",
"34 393 OFFCURVE",
"34 250 CURVE SMOOTH",
"34 107 OFFCURVE",
"134 -8 OFFCURVE",
"287 -8 CURVE SMOOTH"
);
},
{
closed = 1;
nodes = (
"126 375 OFFCURVE",
"186 440 OFFCURVE",
"282 440 CURVE",
"282 440 LINE",
"378 440 OFFCURVE",
"438 375 OFFCURVE",
"452 290 CURVE",
"112 290 LINE"
);
}
);
width = 557;
}
);
leftKerningGroup = o;
rightKerningGroup = e;
unicode = 0065;
},
{
glyphname = f;
lastChange = "2016-08-03 12:43:26 +0000";
layers = (
{
hints = (
{
place = "{99, 75}";
},
{
horizontal = 1;
place = "{0, 21}";
target = up;
type = BottomGhost;
},
{
horizontal = 1;
place = "{434, 66}";
},
{
horizontal = 1;
place = "{637, 71}";
}
);
layerId = UUID0;
paths = (
{
closed = 1;
nodes = (
"174 0 LINE",
"174 434 LINE",
"290 434 LINE",
"290 500 LINE",
"174 500 LINE",
"174 538 LINE SMOOTH",
"174 607 OFFCURVE",
"210 637 OFFCURVE",
"280 637 CURVE",
"290 637 LINE",
"290 708 LINE",
"284 708 LINE SMOOTH",
"169 708 OFFCURVE",
"99 653 OFFCURVE",
"99 544 CURVE SMOOTH",
"99 500 LINE",
"13 500 LINE",
"13 434 LINE",
"99 434 LINE",
"99 0 LINE"
);
}
);
width = 307;
}
);
leftKerningGroup = f;
rightKerningGroup = f;
unicode = 0066;
},
{
glyphname = g;
lastChange = "2016-08-03 12:43:26 +0000";
layers = (
{
hints = (
{
place = "{34, 75}";
},
{
place = "{455, 75}";
},
{
horizontal = 1;
place = "{-206, 68}";
},
{
horizontal = 1;
place = "{0, 68}";
},
{
horizontal = 1;
place = "{500, -20}";
target = down;
type = TopGhost;
},
{
horizontal = 1;
place = "{440, 68}";
}
);
layerId = UUID0;
paths = (
{
closed = 1;
nodes = (
"444 -206 OFFCURVE",
"530 -128 OFFCURVE",
"530 15 CURVE SMOOTH",
"530 500 LINE",
"455 500 LINE",
"455 420 LINE",
"418 474 OFFCURVE",
"359 508 OFFCURVE",
"276 508 CURVE SMOOTH",
"130 508 OFFCURVE",
"34 397 OFFCURVE",
"34 254 CURVE SMOOTH",
"34 111 OFFCURVE",
"130 0 OFFCURVE",
"276 0 CURVE SMOOTH",
"359 0 OFFCURVE",
"418 35 OFFCURVE",
"455 89 CURVE",
"455 20 LINE SMOOTH",
"455 -83 OFFCURVE",
"405 -138 OFFCURVE",
"290 -138 CURVE SMOOTH",
"214 -138 OFFCURVE",
"164 -109 OFFCURVE",
"144 -60 CURVE",
"61 -60 LINE",
"89 -147 OFFCURVE",
"168 -206 OFFCURVE",
"294 -206 CURVE SMOOTH"
);
},
{
closed = 1;
nodes = (
"175 68 OFFCURVE",
"109 151 OFFCURVE",
"109 254 CURVE SMOOTH",
"109 357 OFFCURVE",
"175 440 OFFCURVE",
"286 440 CURVE SMOOTH",
"395 440 OFFCURVE",
"459 357 OFFCURVE",
"459 254 CURVE SMOOTH",
"459 151 OFFCURVE",
"395 68 OFFCURVE",
"286 68 CURVE SMOOTH",
"286 68 LINE SMOOTH"
);
}
);
width = 595;
}
);
leftKerningGroup = o;
rightKerningGroup = a;
unicode = 0067;
},
{
glyphname = h;
lastChange = "2016-08-03 12:43:26 +0000";
layers = (
{
hints = (
{
place = "{65, 75}";
},
{
place = "{431, 75}";
},
{
horizontal = 1;
place = "{0, 21}";
target = up;
type = BottomGhost;
},
{
horizontal = 1;
place = "{440, 68}";
}
);
layerId = UUID0;
paths = (
{
closed = 1;
nodes = (
"140 0 LINE",
"140 288 LINE SMOOTH",
"140 378 OFFCURVE",
"208 440 OFFCURVE",
"291 440 CURVE SMOOTH",
"373 440 OFFCURVE",
"431 380 OFFCURVE",
"431 289 CURVE SMOOTH",
"431 0 LINE",
"506 0 LINE",
"506 291 LINE SMOOTH",
"506 433 OFFCURVE",
"409 508 OFFCURVE",
"306 508 CURVE SMOOTH",
"225 508 OFFCURVE",
"176 470 OFFCURVE",
"140 422 CURVE",
"140 700 LINE",
"65 700 LINE",
"65 0 LINE"
);
}
);
width = 566;
}
);
leftKerningGroup = h;
rightKerningGroup = n;
unicode = 0068;
},
{
glyphname = i;
lastChange = "2016-08-03 12:43:26 +0000";
layers = (
{
hints = (
{
place = "{65, 75}";
},
{
place = "{62, 81}";
},
{
horizontal = 1;
place = "{0, 21}";
target = up;
type = BottomGhost;
},
{
horizontal = 1;
place = "{500, -20}";
target = down;
type = TopGhost;
},
{
horizontal = 1;
place = "{584, 98}";
}
);
layerId = UUID0;
paths = (
{
closed = 1;
nodes = (
"140 0 LINE",
"140 500 LINE",
"65 500 LINE",
"65 0 LINE"
);
},
{
closed = 1;
nodes = (
"143 584 LINE",
"143 682 LINE",
"62 682 LINE",
"62 584 LINE"
);
}
);
width = 205;
}
);
leftKerningGroup = i;
rightKerningGroup = i;
unicode = 0069;
},
{
glyphname = j;
lastChange = "2016-08-03 12:43:26 +0000";
layers = (
{
hints = (
{
place = "{65, 75}";
},
{
place = "{62, 81}";
},
{
horizontal = 1;
place = "{-198, 21}";
target = up;
type = BottomGhost;
},
{
horizontal = 1;
place = "{500, -20}";
target = down;
type = TopGhost;
},
{
horizontal = 1;
place = "{584, 98}";
}
);
layerId = UUID0;
paths = (
{
closed = 1;
nodes = (
"140 -198 LINE",
"140 500 LINE",
"65 500 LINE",
"65 -198 LINE"
);
},
{
closed = 1;
nodes = (
"143 584 LINE",
"143 682 LINE",
"62 682 LINE",
"62 584 LINE"
);
}
);
width = 205;
}
);
leftKerningGroup = i;
rightKerningGroup = i;
unicode = 006A;
},
{
glyphname = k;
lastChange = "2016-08-03 12:43:26 +0000";
layers = (
{
hints = (
{
place = "{65, 75}";
},
{
horizontal = 1;
place = "{0, 21}";
target = up;
type = BottomGhost;
},
{
horizontal = 1;
place = "{500, -20}";
target = down;
type = TopGhost;
}
);
layerId = UUID0;
paths = (
{
closed = 1;
nodes = (
"140 0 LINE",
"140 158 LINE",
"234 251 LINE",
"409 0 LINE",
"501 0 LINE",
"285 303 LINE",
"486 500 LINE",
"381 500 LINE",
"140 252 LINE",
"140 700 LINE",
"65 700 LINE",
"65 0 LINE"
);
}
);
width = 502;
}
);
leftKerningGroup = h;
unicode = 006B;
},
{
glyphname = l;
lastChange = "2016-08-03 12:43:26 +0000";
layers = (
{
hints = (
{
place = "{65, 75}";
},
{
horizontal = 1;
place = "{0, 21}";
target = up;
type = BottomGhost;
}
);
layerId = UUID0;
paths = (
{
closed = 1;
nodes = (
"140 0 LINE",
"140 700 LINE",
"65 700 LINE",
"65 0 LINE"
);
}
);
width = 205;
}
);
rightKerningGroup = l;
unicode = 006C;
},
{
glyphname = m;
lastChange = "2016-08-03 12:43:26 +0000";
layers = (
{
hints = (
{
place = "{65, 75}";
},
{
place = "{399, 75}";
},
{
place = "{733, 75}";
},
{
horizontal = 1;
place = "{0, 21}";
target = up;
type = BottomGhost;
},
{
horizontal = 1;
place = "{440, 68}";
},
{
horizontal = 1;
place = "{500, -20}";
target = down;
type = TopGhost;
}
);
layerId = UUID0;
paths = (
{
closed = 1;
nodes = (
"140 0 LINE",
"140 299 LINE SMOOTH",
"140 388 OFFCURVE",
"201 440 OFFCURVE",
"275 440 CURVE SMOOTH",
"345 440 OFFCURVE",
"399 384 OFFCURVE",
"399 300 CURVE SMOOTH",
"399 0 LINE",
"474 0 LINE",
"474 299 LINE SMOOTH",
"474 388 OFFCURVE",
"535 440 OFFCURVE",
"609 440 CURVE SMOOTH",
"679 440 OFFCURVE",
"733 384 OFFCURVE",
"733 300 CURVE SMOOTH",
"733 0 LINE",
"808 0 LINE",
"808 302 LINE SMOOTH",
"808 428 OFFCURVE",
"719 508 OFFCURVE",
"623 508 CURVE SMOOTH",
"524 508 OFFCURVE",
"471 441 OFFCURVE",
"451 407 CURVE",
"419 471 OFFCURVE",
"358 508 OFFCURVE",
"292 508 CURVE SMOOTH",
"211 508 OFFCURVE",
"163 464 OFFCURVE",
"140 424 CURVE",
"140 500 LINE",
"65 500 LINE",
"65 0 LINE"
);
}
);
width = 868;
}
);
leftKerningGroup = n;
rightKerningGroup = n;
unicode = 006D;
},
{
glyphname = n;
lastChange = "2016-08-03 12:43:26 +0000";
layers = (
{
hints = (
{
place = "{65, 75}";
},
{
place = "{431, 75}";
},
{
horizontal = 1;
place = "{0, 21}";
target = up;
type = BottomGhost;
},
{
horizontal = 1;
place = "{500, -20}";
target = down;
type = TopGhost;
},
{
horizontal = 1;
place = "{440, 68}";
}
);
layerId = UUID0;
paths = (
{
closed = 1;
nodes = (
"140 0 LINE",
"140 288 LINE SMOOTH",
"140 378 OFFCURVE",
"208 440 OFFCURVE",
"291 440 CURVE SMOOTH",
"373 440 OFFCURVE",
"431 380 OFFCURVE",
"431 289 CURVE SMOOTH",
"431 0 LINE",
"506 0 LINE",
"506 291 LINE SMOOTH",
"506 433 OFFCURVE",
"409 508 OFFCURVE",
"306 508 CURVE SMOOTH",
"225 508 OFFCURVE",
"176 470 OFFCURVE",
"140 422 CURVE",
"140 500 LINE",
"65 500 LINE",
"65 0 LINE"
);
}
);
width = 566;
}
);
leftKerningGroup = n;
rightKerningGroup = n;
unicode = 006E;
},
{
glyphname = o;
lastChange = "2016-08-03 12:43:26 +0000";
layers = (
{
hints = (
{
place = "{34, 75}";
},
{
place = "{455, 75}";
},
{
horizontal = 1;
place = "{-8, 68}";
},
{
horizontal = 1;
place = "{440, 68}";
}
);
layerId = UUID0;
paths = (
{
closed = 1;
nodes = (
"435 -8 OFFCURVE",
"530 107 OFFCURVE",
"530 250 CURVE SMOOTH",
"530 393 OFFCURVE",
"435 508 OFFCURVE",
"282 508 CURVE SMOOTH",
"282 508 LINE SMOOTH",
"129 508 OFFCURVE",
"34 393 OFFCURVE",
"34 250 CURVE SMOOTH",
"34 107 OFFCURVE",
"129 -8 OFFCURVE",
"282 -8 CURVE SMOOTH"
);
},
{
closed = 1;
nodes = (
"171 60 OFFCURVE",
"109 147 OFFCURVE",
"109 250 CURVE SMOOTH",
"109 353 OFFCURVE",
"171 440 OFFCURVE",
"282 440 CURVE SMOOTH",
"393 440 OFFCURVE",
"455 353 OFFCURVE",
"455 250 CURVE SMOOTH",
"455 147 OFFCURVE",
"393 60 OFFCURVE",
"282 60 CURVE SMOOTH",
"282 60 LINE SMOOTH"
);
}
);
width = 564;
}
);
leftKerningGroup = o;
rightKerningGroup = o;
unicode = 006F;
},
{
glyphname = p;
lastChange = "2016-08-03 12:43:26 +0000";
layers = (
{
hints = (
{
place = "{65, 75}";
},
{
place = "{486, 75}";
},
{
horizontal = 1;
place = "{-198, 21}";
target = up;
type = BottomGhost;
},
{
horizontal = 1;
place = "{-8, 68}";
},
{
horizontal = 1;
place = "{440, 68}";
},
{
horizontal = 1;
place = "{500, -20}";
target = down;
type = TopGhost;
}
);
layerId = UUID0;
paths = (
{
closed = 1;
nodes = (
"140 -198 LINE",
"140 81 LINE",
"177 27 OFFCURVE",
"236 -8 OFFCURVE",
"319 -8 CURVE SMOOTH",
"319 -8 LINE SMOOTH",
"465 -8 OFFCURVE",
"561 107 OFFCURVE",
"561 250 CURVE SMOOTH",
"561 393 OFFCURVE",
"465 508 OFFCURVE",
"319 508 CURVE SMOOTH",
"236 508 OFFCURVE",
"177 474 OFFCURVE",
"140 420 CURVE",
"140 500 LINE",
"65 500 LINE",
"65 -198 LINE"
);
},
{
closed = 1;
nodes = (
"198 60 OFFCURVE",
"136 147 OFFCURVE",
"136 250 CURVE SMOOTH",
"136 353 OFFCURVE",
"198 440 OFFCURVE",
"309 440 CURVE SMOOTH",
"309 440 LINE SMOOTH",
"420 440 OFFCURVE",
"486 353 OFFCURVE",
"486 250 CURVE SMOOTH",
"486 147 OFFCURVE",
"420 60 OFFCURVE",
"309 60 CURVE SMOOTH"
);
}
);
width = 594;
}
);
leftKerningGroup = n;
rightKerningGroup = o;
unicode = 0070;
},
{
glyphname = q;
lastChange = "2016-08-03 12:43:26 +0000";
layers = (
{
hints = (
{
place = "{34, 75}";
},
{
place = "{455, 75}";
},
{
horizontal = 1;
place = "{-198, 21}";
target = up;
type = BottomGhost;
},
{
horizontal = 1;
place = "{-8, 68}";
},
{
horizontal = 1;
place = "{440, 68}";
},
{
horizontal = 1;
place = "{500, -20}";
target = down;
type = TopGhost;
}
);
layerId = UUID0;
paths = (
{
closed = 1;
nodes = (
"530 -198 LINE",
"530 500 LINE",
"455 500 LINE",
"455 420 LINE",
"418 474 OFFCURVE",
"359 508 OFFCURVE",
"276 508 CURVE SMOOTH",
"130 508 OFFCURVE",
"34 393 OFFCURVE",
"34 250 CURVE SMOOTH",
"34 107 OFFCURVE",
"130 -8 OFFCURVE",
"276 -8 CURVE SMOOTH",
"276 -8 LINE SMOOTH",
"359 -8 OFFCURVE",
"418 27 OFFCURVE",
"455 81 CURVE",
"455 -198 LINE"
);
},
{
closed = 1;
nodes = (
"175 60 OFFCURVE",
"109 147 OFFCURVE",
"109 250 CURVE SMOOTH",
"109 353 OFFCURVE",
"175 440 OFFCURVE",
"286 440 CURVE SMOOTH",
"286 440 LINE SMOOTH",
"397 440 OFFCURVE",
"459 353 OFFCURVE",
"459 250 CURVE SMOOTH",
"459 147 OFFCURVE",
"397 60 OFFCURVE",
"286 60 CURVE SMOOTH"
);
}
);
width = 595;
}
);
leftKerningGroup = o;
rightKerningGroup = a;
unicode = 0071;
},
{
glyphname = r;
lastChange = "2016-08-03 12:43:26 +0000";
layers = (
{
hints = (
{
place = "{65, 75}";
},
{
horizontal = 1;
place = "{0, 21}";
target = up;
type = BottomGhost;
},
{
horizontal = 1;
place = "{433, 75}";
},
{
horizontal = 1;
place = "{500, -20}";
target = down;
type = TopGhost;
}
);
layerId = UUID0;
paths = (
{
closed = 1;
nodes = (
"140 0 LINE",
"140 220 LINE",
"140 330 OFFCURVE",
"208 433 OFFCURVE",
"320 433 CURVE SMOOTH",
"329 433 LINE",
"329 508 LINE",
"324 508 LINE SMOOTH",
"200 508 OFFCURVE",
"150 411 OFFCURVE",
"140 377 CURVE",
"140 500 LINE",
"65 500 LINE",
"65 0 LINE"
);
}
);
width = 345;
}
);
leftKerningGroup = n;
unicode = 0072;
},
{
glyphname = s;
lastChange = "2016-08-03 12:43:26 +0000";
layers = (
{
hints = (
{
place = "{43, 75}";
},
{
place = "{376, 75}";
},
{
horizontal = 1;
place = "{-8, 64}";
},
{
horizontal = 1;
place = "{225, 60}";
},
{
horizontal = 1;
place = "{444, 64}";
}
);
layerId = UUID0;
paths = (
{
closed = 1;
nodes = (
"371 -8 OFFCURVE",
"451 45 OFFCURVE",
"451 142 CURVE SMOOTH",
"451 330 OFFCURVE",
"118 252 OFFCURVE",
"118 372 CURVE SMOOTH",
"118 421 OFFCURVE",
"159 444 OFFCURVE",
"237 444 CURVE SMOOTH",
"321 444 OFFCURVE",
"353 409 OFFCURVE",
"359 366 CURVE",
"435 366 LINE",
"426 439 OFFCURVE",
"371 508 OFFCURVE",
"239 508 CURVE SMOOTH",
"239 508 LINE SMOOTH",
"110 508 OFFCURVE",
"43 455 OFFCURVE",
"43 365 CURVE SMOOTH",
"43 182 OFFCURVE",
"376 260 OFFCURVE",
"376 135 CURVE SMOOTH",
"376 67 OFFCURVE",
"289 56 OFFCURVE",
"248 56 CURVE SMOOTH",
"151 56 OFFCURVE",
"113 106 OFFCURVE",
"108 157 CURVE",
"30 157 LINE",
"35 69 OFFCURVE",
"108 -8 OFFCURVE",
"247 -8 CURVE SMOOTH"
);
}
);
width = 482;
}
);
unicode = 0073;
},
{
glyphname = t;
lastChange = "2016-08-03 12:24:03 +0000";
layers = (
{
hints = (
{
place = "{119, 75}";
},
{
horizontal = 1;
place = "{0, 21}";
target = up;
type = BottomGhost;
},
{
horizontal = 1;
place = "{434, 66}";
}
);
layerId = UUID0;
paths = (
{
closed = 1;
nodes = (
"194 0 LINE",
"194 434 LINE",
"309 434 LINE",
"309 500 LINE",
"194 500 LINE",
"194 679 LINE",
"119 679 LINE",
"119 500 LINE",
"17 500 LINE",
"17 434 LINE",
"119 434 LINE",
"119 0 LINE"
);
}
);
width = 326;
}
);
unicode = 0074;
},
{
glyphname = u;
lastChange = "2016-08-03 12:43:26 +0000";
layers = (
{
hints = (
{
place = "{60, 75}";
},
{
place = "{426, 75}";
},
{
horizontal = 1;
place = "{0, 21}";
target = up;
type = BottomGhost;
},
{
horizontal = 1;
place = "{500, -20}";
target = down;
type = TopGhost;
},
{
horizontal = 1;
place = "{-8, 68}";
}
);
layerId = UUID0;
paths = (
{
closed = 1;
nodes = (
"341 -8 OFFCURVE",
"390 30 OFFCURVE",
"426 78 CURVE",
"426 0 LINE",
"501 0 LINE",
"501 500 LINE",
"426 500 LINE",
"426 212 LINE SMOOTH",
"426 122 OFFCURVE",
"358 60 OFFCURVE",
"275 60 CURVE SMOOTH",
"193 60 OFFCURVE",
"135 120 OFFCURVE",
"135 211 CURVE SMOOTH",
"135 500 LINE",
"60 500 LINE",
"60 209 LINE SMOOTH",
"60 67 OFFCURVE",
"157 -8 OFFCURVE",
"260 -8 CURVE SMOOTH"
);
}
);
width = 566;
}
);
leftKerningGroup = u;
rightKerningGroup = a;
unicode = 0075;
},
{
glyphname = v;
lastChange = "2016-08-03 12:43:26 +0000";
layers = (
{
hints = (
{
place = "{5, 479}";
},
{
horizontal = 1;
place = "{0, 21}";
target = up;
type = BottomGhost;
},
{
horizontal = 1;
place = "{500, -20}";
target = down;
type = TopGhost;
},
{
horizontal = 1;
place = "{0, 80}";
}
);
layerId = UUID0;
paths = (
{
closed = 1;
nodes = (
"289 0 LINE",
"484 500 LINE",
"402 500 LINE",
"245 80 LINE",
"87 500 LINE",
"5 500 LINE",
"201 0 LINE"
);
}
);
width = 489;
}
);
unicode = 0076;
},
{
glyphname = w;
lastChange = "2016-08-03 12:43:26 +0000";
layers = (
{
hints = (
{
place = "{9, 736}";
},
{
horizontal = 1;
place = "{0, 21}";
target = up;
type = BottomGhost;
},
{
horizontal = 1;
place = "{500, -20}";
target = down;
type = TopGhost;
},
{
horizontal = 1;
place = "{0, 93}";
},
{
horizontal = 1;
place = "{399, 101}";
}
);
layerId = UUID0;
paths = (
{
closed = 1;
nodes = (
"252 0 LINE",
"377 399 LINE",
"502 0 LINE",
"588 0 LINE",
"745 500 LINE",
"665 500 LINE",
"545 93 LINE",
"418 500 LINE",
"336 500 LINE",
"209 93 LINE",
"89 500 LINE",
"9 500 LINE",
"166 0 LINE"
);
}
);
width = 754;
}
);
unicode = 0077;
},
{
glyphname = x;
lastChange = "2016-08-03 12:43:26 +0000";
layers = (
{
hints = (
{
place = "{4, 474}";
},
{
horizontal = 1;
place = "{0, 21}";
target = up;
type = BottomGhost;
},
{
horizontal = 1;
place = "{500, -20}";
target = down;
type = TopGhost;
}
);
layerId = UUID0;
paths = (
{
closed = 1;
nodes = (
"99 0 LINE",
"241 204 LINE",
"382 0 LINE",
"478 0 LINE",
"284 258 LINE",
"465 500 LINE",
"369 500 LINE",
"241 311 LINE",
"112 500 LINE",
"16 500 LINE",
"197 258 LINE",
"4 0 LINE"
);
}
);
width = 482;
}
);
unicode = 0078;
},
{
glyphname = y;
lastChange = "2016-08-03 12:43:26 +0000";
layers = (
{
hints = (
{
place = "{4, 490}";
},
{
horizontal = 1;
place = "{-198, 21}";
target = up;
type = BottomGhost;
},
{
horizontal = 1;
place = "{500, -20}";
target = down;
type = TopGhost;
}
);
layerId = UUID0;
paths = (
{
closed = 1;
nodes = (
"198 -198 LINE",
"494 500 LINE",
"412 500 LINE",
"248 90 LINE",
"87 500 LINE",
"4 500 LINE",
"208 7 LINE",
"117 -198 LINE"
);
}
);
width = 497;
}
);
leftKerningGroup = y;
rightKerningGroup = y;
unicode = 0079;
},
{
glyphname = z;
lastChange = "2016-08-03 12:43:26 +0000";
layers = (
{
hints = (
{
place = "{31, 394}";
},
{
horizontal = 1;
place = "{0, 70}";
},
{
horizontal = 1;
place = "{431, 69}";
}
);
layerId = UUID0;
paths = (
{
closed = 1;
nodes = (
"425 0 LINE",
"425 70 LINE",
"125 70 LINE",
"425 430 LINE",
"425 500 LINE",
"35 500 LINE",
"35 431 LINE",
"330 431 LINE",
"31 71 LINE",
"31 0 LINE"
);
}
);
width = 458;
}
);
unicode = 007A;
},
{
glyphname = braceleft;
lastChange = "2016-08-03 12:43:26 +0000";
layers = (
{
hints = (
{
place = "{100, 66}";
},
{
horizontal = 1;
place = "{-133, 54}";
},
{
horizontal = 1;
place = "{250, 46}";
},
{
horizontal = 1;
place = "{625, 54}";
}
);
layerId = UUID0;
paths = (
{
closed = 1;
nodes = (
"269 -79 LINE",
"189 -78 OFFCURVE",
"166 -58 OFFCURVE",
"166 12 CURVE SMOOTH",
"166 144 LINE SMOOTH",
"166 219 OFFCURVE",
"133 255 OFFCURVE",
"96 273 CURVE",
"133 291 OFFCURVE",
"166 327 OFFCURVE",
"166 402 CURVE SMOOTH",
"166 534 LINE SMOOTH",
"166 604 OFFCURVE",
"189 624 OFFCURVE",
"269 625 CURVE",
"269 679 LINE",
"174 679 OFFCURVE",
"100 670 OFFCURVE",
"100 535 CURVE",
"100 535 LINE",
"100 391 LINE SMOOTH",
"100 325 OFFCURVE",
"52 296 OFFCURVE",
"21 296 CURVE",
"21 250 LINE",
"52 250 OFFCURVE",
"100 221 OFFCURVE",
"100 155 CURVE SMOOTH",
"100 11 LINE SMOOTH",
"100 -124 OFFCURVE",
"174 -133 OFFCURVE",
"269 -133 CURVE"
);
}
);
width = 294;
}
);
unicode = 007B;
},
{
glyphname = bar;
lastChange = "2016-08-03 12:24:03 +0000";
layers = (
{
hints = (
{
place = "{65, 61}";
},
{
horizontal = 1;
place = "{-179, 927}";
}
);
layerId = UUID0;
paths = (
{
closed = 1;
nodes = (
"126 -179 LINE",
"126 748 LINE",
"65 748 LINE",
"65 -179 LINE"
);
}
);
width = 191;
}
);
unicode = 007C;
},
{
glyphname = braceright;
lastChange = "2016-08-03 12:43:26 +0000";
layers = (
{
hints = (
{
place = "{128, 66}";
},
{
horizontal = 1;
place = "{-133, 54}";
},
{
horizontal = 1;
place = "{250, 46}";
},
{
horizontal = 1;
place = "{625, 54}";
}
);
layerId = UUID0;
paths = (
{
closed = 1;
nodes = (
"120 -133 OFFCURVE",
"194 -124 OFFCURVE",
"194 11 CURVE SMOOTH",
"194 155 LINE SMOOTH",
"194 221 OFFCURVE",
"242 250 OFFCURVE",
"273 250 CURVE",
"273 296 LINE",
"242 296 OFFCURVE",
"194 325 OFFCURVE",
"194 391 CURVE SMOOTH",
"194 535 LINE SMOOTH",
"194 670 OFFCURVE",
"120 679 OFFCURVE",
"25 679 CURVE",
"25 625 LINE",
"105 624 OFFCURVE",
"128 604 OFFCURVE",
"128 534 CURVE SMOOTH",
"128 402 LINE SMOOTH",
"128 327 OFFCURVE",
"161 291 OFFCURVE",
"198 273 CURVE",
"161 255 OFFCURVE",
"128 219 OFFCURVE",
"128 144 CURVE SMOOTH",
"128 12 LINE SMOOTH",
"128 -58 OFFCURVE",
"105 -78 OFFCURVE",
"25 -79 CURVE",
"25 -133 LINE"
);
}
);
width = 294;
}
);
unicode = 007D;
},
{
glyphname = asciitilde;
lastChange = "2016-08-03 12:43:26 +0000";
layers = (
{
hints = (
{
place = "{48, 430}";
},
{
horizontal = 1;
place = "{226, 62}";
},
{
horizontal = 1;
place = "{286, 63}";
}
);
layerId = UUID0;
paths = (
{
closed = 1;
nodes = (
"79 215 LINE",
"85 232 OFFCURVE",
"93 286 OFFCURVE",
"155 286 CURVE SMOOTH",
"201 286 OFFCURVE",
"297 226 OFFCURVE",
"367 226 CURVE SMOOTH",
"454 226 OFFCURVE",
"471 311 OFFCURVE",
"478 360 CURVE",
"446 360 LINE",
"441 343 OFFCURVE",
"431 288 OFFCURVE",
"371 288 CURVE SMOOTH",
"325 288 OFFCURVE",
"229 349 OFFCURVE",
"160 349 CURVE SMOOTH",
"72 349 OFFCURVE",
"54 264 OFFCURVE",
"48 215 CURVE"
);
}
);
width = 524;
}
);
unicode = 007E;
},
{
glyphname = cent;
lastChange = "2016-08-03 12:43:26 +0000";
layers = (
{
hints = (
{
place = "{48, 75}";
},
{
place = "{280, 36}";
},
{
horizontal = 1;
place = "{-7, 67}";
},
{
horizontal = 1;
place = "{440, 67}";
}
);
layerId = UUID0;
paths = (
{
closed = 1;
nodes = (
"316 -101 LINE",
"316 -7 LINE",
"423 1 OFFCURVE",
"503 66 OFFCURVE",
"530 157 CURVE",
"449 157 LINE",
"427 103 OFFCURVE",
"381 65 OFFCURVE",
"316 60 CURVE",
"316 60 LINE",
"316 440 LINE",
"381 435 OFFCURVE",
"427 397 OFFCURVE",
"449 343 CURVE",
"530 343 LINE",
"503 434 OFFCURVE",
"423 499 OFFCURVE",
"316 507 CURVE",
"316 595 LINE",
"280 595 LINE",
"280 508 LINE",
"138 501 OFFCURVE",
"48 388 OFFCURVE",
"48 250 CURVE SMOOTH",
"48 112 OFFCURVE",
"138 -1 OFFCURVE",
"280 -8 CURVE",
"280 -101 LINE"
);
},
{
closed = 1;
nodes = (
"183 73 OFFCURVE",
"123 155 OFFCURVE",
"123 250 CURVE SMOOTH",
"123 250 LINE SMOOTH",
"123 345 OFFCURVE",
"183 427 OFFCURVE",
"280 439 CURVE",
"280 61 LINE"
);
}
);
width = 574;
}
);
unicode = 00A2;
},
{
glyphname = sterling;
lastChange = "2016-08-03 12:43:26 +0000";
layers = (
{
hints = (
{
place = "{128, 73}";
},
{
horizontal = 1;
place = "{0, 70}";
},
{
horizontal = 1;
place = "{319, 58}";
},
{
horizontal = 1;
place = "{599, 71}";
}
);
layerId = UUID0;
paths = (
{
closed = 1;
nodes = (
"504 0 LINE",
"504 70 LINE",
"201 70 LINE",
"201 319 LINE",
"349 319 LINE",
"349 377 LINE",
"201 377 LINE",
"201 446 LINE SMOOTH",
"201 514 OFFCURVE",
"215 599 OFFCURVE",
"336 599 CURVE SMOOTH",
"411 599 OFFCURVE",
"446 560 OFFCURVE",
"460 518 CURVE",
"531 518 LINE",
"514 597 OFFCURVE",
"459 670 OFFCURVE",
"333 670 CURVE SMOOTH",
"333 670 LINE SMOOTH",
"182 670 OFFCURVE",
"128 565 OFFCURVE",
"128 449 CURVE SMOOTH",
"128 377 LINE",
"57 377 LINE",
"57 319 LINE",
"128 319 LINE",
"128 70 LINE",
"48 61 LINE",
"48 0 LINE"
);
}
);
width = 575;
}
);
unicode = 00A3;
},
{
glyphname = currency;
lastChange = "2016-08-03 12:43:26 +0000";
layers = (
{
hints = (
{
place = "{71, 61}";
},
{
place = "{436, 60}";
},
{
horizontal = 1;
place = "{111, 61}";
},
{
horizontal = 1;
place = "{476, 60}";
}
);
layerId = UUID0;
paths = (
{
closed = 1;
nodes = (
"157 153 LINE",
"193 126 OFFCURVE",
"236 111 OFFCURVE",
"284 111 CURVE SMOOTH",
"331 111 OFFCURVE",
"375 126 OFFCURVE",
"410 153 CURVE",
"475 88 LINE",
"519 133 LINE",
"455 197 LINE",
"481 233 OFFCURVE",
"496 276 OFFCURVE",
"496 324 CURVE SMOOTH",
"496 371 OFFCURVE",
"481 415 OFFCURVE",
"455 450 CURVE",
"519 515 LINE",
"475 560 LINE",
"410 495 LINE",
"375 521 OFFCURVE",
"331 536 OFFCURVE",
"284 536 CURVE SMOOTH",
"236 536 OFFCURVE",
"193 521 OFFCURVE",
"157 495 CURVE",
"93 560 LINE",
"48 515 LINE",
"112 450 LINE",
"86 415 OFFCURVE",
"71 371 OFFCURVE",
"71 324 CURVE SMOOTH",
"71 276 OFFCURVE",
"86 233 OFFCURVE",
"112 197 CURVE",
"48 133 LINE",
"93 88 LINE"
);
},
{
closed = 1;
nodes = (
"200 172 OFFCURVE",
"132 240 OFFCURVE",
"132 324 CURVE SMOOTH",
"132 408 OFFCURVE",
"200 476 OFFCURVE",
"284 476 CURVE SMOOTH",
"368 476 OFFCURVE",
"436 408 OFFCURVE",
"436 324 CURVE SMOOTH",
"436 240 OFFCURVE",
"368 172 OFFCURVE",
"284 172 CURVE SMOOTH",
"284 172 LINE SMOOTH"
);
}
);
width = 567;
}
);
unicode = 00A4;
},
{
glyphname = yen;
lastChange = "2016-08-03 12:43:26 +0000";
layers = (
{
hints = (
{
place = "{291, 75}";
},
{
horizontal = 1;
place = "{125, 65}";
},
{
horizontal = 1;
place = "{289, 65}";
},
{
horizontal = 1;
place = "{662, -20}";
target = down;
type = TopGhost;
},
{
horizontal = 1;
place = "{0, 190}";
}
);
layerId = UUID0;
paths = (
{
closed = 1;
nodes = (
"366 0 LINE",
"366 125 LINE",
"559 125 LINE",
"559 190 LINE",
"366 190 LINE",
"366 262 LINE",
"383 289 LINE",
"559 289 LINE",
"559 354 LINE",
"424 354 LINE",
"620 662 LINE",
"529 662 LINE",
"328 340 LINE",
"128 662 LINE",
"37 662 LINE",
"232 354 LINE",
"98 354 LINE",
"98 289 LINE",
"274 289 LINE",
"291 262 LINE",
"291 190 LINE",
"98 190 LINE",
"98 125 LINE",
"291 125 LINE",
"291 0 LINE"
);
}
);
width = 657;
}
);
unicode = 00A5;
},
{
glyphname = section;
lastChange = "2016-08-03 12:43:26 +0000";
layers = (
{
hints = (
{
place = "{47, 73}";
},
{
place = "{362, 73}";
},
{
place = "{86, 73}";
},
{
place = "{401, 73}";
},
{
horizontal = 1;
place = "{-178, 67}";
},
{
horizontal = 1;
place = "{602, 67}";
}
);
layerId = UUID0;
paths = (
{
closed = 1;
nodes = (
"322 -178 OFFCURVE",
"435 -150 OFFCURVE",
"435 -25 CURVE SMOOTH",
"435 -25 LINE SMOOTH",
"435 15 OFFCURVE",
"420 47 OFFCURVE",
"396 74 CURVE",
"446 94 OFFCURVE",
"474 132 OFFCURVE",
"474 193 CURVE SMOOTH",
"474 352 OFFCURVE",
"159 398 OFFCURVE",
"159 524 CURVE SMOOTH",
"159 575 OFFCURVE",
"203 602 OFFCURVE",
"264 602 CURVE SMOOTH",
"338 602 OFFCURVE",
"383 556 OFFCURVE",
"391 510 CURVE",
"460 510 LINE",
"452 596 OFFCURVE",
"377 669 OFFCURVE",
"267 669 CURVE SMOOTH",
"195 669 OFFCURVE",
"86 641 OFFCURVE",
"86 516 CURVE SMOOTH",
"86 476 OFFCURVE",
"101 444 OFFCURVE",
"124 416 CURVE",
"75 396 OFFCURVE",
"47 358 OFFCURVE",
"47 298 CURVE SMOOTH",
"47 139 OFFCURVE",
"362 93 OFFCURVE",
"362 -33 CURVE SMOOTH",
"362 -84 OFFCURVE",
"314 -111 OFFCURVE",
"253 -111 CURVE SMOOTH",
"179 -111 OFFCURVE",
"130 -65 OFFCURVE",
"122 -19 CURVE",
"53 -19 LINE",
"61 -105 OFFCURVE",
"140 -178 OFFCURVE",
"250 -178 CURVE SMOOTH"
);
},
{
closed = 1;
nodes = (
"267 183 OFFCURVE",
"120 222 OFFCURVE",
"120 316 CURVE SMOOTH",
"120 348 OFFCURVE",
"135 369 OFFCURVE",
"161 382 CURVE",
"254 308 OFFCURVE",
"401 268 OFFCURVE",
"401 175 CURVE SMOOTH",
"401 175 LINE SMOOTH",
"401 142 OFFCURVE",
"385 121 OFFCURVE",
"360 109 CURVE"
);
}
);
width = 519;
}
);
unicode = 00A7;
},
{
glyphname = dieresis;
lastChange = "2016-08-03 12:43:26 +0000";
layers = (
{
hints = (
{
place = "{74, 89}";
},
{
place = "{231, 89}";
},
{
horizontal = 1;
place = "{579, 83}";
}
);
layerId = UUID0;
paths = (
{
closed = 1;
nodes = (
"320 579 LINE",
"320 662 LINE",
"231 662 LINE",
"231 579 LINE"
);
},
{
closed = 1;
nodes = (
"163 579 LINE",
"163 662 LINE",
"74 662 LINE",
"74 579 LINE"
);
}
);
width = 423;
}
);
unicode = 00A8;
},
{
glyphname = copyright;
lastChange = "2016-08-03 12:43:26 +0000";
layers = (
{
hints = (
{
place = "{47, 49}";
},
{
place = "{202, 68}";
},
{
place = "{683, 49}";
},
{
horizontal = 1;
place = "{-13, 49}";
},
{
horizontal = 1;
place = "{133, 64}";
},
{
horizontal = 1;
place = "{461, 63}";
},
{
horizontal = 1;
place = "{623, 49}";
}
);
layerId = UUID0;
paths = (
{
closed = 1;
nodes = (
"578 -13 OFFCURVE",
"732 140 OFFCURVE",
"732 329 CURVE SMOOTH",
"732 519 OFFCURVE",
"578 672 OFFCURVE",
"389 672 CURVE SMOOTH",
"389 672 LINE SMOOTH",
"200 672 OFFCURVE",
"47 519 OFFCURVE",
"47 329 CURVE SMOOTH",
"47 140 OFFCURVE",
"200 -13 OFFCURVE",
"389 -13 CURVE SMOOTH"
);
},
{
closed = 1;
nodes = (
"480 133 OFFCURVE",
"554 179 OFFCURVE",
"569 276 CURVE",
"502 276 LINE",
"493 227 OFFCURVE",
"452 197 OFFCURVE",
"394 197 CURVE SMOOTH",
"317 197 OFFCURVE",
"270 251 OFFCURVE",
"270 329 CURVE SMOOTH",
"270 407 OFFCURVE",
"317 461 OFFCURVE",
"394 461 CURVE SMOOTH",
"394 461 LINE SMOOTH",
"452 461 OFFCURVE",
"493 431 OFFCURVE",
"502 382 CURVE",
"569 382 LINE",
"554 478 OFFCURVE",
"480 524 OFFCURVE",
"389 524 CURVE SMOOTH",
"273 524 OFFCURVE",
"202 442 OFFCURVE",
"202 329 CURVE SMOOTH",
"202 216 OFFCURVE",
"273 133 OFFCURVE",
"389 133 CURVE SMOOTH"
);
},
{
closed = 1;
nodes = (
"227 36 OFFCURVE",
"96 168 OFFCURVE",
"96 329 CURVE SMOOTH",
"96 491 OFFCURVE",
"227 623 OFFCURVE",
"389 623 CURVE SMOOTH",
"551 623 OFFCURVE",
"683 491 OFFCURVE",
"683 329 CURVE SMOOTH",
"683 168 OFFCURVE",
"551 36 OFFCURVE",
"389 36 CURVE SMOOTH",
"389 36 LINE SMOOTH"
);
}
);
width = 779;
}
);
unicode = 00A9;
},
{
glyphname = ordfeminine;
lastChange = "2016-08-03 12:43:26 +0000";
layers = (
{
hints = (
{
place = "{37, 52}";
},
{
place = "{262, 52}";
},
{
horizontal = 1;
place = "{392, 48}";
},
{
horizontal = 1;
place = "{618, 48}";
},
{
horizontal = 1;
place = "{662, -20}";
target = down;
type = TopGhost;
}
);
layerId = UUID0;
paths = (
{
closed = 1;
nodes = (
"211 392 OFFCURVE",
"242 410 OFFCURVE",
"262 439 CURVE",
"262 396 LINE",
"314 396 LINE",
"314 662 LINE",
"262 662 LINE",
"262 619 LINE",
"242 647 OFFCURVE",
"211 666 OFFCURVE",
"167 666 CURVE SMOOTH",
"87 666 OFFCURVE",
"37 605 OFFCURVE",
"37 529 CURVE SMOOTH",
"37 453 OFFCURVE",
"87 392 OFFCURVE",
"167 392 CURVE SMOOTH"
);
},
{
closed = 1;
nodes = (
"119 440 OFFCURVE",
"89 477 OFFCURVE",
"89 529 CURVE SMOOTH",
"89 580 OFFCURVE",
"119 618 OFFCURVE",
"177 618 CURVE SMOOTH",
"230 618 OFFCURVE",
"263 580 OFFCURVE",
"263 529 CURVE SMOOTH",
"263 478 OFFCURVE",
"230 440 OFFCURVE",
"177 440 CURVE SMOOTH",
"177 440 LINE SMOOTH"
);
}
);
width = 371;
}
);
unicode = 00AA;
},
{
glyphname = logicalnot;
lastChange = "2016-08-03 12:43:26 +0000";
layers = (
{
hints = (
{
place = "{457, 72}";
},
{
horizontal = 1;
place = "{321, 68}";
}
);
layerId = UUID0;
paths = (
{
closed = 1;
nodes = (
"529 186 LINE",
"529 389 LINE",
"62 389 LINE",
"62 321 LINE",
"457 321 LINE",
"457 186 LINE"
);
}
);
width = 593;
}
);
unicode = 00AC;
},
{
glyphname = registered;
lastChange = "2016-08-03 12:43:26 +0000";
layers = (
{
hints = (
{
place = "{47, 49}";
},
{
place = "{240, 70}";
},
{
place = "{489, 69}";
},
{
place = "{683, 49}";
},
{
place = "{484, 69}";
},
{
horizontal = 1;
place = "{-13, 49}";
},
{
horizontal = 1;
place = "{278, 60}";
},
{
horizontal = 1;
place = "{461, 59}";
},
{
horizontal = 1;
place = "{623, 49}";
}
);
layerId = UUID0;
paths = (
{
closed = 1;
nodes = (
"578 -13 OFFCURVE",
"732 140 OFFCURVE",
"732 329 CURVE SMOOTH",
"732 519 OFFCURVE",
"578 672 OFFCURVE",
"389 672 CURVE SMOOTH",
"389 672 LINE SMOOTH",
"200 672 OFFCURVE",
"47 519 OFFCURVE",
"47 329 CURVE SMOOTH",
"47 140 OFFCURVE",
"200 -13 OFFCURVE",
"389 -13 CURVE SMOOTH"
);
},
{
closed = 1;
nodes = (
"227 36 OFFCURVE",
"96 168 OFFCURVE",
"96 329 CURVE SMOOTH",
"96 491 OFFCURVE",
"227 623 OFFCURVE",
"389 623 CURVE SMOOTH",
"551 623 OFFCURVE",
"683 491 OFFCURVE",
"683 329 CURVE SMOOTH",
"683 168 OFFCURVE",
"551 36 OFFCURVE",
"389 36 CURVE SMOOTH",
"389 36 LINE SMOOTH"
);
},
{
closed = 1;
nodes = (
"310 138 LINE",
"310 278 LINE",
"407 278 LINE SMOOTH",
"482 278 OFFCURVE",
"484 213 OFFCURVE",
"484 176 CURVE SMOOTH",
"484 138 LINE",
"553 138 LINE",
"553 185 LINE SMOOTH",
"553 224 OFFCURVE",
"540 293 OFFCURVE",
"483 309 CURVE",
"530 324 OFFCURVE",
"558 362 OFFCURVE",
"558 407 CURVE SMOOTH",
"558 407 LINE SMOOTH",
"558 474 OFFCURVE",
"510 520 OFFCURVE",
"402 520 CURVE SMOOTH",
"240 520 LINE",
"240 138 LINE"
);
},
{
closed = 1;
nodes = (
"310 461 LINE",
"395 461 LINE SMOOTH",
"466 461 OFFCURVE",
"489 437 OFFCURVE",
"489 400 CURVE SMOOTH",
"489 360 OFFCURVE",
"452 338 OFFCURVE",
"397 338 CURVE",
"397 338 LINE",
"310 338 LINE"
);
}
);
width = 779;
}
);
unicode = 00AE;
},
{
glyphname = degree;
lastChange = "2016-08-03 12:43:26 +0000";
layers = (
{
hints = (
{
place = "{36, 57}";
},
{
place = "{240, 57}";
},
{
horizontal = 1;
place = "{406, 57}";
},
{
horizontal = 1;
place = "{610, 57}";
}
);
layerId = UUID0;
paths = (
{
closed = 1;
nodes = (
"238 406 OFFCURVE",
"297 464 OFFCURVE",
"297 536 CURVE SMOOTH",
"297 608 OFFCURVE",
"238 667 OFFCURVE",
"166 667 CURVE SMOOTH",
"166 667 LINE SMOOTH",
"94 667 OFFCURVE",
"36 608 OFFCURVE",
"36 536 CURVE SMOOTH",
"36 464 OFFCURVE",
"94 406 OFFCURVE",
"166 406 CURVE SMOOTH"
);
},
{
closed = 1;
nodes = (
"126 463 OFFCURVE",
"93 496 OFFCURVE",
"93 536 CURVE SMOOTH",
"93 577 OFFCURVE",
"126 610 OFFCURVE",
"166 610 CURVE SMOOTH",
"207 610 OFFCURVE",
"240 577 OFFCURVE",
"240 536 CURVE SMOOTH",
"240 496 OFFCURVE",
"207 463 OFFCURVE",
"166 463 CURVE SMOOTH",
"166 463 LINE SMOOTH"
);
}
);
width = 333;
}
);
unicode = 00B0;
},
{
glyphname = plusminus;
lastChange = "2016-08-03 12:43:26 +0000";
layers = (
{
hints = (
{
place = "{242, 65}";
},
{
horizontal = 1;
place = "{276, 65}";
}
);
layerId = UUID0;
paths = (
{
closed = 1;
nodes = (
"307 122 LINE",
"307 276 LINE",
"500 276 LINE",
"500 341 LINE",
"307 341 LINE",
"307 495 LINE",
"242 495 LINE",
"242 341 LINE",
"50 341 LINE",
"50 276 LINE",
"242 276 LINE",
"242 122 LINE"
);
},
{
closed = 1;
nodes = (
"500 0 LINE",
"500 62 LINE",
"50 62 LINE",
"50 0 LINE"
);
}
);
width = 550;
}
);
unicode = 00B1;
},
{
glyphname = twosuperior;
lastChange = "2016-08-03 12:43:26 +0000";
layers = (
{
hints = (
{
place = "{52, 64}";
},
{
place = "{246, 55}";
},
{
horizontal = 1;
place = "{300, 52}";
},
{
horizontal = 1;
place = "{612, 53}";
}
);
layerId = UUID0;
paths = (
{
closed = 1;
nodes = (
"301 300 LINE",
"301 352 LINE",
"116 352 LINE",
"149 410 OFFCURVE",
"301 446 OFFCURVE",
"301 556 CURVE SMOOTH",
"301 556 LINE SMOOTH",
"301 618 OFFCURVE",
"255 665 OFFCURVE",
"175 665 CURVE SMOOTH",
"108 665 OFFCURVE",
"55 614 OFFCURVE",
"46 548 CURVE",
"102 548 LINE",
"109 584 OFFCURVE",
"138 612 OFFCURVE",
"179 612 CURVE SMOOTH",
"218 612 OFFCURVE",
"246 591 OFFCURVE",
"246 555 CURVE SMOOTH",
"246 473 OFFCURVE",
"52 435 OFFCURVE",
"52 329 CURVE SMOOTH",
"52 300 LINE"
);
}
);
width = 354;
}
);
unicode = 00B2;
},
{
glyphname = threesuperior;
lastChange = "2016-08-03 12:43:26 +0000";
layers = (
{
hints = (
{
place = "{240, 55}";
},
{
place = "{229, 55}";
},
{
horizontal = 1;
place = "{296, 51}";
},
{
horizontal = 1;
place = "{467, 47}";
},
{
horizontal = 1;
place = "{614, 52}";
}
);
layerId = UUID0;
paths = (
{
closed = 1;
nodes = (
"233 296 OFFCURVE",
"295 334 OFFCURVE",
"295 400 CURVE SMOOTH",
"295 446 OFFCURVE",
"275 474 OFFCURVE",
"233 492 CURVE",
"233 492 LINE",
"256 503 OFFCURVE",
"284 526 OFFCURVE",
"284 574 CURVE SMOOTH",
"284 633 OFFCURVE",
"233 666 OFFCURVE",
"167 666 CURVE SMOOTH",
"95 666 OFFCURVE",
"53 613 OFFCURVE",
"47 563 CURVE",
"101 563 LINE",
"106 590 OFFCURVE",
"130 614 OFFCURVE",
"168 614 CURVE SMOOTH",
"208 614 OFFCURVE",
"229 592 OFFCURVE",
"229 564 CURVE SMOOTH",
"229 535 OFFCURVE",
"201 514 OFFCURVE",
"169 514 CURVE SMOOTH",
"126 514 LINE",
"126 467 LINE",
"173 467 LINE SMOOTH",
"218 467 OFFCURVE",
"240 437 OFFCURVE",
"240 406 CURVE SMOOTH",
"240 375 OFFCURVE",
"214 347 OFFCURVE",
"170 347 CURVE SMOOTH",
"132 347 OFFCURVE",
"99 375 OFFCURVE",
"93 407 CURVE",
"38 407 LINE",
"44 344 OFFCURVE",
"101 296 OFFCURVE",
"170 296 CURVE SMOOTH"
);
}
);
width = 335;
}
);
unicode = 00B3;
},
{
glyphname = acute;
lastChange = "2016-08-03 12:43:26 +0000";
layers = (
{
hints = (
{
place = "{86, 168}";
},
{
horizontal = 1;
place = "{570, 105}";
}
);
layerId = UUID0;
paths = (
{
closed = 1;
nodes = (
"147 570 LINE",
"254 675 LINE",
"147 675 LINE",
"86 570 LINE"
);
}
);
width = 349;
}
);
unicode = 00B4;
},
{
glyphname = paragraph;
lastChange = "2016-08-03 12:43:26 +0000";
layers = (
{
hints = (
{
place = "{276, 59}";
},
{
place = "{407, 59}";
},
{
horizontal = 1;
place = "{616, 54}";
}
);
layerId = UUID0;
paths = (
{
closed = 1;
nodes = (
"335 -141 LINE",
"335 616 LINE",
"407 616 LINE",
"407 -141 LINE",
"466 -141 LINE",
"466 616 LINE",
"509 616 LINE",
"509 670 LINE",
"203 670 LINE SMOOTH",
"110 670 OFFCURVE",
"36 595 OFFCURVE",
"36 502 CURVE SMOOTH",
"36 409 OFFCURVE",
"110 335 OFFCURVE",
"203 335 CURVE SMOOTH",
"276 335 LINE",
"276 -141 LINE"
);
}
);
width = 565;
}
);
unicode = 00B6;
},
{
glyphname = periodcentered;
lastChange = "2016-08-03 12:43:26 +0000";
layers = (
{
hints = (
{
place = "{53, 97}";
},
{
horizontal = 1;
place = "{242, 102}";
}
);
layerId = UUID0;
paths = (
{
closed = 1;
nodes = (
"150 242 LINE",
"150 344 LINE",
"53 344 LINE",
"53 242 LINE"
);
}
);
width = 203;
}
);
unicode = 00B7;
},
{
glyphname = cedilla;
lastChange = "2016-08-03 12:43:26 +0000";
layers = (
{
hints = (
{
place = "{192, 73}";
},
{
horizontal = 1;
place = "{-210, 44}";
},
{
horizontal = 1;
place = "{-97, 45}";
}
);
layerId = UUID0;
paths = (
{
closed = 1;
nodes = (
"212 -210 OFFCURVE",
"265 -185 OFFCURVE",
"265 -129 CURVE SMOOTH",
"265 -81 OFFCURVE",
"223 -52 OFFCURVE",
"173 -52 CURVE SMOOTH",
"173 -52 LINE SMOOTH",
"166 -52 OFFCURVE",
"157 -53 OFFCURVE",
"151 -54 CURVE",
"195 23 LINE",
"152 23 LINE",
"83 -85 LINE",
"104 -102 LINE",
"114 -99 OFFCURVE",
"127 -97 OFFCURVE",
"139 -97 CURVE SMOOTH",
"167 -97 OFFCURVE",
"192 -110 OFFCURVE",
"192 -130 CURVE SMOOTH",
"192 -157 OFFCURVE",
"167 -166 OFFCURVE",
"137 -166 CURVE SMOOTH",
"101 -166 OFFCURVE",
"73 -151 OFFCURVE",
"52 -136 CURVE",
"33 -169 LINE",
"58 -190 OFFCURVE",
"100 -210 OFFCURVE",
"151 -210 CURVE SMOOTH"
);
}
);
width = 300;
}
);
unicode = 00B8;
},
{
glyphname = onesuperior;
lastChange = "2016-08-03 12:43:26 +0000";
layers = (
{
hints = (
{
place = "{99, 55}";
},
{
horizontal = 1;
place = "{610, 52}";
}
);
layerId = UUID0;
paths = (
{
closed = 1;
nodes = (
"154 301 LINE",
"154 662 LINE",
"26 662 LINE",
"26 610 LINE",
"99 610 LINE",
"99 301 LINE"
);
}
);
width = 212;
}
);
unicode = 00B9;
},
{
glyphname = ordmasculine;
lastChange = "2016-08-03 12:43:26 +0000";
layers = (
{
hints = (
{
place = "{37, 52}";
},
{
place = "{253, 52}";
},
{
horizontal = 1;
place = "{392, 48}";
},
{
horizontal = 1;
place = "{618, 48}";
}
);
layerId = UUID0;
paths = (
{
closed = 1;
nodes = (
"252 392 OFFCURVE",
"305 451 OFFCURVE",
"305 529 CURVE SMOOTH",
"305 607 OFFCURVE",
"252 666 OFFCURVE",
"171 666 CURVE SMOOTH",
"171 666 LINE SMOOTH",
"90 666 OFFCURVE",
"37 607 OFFCURVE",
"37 529 CURVE SMOOTH",
"37 451 OFFCURVE",
"90 392 OFFCURVE",
"171 392 CURVE SMOOTH"
);
},
{
closed = 1;
nodes = (
"117 440 OFFCURVE",
"89 481 OFFCURVE",
"89 529 CURVE SMOOTH",
"89 576 OFFCURVE",
"117 618 OFFCURVE",
"171 618 CURVE SMOOTH",
"225 618 OFFCURVE",
"253 576 OFFCURVE",
"253 529 CURVE SMOOTH",
"253 481 OFFCURVE",
"225 440 OFFCURVE",
"171 440 CURVE SMOOTH",
"171 440 LINE SMOOTH"
);
}
);
width = 342;
}
);
unicode = 00BA;
},
{
glyphname = onequarter;
lastChange = "2016-08-03 12:43:26 +0000";
layers = (
{
components = (
{
name = onesuperior;
transform = "{1, 0, 0, 1, 13, 0}";
},
{
name = fraction;
transform = "{1, 0, 0, 1, 106, 0}";
}
);
hints = (
{
place = "{569, 55}";
},
{
horizontal = 1;
place = "{88, 49}";
},
{
horizontal = 1;
place = "{301, 60}";
},
{
horizontal = 1;
place = "{0, 137}";
}
);
layerId = UUID0;
paths = (
{
closed = 1;
nodes = (
"624 0 LINE",
"624 88 LINE",
"670 88 LINE",
"670 137 LINE",
"624 137 LINE",
"624 361 LINE",
"553 361 LINE",
"404 137 LINE",
"404 88 LINE",
"569 88 LINE",
"569 0 LINE"
);
},
{
closed = 1;
nodes = (
"569 301 LINE",
"569 137 LINE",
"460 137 LINE"
);
}
);
width = 713;
}
);
unicode = 00BC;
},
{
glyphname = threequarters;
lastChange = "2016-08-03 12:43:26 +0000";
layers = (
{
components = (
{
name = fraction;
transform = "{1, 0, 0, 1, 180, 0}";
},
{
name = threesuperior;
transform = "{1, 0, 0, 1, 5, 0}";
}
);
hints = (
{
place = "{643, 55}";
},
{
horizontal = 1;
place = "{88, 49}";
},
{
horizontal = 1;
place = "{301, 60}";
},
{
horizontal = 1;
place = "{0, 137}";
}
);
layerId = UUID0;
paths = (
{
closed = 1;
nodes = (
"698 0 LINE",
"698 88 LINE",
"744 88 LINE",
"744 137 LINE",
"698 137 LINE",
"698 361 LINE",
"627 361 LINE",
"478 137 LINE",
"478 88 LINE",
"643 88 LINE",
"643 0 LINE"
);
},
{
closed = 1;
nodes = (
"643 301 LINE",
"643 137 LINE",
"534 137 LINE"
);
}
);
width = 785;
}
);
unicode = 00BE;
},
{
glyphname = Aring;
lastChange = "2016-08-03 12:43:26 +0000";
layers = (
{
hints = (
{
place = "{241, 46}";
},
{
place = "{375, 46}";
},
{
horizontal = 1;
place = "{0, 21}";
target = up;
type = BottomGhost;
},
{
horizontal = 1;
place = "{192, 69}";
},
{
horizontal = 1;
place = "{769, 45}";
}
);
layerId = UUID0;
paths = (
{
closed = 1;
nodes = (
"86 0 LINE",
"167 192 LINE",
"495 192 LINE",
"576 0 LINE",
"659 0 LINE",
"382 651 LINE",
"406 667 OFFCURVE",
"421 694 OFFCURVE",
"421 724 CURVE SMOOTH",
"421 774 OFFCURVE",
"381 814 OFFCURVE",
"330 814 CURVE SMOOTH",
"330 814 LINE SMOOTH",
"281 814 OFFCURVE",
"241 774 OFFCURVE",
"241 724 CURVE SMOOTH",
"241 694 OFFCURVE",
"256 667 OFFCURVE",
"279 651 CURVE",
"3 0 LINE"
);
},
{
closed = 1;
nodes = (
"331 584 LINE",
"466 261 LINE",
"196 261 LINE"
);
},
{
closed = 1;
nodes = (
"307 680 OFFCURVE",
"287 700 OFFCURVE",
"287 724 CURVE SMOOTH",
"287 749 OFFCURVE",
"307 769 OFFCURVE",
"330 769 CURVE SMOOTH",
"355 769 OFFCURVE",
"375 749 OFFCURVE",
"375 724 CURVE SMOOTH",
"375 700 OFFCURVE",
"355 680 OFFCURVE",
"330 680 CURVE SMOOTH",
"330 680 LINE SMOOTH"
);
}
);
width = 662;
}
);
leftKerningGroup = A;
rightKerningGroup = A;
unicode = 00C5;
},
{
glyphname = AE;
lastChange = "2016-08-03 12:43:26 +0000";
layers = (
{
hints = (
{
place = "{521, 75}";
},
{
horizontal = 1;
place = "{0, 72}";
},
{
horizontal = 1;
place = "{185, 69}";
},
{
horizontal = 1;
place = "{295, 73}";
},
{
horizontal = 1;
place = "{590, 72}";
}
);
layerId = UUID0;
paths = (
{
closed = 1;
nodes = (
"87 0 LINE",
"212 185 LINE",
"521 185 LINE",
"521 0 LINE",
"983 0 LINE",
"983 72 LINE",
"596 72 LINE",
"596 295 LINE",
"939 295 LINE",
"939 368 LINE",
"596 368 LINE",
"596 590 LINE",
"983 590 LINE",
"983 662 LINE",
"450 662 LINE",
"-3 0 LINE"
);
},
{
closed = 1;
nodes = (
"487 590 LINE",
"521 590 LINE",
"521 254 LINE",
"259 254 LINE"
);
}
);
width = 1022;
}
);
rightKerningGroup = E;
unicode = 00C6;
},
{
glyphname = Ccedilla;
lastChange = "2016-08-03 12:43:26 +0000";
layers = (
{
hints = (
{
place = "{39, 75}";
},
{
place = "{390, 73}";
},
{
horizontal = 1;
place = "{-210, 44}";
},
{
horizontal = 1;
place = "{-97, 45}";
},
{
horizontal = 1;
place = "{-7, 72}";
},
{
horizontal = 1;
place = "{597, 73}";
}
);
layerId = UUID0;
paths = (
{
closed = 1;
nodes = (
"410 -210 OFFCURVE",
"463 -185 OFFCURVE",
"463 -129 CURVE SMOOTH",
"463 -81 OFFCURVE",
"421 -52 OFFCURVE",
"371 -52 CURVE SMOOTH",
"371 -52 LINE SMOOTH",
"364 -52 OFFCURVE",
"355 -53 OFFCURVE",
"349 -54 CURVE",
"375 -8 LINE",
"517 -2 OFFCURVE",
"618 81 OFFCURVE",
"659 198 CURVE",
"580 198 LINE",
"546 117 OFFCURVE",
"474 65 OFFCURVE",
"365 65 CURVE SMOOTH",
"204 65 OFFCURVE",
"114 182 OFFCURVE",
"114 331 CURVE SMOOTH",
"114 480 OFFCURVE",
"204 597 OFFCURVE",
"365 597 CURVE SMOOTH",
"474 597 OFFCURVE",
"546 545 OFFCURVE",
"580 464 CURVE",
"659 464 LINE",
"617 585 OFFCURVE",
"509 670 OFFCURVE",
"359 670 CURVE SMOOTH",
"160 670 OFFCURVE",
"39 519 OFFCURVE",
"39 331 CURVE SMOOTH",
"39 152 OFFCURVE",
"148 6 OFFCURVE",
"331 -7 CURVE",
"281 -85 LINE",
"302 -102 LINE",
"312 -99 OFFCURVE",
"325 -97 OFFCURVE",
"337 -97 CURVE SMOOTH",
"365 -97 OFFCURVE",
"390 -110 OFFCURVE",
"390 -130 CURVE SMOOTH",
"390 -157 OFFCURVE",
"365 -166 OFFCURVE",
"335 -166 CURVE SMOOTH",
"299 -166 OFFCURVE",
"271 -151 OFFCURVE",
"250 -136 CURVE",
"231 -169 LINE",
"256 -190 OFFCURVE",
"298 -210 OFFCURVE",
"349 -210 CURVE SMOOTH"
);
}
);
width = 690;
}
);
leftKerningGroup = O;
rightKerningGroup = C;
unicode = 00C7;
},
{
glyphname = Eth;
lastChange = "2016-08-03 12:43:26 +0000";
layers = (
{
hints = (
{
place = "{89, 75}";
},
{
place = "{597, 75}";
},
{
horizontal = 1;
place = "{0, 71}";
},
{
horizontal = 1;
place = "{298, 65}";
},
{
horizontal = 1;
place = "{591, 71}";
}
);
layerId = UUID0;
paths = (
{
closed = 1;
nodes = (
"368 0 LINE SMOOTH",
"526 0 OFFCURVE",
"672 124 OFFCURVE",
"672 331 CURVE SMOOTH",
"672 538 OFFCURVE",
"526 662 OFFCURVE",
"368 662 CURVE",
"368 662 LINE",
"89 662 LINE",
"89 363 LINE",
"7 363 LINE",
"7 298 LINE",
"89 298 LINE",
"89 0 LINE"
);
},
{
closed = 1;
nodes = (
"164 298 LINE",
"355 298 LINE",
"355 363 LINE",
"164 363 LINE",
"164 591 LINE",
"365 591 LINE SMOOTH",
"506 591 OFFCURVE",
"597 473 OFFCURVE",
"597 331 CURVE SMOOTH",
"597 189 OFFCURVE",
"506 71 OFFCURVE",
"365 71 CURVE",
"365 71 LINE",
"164 71 LINE"
);
}
);
width = 712;
}
);
leftKerningGroup = I;
rightKerningGroup = O;
unicode = 00D0;
},
{
glyphname = multiply;
lastChange = "2016-08-03 12:43:26 +0000";
layers = (
{
hints = (
{
place = "{72, 406}";
},
{
horizontal = 1;
place = "{54, 406}";
}
);
layerId = UUID0;
paths = (
{
closed = 1;
nodes = (
"275 208 LINE",
"429 54 LINE",
"478 104 LINE",
"325 257 LINE",
"478 411 LINE",
"478 411 LINE",
"429 460 LINE",
"275 307 LINE",
"122 460 LINE",
"72 411 LINE",
"226 257 LINE",
"72 104 LINE",
"122 54 LINE"
);
}
);
width = 550;
}
);
unicode = 00D7;
},
{
glyphname = Oslash;
lastChange = "2016-08-03 12:43:26 +0000";
layers = (
{
hints = (
{
place = "{39, 75}";
},
{
place = "{636, 75}";
},
{
horizontal = 1;
place = "{-8, 73}";
},
{
horizontal = 1;
place = "{670, -20}";
target = down;
type = TopGhost;
},
{
horizontal = 1;
place = "{-8, 21}";
target = up;
type = BottomGhost;
},
{
horizontal = 1;
place = "{597, 73}";
}
);
layerId = UUID0;
paths = (
{
closed = 1;
nodes = (
"166 61 LINE",
"222 18 OFFCURVE",
"293 -8 OFFCURVE",
"375 -8 CURVE SMOOTH",
"576 -8 OFFCURVE",
"711 143 OFFCURVE",
"711 331 CURVE SMOOTH",
"711 427 OFFCURVE",
"677 513 OFFCURVE",
"616 574 CURVE",
"616 574 LINE",
"684 652 LINE",
"652 680 LINE",
"585 602 LINE",
"529 645 OFFCURVE",
"458 670 OFFCURVE",
"375 670 CURVE SMOOTH",
"174 670 OFFCURVE",
"39 519 OFFCURVE",
"39 331 CURVE SMOOTH",
"39 236 OFFCURVE",
"74 150 OFFCURVE",
"135 88 CURVE",
"67 11 LINE",
"98 -17 LINE"
);
},
{
closed = 1;
nodes = (
"139 191 OFFCURVE",
"114 257 OFFCURVE",
"114 331 CURVE SMOOTH",
"114 331 LINE SMOOTH",
"114 480 OFFCURVE",
"214 597 OFFCURVE",
"375 597 CURVE SMOOTH",
"440 597 OFFCURVE",
"494 579 OFFCURVE",
"536 547 CURVE",
"183 144 LINE"
);
},
{
closed = 1;
nodes = (
"311 65 OFFCURVE",
"257 84 OFFCURVE",
"214 116 CURVE",
"568 519 LINE",
"612 471 OFFCURVE",
"636 405 OFFCURVE",
"636 331 CURVE SMOOTH",
"636 182 OFFCURVE",
"536 65 OFFCURVE",
"375 65 CURVE SMOOTH",
"375 65 LINE SMOOTH"
);
}
);
width = 750;
}
);
leftKerningGroup = O;
rightKerningGroup = O;
unicode = 00D8;
},
{
glyphname = Thorn;
lastChange = "2016-08-03 12:43:26 +0000";
layers = (
{
hints = (
{
place = "{81, 75}";
},
{
place = "{532, 75}";
},
{
horizontal = 1;
place = "{0, 21}";
target = up;
type = BottomGhost;
},
{
horizontal = 1;
place = "{139, 70}";
},
{
horizontal = 1;
place = "{494, 71}";
},
{
horizontal = 1;
place = "{494, 168}";
}
);
layerId = UUID0;
paths = (
{
closed = 1;
nodes = (
"156 0 LINE",
"156 139 LINE",
"379 139 LINE SMOOTH",
"520 139 OFFCURVE",
"607 221 OFFCURVE",
"607 352 CURVE SMOOTH",
"607 482 OFFCURVE",
"520 565 OFFCURVE",
"379 565 CURVE SMOOTH",
"156 565 LINE",
"156 662 LINE",
"81 662 LINE",
"81 0 LINE"
);
},
{
closed = 1;
nodes = (
"156 494 LINE",
"374 494 LINE SMOOTH",
"478 494 OFFCURVE",
"532 440 OFFCURVE",
"532 352 CURVE SMOOTH",
"532 263 OFFCURVE",
"478 209 OFFCURVE",
"374 209 CURVE SMOOTH",
"156 209 LINE"
);
}
);
width = 627;
}
);
leftKerningGroup = I;
unicode = 00DE;
},
{
glyphname = germandbls;
lastChange = "2016-08-03 12:43:26 +0000";
layers = (
{
hints = (
{
place = "{65, 75}";
},
{
place = "{447, 76}";
},
{
place = "{414, 75}";
},
{
horizontal = 1;
place = "{0, 66}";
},
{
horizontal = 1;
place = "{304, 55}";
},
{
horizontal = 1;
place = "{603, 67}";
}
);
layerId = UUID0;
paths = (
{
closed = 1;
nodes = (
"140 0 LINE",
"140 480 LINE SMOOTH",
"140 575 OFFCURVE",
"198 603 OFFCURVE",
"278 603 CURVE SMOOTH",
"370 603 OFFCURVE",
"414 550 OFFCURVE",
"414 479 CURVE SMOOTH",
"414 403 OFFCURVE",
"343 359 OFFCURVE",
"253 359 CURVE",
"253 304 LINE",
"377 304 OFFCURVE",
"447 252 OFFCURVE",
"447 176 CURVE SMOOTH",
"447 100 OFFCURVE",
"385 66 OFFCURVE",
"294 66 CURVE SMOOTH",
"205 66 LINE",
"205 0 LINE",
"293 0 LINE SMOOTH",
"435 0 OFFCURVE",
"523 59 OFFCURVE",
"523 165 CURVE SMOOTH",
"523 277 OFFCURVE",
"439 323 OFFCURVE",
"381 337 CURVE",
"381 337 LINE",
"431 353 OFFCURVE",
"489 391 OFFCURVE",
"489 488 CURVE SMOOTH",
"489 617 OFFCURVE",
"389 670 OFFCURVE",
"279 670 CURVE SMOOTH",
"145 670 OFFCURVE",
"65 599 OFFCURVE",
"65 484 CURVE SMOOTH",
"65 0 LINE"
);
}
);
width = 557;
}
);
unicode = 00DF;
},
{
glyphname = ae;
lastChange = "2016-08-03 12:43:26 +0000";
layers = (
{
hints = (
{
place = "{34, 75}";
},
{
place = "{455, 75}";
},
{
place = "{459, 72}";
},
{
horizontal = 1;
place = "{-8, 68}";
},
{
horizontal = 1;
place = "{220, 70}";
},
{
horizontal = 1;
place = "{440, 68}";
},
{
horizontal = 1;
place = "{500, -20}";
target = down;
type = TopGhost;
},
{
horizontal = 1;
place = "{0, 21}";
target = up;
type = BottomGhost;
}
);
layerId = UUID0;
paths = (
{
closed = 1;
nodes = (
"359 -8 OFFCURVE",
"418 26 OFFCURVE",
"455 80 CURVE",
"455 0 LINE",
"530 0 LINE",
"530 71 LINE",
"566 22 OFFCURVE",
"623 -8 OFFCURVE",
"702 -8 CURVE SMOOTH",
"819 -8 OFFCURVE",
"905 60 OFFCURVE",
"937 157 CURVE",
"857 157 LINE",
"831 100 OFFCURVE",
"782 60 OFFCURVE",
"708 60 CURVE SMOOTH",
"605 60 OFFCURVE",
"542 131 OFFCURVE",
"531 220 CURVE",
"950 220 LINE",
"950 250 LINE SMOOTH",
"950 393 OFFCURVE",
"855 508 OFFCURVE",
"702 508 CURVE SMOOTH",
"702 508 LINE SMOOTH",
"623 508 OFFCURVE",
"566 477 OFFCURVE",
"530 428 CURVE",
"530 500 LINE",
"455 500 LINE",
"455 419 LINE",
"418 473 OFFCURVE",
"359 508 OFFCURVE",
"276 508 CURVE SMOOTH",
"130 508 OFFCURVE",
"34 393 OFFCURVE",
"34 250 CURVE SMOOTH",
"34 107 OFFCURVE",
"130 -8 OFFCURVE",
"276 -8 CURVE SMOOTH"
);
},
{
closed = 1;
nodes = (
"175 60 OFFCURVE",
"109 147 OFFCURVE",
"109 250 CURVE SMOOTH",
"109 353 OFFCURVE",
"175 440 OFFCURVE",
"286 440 CURVE SMOOTH",
"397 440 OFFCURVE",
"459 353 OFFCURVE",
"459 250 CURVE SMOOTH",
"459 147 OFFCURVE",
"397 60 OFFCURVE",
"286 60 CURVE SMOOTH",
"286 60 LINE SMOOTH"
);
},
{
closed = 1;
nodes = (
"546 375 OFFCURVE",
"606 440 OFFCURVE",
"702 440 CURVE SMOOTH",
"798 440 OFFCURVE",
"858 375 OFFCURVE",
"872 290 CURVE",
"532 290 LINE"
);
}
);
width = 977;
}
);
leftKerningGroup = o;
rightKerningGroup = e;
unicode = 00E6;
},
{
glyphname = ccedilla;
lastChange = "2016-08-03 12:43:26 +0000";
layers = (
{
hints = (
{
place = "{34, 75}";
},
{
place = "{314, 73}";
},
{
horizontal = 1;
place = "{-210, 44}";
},
{
horizontal = 1;
place = "{-97, 45}";
},
{
horizontal = 1;
place = "{-6, 66}";
},
{
horizontal = 1;
place = "{440, 68}";
}
);
layerId = UUID0;
paths = (
{
closed = 1;
nodes = (
"334 -210 OFFCURVE",
"387 -185 OFFCURVE",
"387 -129 CURVE SMOOTH",
"387 -81 OFFCURVE",
"345 -52 OFFCURVE",
"295 -52 CURVE SMOOTH",
"295 -52 LINE SMOOTH",
"288 -52 OFFCURVE",
"279 -53 OFFCURVE",
"273 -54 CURVE",
"299 -7 LINE",
"408 0 OFFCURVE",
"488 65 OFFCURVE",
"516 157 CURVE",
"435 157 LINE",
"412 100 OFFCURVE",
"361 60 OFFCURVE",
"290 60 CURVE SMOOTH",
"179 60 OFFCURVE",
"109 147 OFFCURVE",
"109 250 CURVE SMOOTH",
"109 353 OFFCURVE",
"179 440 OFFCURVE",
"290 440 CURVE SMOOTH",
"361 440 OFFCURVE",
"412 400 OFFCURVE",
"435 343 CURVE",
"516 343 LINE",
"487 440 OFFCURVE",
"398 508 OFFCURVE",
"280 508 CURVE SMOOTH",
"130 508 OFFCURVE",
"34 393 OFFCURVE",
"34 250 CURVE SMOOTH",
"34 115 OFFCURVE",
"119 5 OFFCURVE",
"255 -6 CURVE",
"205 -85 LINE",
"226 -102 LINE",
"236 -99 OFFCURVE",
"249 -97 OFFCURVE",
"261 -97 CURVE SMOOTH",
"289 -97 OFFCURVE",
"314 -110 OFFCURVE",
"314 -130 CURVE SMOOTH",
"314 -157 OFFCURVE",
"289 -166 OFFCURVE",
"259 -166 CURVE SMOOTH",
"223 -166 OFFCURVE",
"195 -151 OFFCURVE",
"174 -136 CURVE",
"155 -169 LINE",
"180 -190 OFFCURVE",
"222 -210 OFFCURVE",
"273 -210 CURVE SMOOTH"
);
}
);
width = 544;
}
);
leftKerningGroup = o;
rightKerningGroup = c;
unicode = 00E7;
},
{
glyphname = eth;
lastChange = "2016-08-03 12:43:26 +0000";
layers = (
{
hints = (
{
place = "{34, 75}";
},
{
place = "{455, 75}";
},
{
horizontal = 1;
place = "{-8, 67}";
},
{
horizontal = 1;
place = "{447, 67}";
},
{
horizontal = 1;
place = "{668, -20}";
target = down;
type = TopGhost;
}
);
layerId = UUID0;
paths = (
{
closed = 1;
nodes = (
"440 -8 OFFCURVE",
"530 128 OFFCURVE",
"530 269 CURVE SMOOTH",
"530 441 OFFCURVE",
"449 540 OFFCURVE",
"342 625 CURVE",
"407 668 LINE",
"375 706 LINE",
"300 656 LINE",
"267 678 OFFCURVE",
"232 698 OFFCURVE",
"196 715 CURVE",
"169 644 LINE",
"191 634 OFFCURVE",
"212 623 OFFCURVE",
"233 611 CURVE",
"190 583 LINE",
"222 545 LINE",
"278 582 LINE",
"323 551 OFFCURVE",
"378 516 OFFCURVE",
"409 455 CURVE",
"375 492 OFFCURVE",
"326 514 OFFCURVE",
"263 514 CURVE SMOOTH",
"122 514 OFFCURVE",
"34 397 OFFCURVE",
"34 253 CURVE SMOOTH",
"34 112 OFFCURVE",
"121 -8 OFFCURVE",
"286 -8 CURVE SMOOTH"
);
},
{
closed = 1;
nodes = (
"171 59 OFFCURVE",
"109 151 OFFCURVE",
"109 253 CURVE SMOOTH",
"109 358 OFFCURVE",
"167 447 OFFCURVE",
"274 447 CURVE SMOOTH",
"385 447 OFFCURVE",
"455 355 OFFCURVE",
"455 253 CURVE SMOOTH",
"455 151 OFFCURVE",
"393 59 OFFCURVE",
"282 59 CURVE",
"282 59 LINE"
);
}
);
width = 573;
}
);
leftKerningGroup = o;
unicode = 00F0;
},
{
glyphname = divide;
lastChange = "2016-08-03 12:43:26 +0000";
layers = (
{
hints = (
{
place = "{231, 88}";
},
{
horizontal = 1;
place = "{17, 93}";
},
{
horizontal = 1;
place = "{200, 69}";
},
{
horizontal = 1;
place = "{359, 93}";
}
);
layerId = UUID0;
paths = (
{
closed = 1;
nodes = (
"512 200 LINE",
"512 269 LINE",
"38 269 LINE",
"38 200 LINE"
);
},
{
closed = 1;
nodes = (
"319 17 LINE",
"319 110 LINE",
"231 110 LINE",
"231 17 LINE"
);
},
{
closed = 1;
nodes = (
"319 359 LINE",
"319 452 LINE",
"231 452 LINE",
"231 359 LINE"
);
}
);
width = 550;
}
);
unicode = 00F7;
},
{
glyphname = oslash;
lastChange = "2016-08-03 12:43:26 +0000";
layers = (
{
hints = (
{
place = "{34, 75}";
},
{
place = "{455, 75}";
},
{
horizontal = 1;
place = "{-8, 68}";
},
{
horizontal = 1;
place = "{440, 68}";
}
);
layerId = UUID0;
paths = (
{
closed = 1;
nodes = (
"126 44 LINE",
"166 11 OFFCURVE",
"220 -8 OFFCURVE",
"282 -8 CURVE SMOOTH",
"435 -8 OFFCURVE",
"530 107 OFFCURVE",
"530 250 CURVE SMOOTH",
"530 321 OFFCURVE",
"507 385 OFFCURVE",
"465 431 CURVE",
"465 431 LINE",
"519 493 LINE",
"493 516 LINE",
"439 456 LINE",
"399 488 OFFCURVE",
"345 508 OFFCURVE",
"282 508 CURVE SMOOTH",
"129 508 OFFCURVE",
"34 393 OFFCURVE",
"34 250 CURVE SMOOTH",
"34 179 OFFCURVE",
"58 115 OFFCURVE",
"100 68 CURVE",
"46 6 LINE",
"72 -17 LINE"
);
},
{
closed = 1;
nodes = (
"123 157 OFFCURVE",
"109 202 OFFCURVE",
"109 250 CURVE SMOOTH",
"109 250 LINE SMOOTH",
"109 353 OFFCURVE",
"171 440 OFFCURVE",
"282 440 CURVE SMOOTH",
"327 440 OFFCURVE",
"364 426 OFFCURVE",
"392 402 CURVE",
"149 123 LINE"
);
},
{
closed = 1;
nodes = (
"238 60 OFFCURVE",
"201 74 OFFCURVE",
"173 98 CURVE",
"416 376 LINE",
"442 342 OFFCURVE",
"455 298 OFFCURVE",
"455 250 CURVE SMOOTH",
"455 147 OFFCURVE",
"393 60 OFFCURVE",
"282 60 CURVE SMOOTH",
"282 60 LINE SMOOTH"
);
}
);
width = 564;
}
);
leftKerningGroup = o;
rightKerningGroup = o;
unicode = 00F8;
},
{
glyphname = thorn;
lastChange = "2016-08-03 12:43:26 +0000";
layers = (
{
hints = (
{
place = "{65, 75}";
},
{
place = "{486, 75}";
},
{
horizontal = 1;
place = "{-198, 21}";
target = up;
type = BottomGhost;
},
{
horizontal = 1;
place = "{-8, 68}";
},
{
horizontal = 1;
place = "{440, 68}";
}
);
layerId = UUID0;
paths = (
{
closed = 1;
nodes = (
"140 -198 LINE",
"140 80 LINE",
"177 26 OFFCURVE",
"236 -8 OFFCURVE",
"319 -8 CURVE SMOOTH",
"465 -8 OFFCURVE",
"561 107 OFFCURVE",
"561 250 CURVE SMOOTH",
"561 393 OFFCURVE",
"465 508 OFFCURVE",
"319 508 CURVE SMOOTH",
"319 508 LINE SMOOTH",
"236 508 OFFCURVE",
"177 473 OFFCURVE",
"140 419 CURVE",
"140 700 LINE",
"65 700 LINE",
"65 -198 LINE"
);
},
{
closed = 1;
nodes = (
"198 60 OFFCURVE",
"136 147 OFFCURVE",
"136 250 CURVE SMOOTH",
"136 353 OFFCURVE",
"198 440 OFFCURVE",
"309 440 CURVE SMOOTH",
"420 440 OFFCURVE",
"486 353 OFFCURVE",
"486 250 CURVE SMOOTH",
"486 147 OFFCURVE",
"420 60 OFFCURVE",
"309 60 CURVE SMOOTH",
"309 60 LINE SMOOTH"
);
}
);
width = 594;
}
);
leftKerningGroup = h;
rightKerningGroup = o;
unicode = 00FE;
},
{
glyphname = OE;
lastChange = "2016-08-03 12:43:26 +0000";
layers = (
{
hints = (
{
place = "{39, 75}";
},
{
place = "{612, 75}";
},
{
horizontal = 1;
place = "{0, 72}";
},
{
horizontal = 1;
place = "{294, 73}";
},
{
horizontal = 1;
place = "{590, 72}";
},
{
horizontal = 1;
place = "{-8, 73}";
},
{
horizontal = 1;
place = "{597, 73}";
}
);
layerId = UUID0;
paths = (
{
closed = 1;
nodes = (
"475 -8 OFFCURVE",
"558 37 OFFCURVE",
"612 108 CURVE",
"612 0 LINE",
"1104 0 LINE",
"1104 72 LINE",
"687 72 LINE",
"687 294 LINE",
"1060 294 LINE",
"1060 367 LINE",
"687 367 LINE",
"687 590 LINE",
"1104 590 LINE",
"1104 662 LINE",
"612 662 LINE",
"612 553 LINE",
"558 625 OFFCURVE",
"475 670 OFFCURVE",
"365 670 CURVE SMOOTH",
"164 670 OFFCURVE",
"39 519 OFFCURVE",
"39 331 CURVE SMOOTH",
"39 143 OFFCURVE",
"164 -8 OFFCURVE",
"365 -8 CURVE SMOOTH"
);
},
{
closed = 1;
nodes = (
"204 65 OFFCURVE",
"114 182 OFFCURVE",
"114 331 CURVE SMOOTH",
"114 480 OFFCURVE",
"204 597 OFFCURVE",
"365 597 CURVE SMOOTH",
"526 597 OFFCURVE",
"616 480 OFFCURVE",
"616 331 CURVE SMOOTH",
"616 182 OFFCURVE",
"526 65 OFFCURVE",
"365 65 CURVE SMOOTH",
"365 65 LINE SMOOTH"
);
}
);
width = 1144;
}
);
leftKerningGroup = O;
rightKerningGroup = E;
unicode = 0152;
},
{
glyphname = oe;
lastChange = "2016-08-03 12:43:26 +0000";
layers = (
{
hints = (
{
place = "{34, 75}";
},
{
place = "{455, 71}";
},
{
horizontal = 1;
place = "{-8, 68}";
},
{
horizontal = 1;
place = "{220, 70}";
},
{
horizontal = 1;
place = "{440, 68}";
}
);
layerId = UUID0;
paths = (
{
closed = 1;
nodes = (
"381 -8 OFFCURVE",
"452 40 OFFCURVE",
"489 113 CURVE",
"527 40 OFFCURVE",
"597 -8 OFFCURVE",
"697 -8 CURVE SMOOTH",
"814 -8 OFFCURVE",
"900 60 OFFCURVE",
"932 157 CURVE",
"852 157 LINE",
"826 100 OFFCURVE",
"777 60 OFFCURVE",
"703 60 CURVE SMOOTH",
"600 60 OFFCURVE",
"537 131 OFFCURVE",
"526 220 CURVE",
"945 220 LINE",
"945 250 LINE SMOOTH",
"945 393 OFFCURVE",
"850 508 OFFCURVE",
"697 508 CURVE SMOOTH",
"697 508 LINE SMOOTH",
"597 508 OFFCURVE",
"527 459 OFFCURVE",
"489 386 CURVE",
"452 459 OFFCURVE",
"381 508 OFFCURVE",
"282 508 CURVE SMOOTH",
"129 508 OFFCURVE",
"34 393 OFFCURVE",
"34 250 CURVE SMOOTH",
"34 107 OFFCURVE",
"129 -8 OFFCURVE",
"282 -8 CURVE SMOOTH"
);
},
{
closed = 1;
nodes = (
"171 60 OFFCURVE",
"109 147 OFFCURVE",
"109 250 CURVE SMOOTH",
"109 353 OFFCURVE",
"171 440 OFFCURVE",
"282 440 CURVE SMOOTH",
"393 440 OFFCURVE",
"455 353 OFFCURVE",
"455 250 CURVE SMOOTH",
"455 147 OFFCURVE",
"393 60 OFFCURVE",
"282 60 CURVE SMOOTH",
"282 60 LINE SMOOTH"
);
},
{
closed = 1;
nodes = (
"541 375 OFFCURVE",
"601 440 OFFCURVE",
"697 440 CURVE SMOOTH",
"793 440 OFFCURVE",
"853 375 OFFCURVE",
"867 290 CURVE",
"527 290 LINE"
);
}
);
width = 972;
}
);
leftKerningGroup = o;
rightKerningGroup = e;
unicode = 0153;
},
{
glyphname = florin;
lastChange = "2016-08-03 12:43:26 +0000";
layers = (
{
hints = (
{
place = "{-73, 437}";
},
{
horizontal = 1;
place = "{367, 49}";
},
{
horizontal = 1;
place = "{637, 71}";
}
);
layerId = UUID0;
paths = (
{
closed = 1;
nodes = (
"33 -144 OFFCURVE",
"105 -96 OFFCURVE",
"123 9 CURVE",
"188 367 LINE",
"313 367 LINE",
"313 416 LINE",
"197 416 LINE",
"218 538 LINE SMOOTH",
"231 613 OFFCURVE",
"273 637 OFFCURVE",
"342 637 CURVE SMOOTH",
"352 637 LINE",
"364 708 LINE",
"358 708 LINE SMOOTH",
"244 708 OFFCURVE",
"165 664 OFFCURVE",
"144 544 CURVE SMOOTH",
"122 416 LINE",
"27 416 LINE",
"27 367 LINE",
"113 367 LINE",
"47 3 LINE",
"36 -62 OFFCURVE",
"-10 -86 OFFCURVE",
"-62 -90 CURVE",
"-73 -149 LINE"
);
}
);
width = 332;
}
);
unicode = 0192;
},
{
glyphname = circumflex;
lastChange = "2016-08-03 12:43:26 +0000";
layers = (
{
hints = (
{
place = "{49, 282}";
},
{
horizontal = 1;
place = "{570, 105}";
}
);
layerId = UUID0;
paths = (
{
closed = 1;
nodes = (
"131 570 LINE",
"190 624 LINE",
"249 570 LINE",
"331 570 LINE",
"234 675 LINE",
"147 675 LINE",
"49 570 LINE"
);
}
);
width = 384;
}
);
unicode = 02C6;
},
{
glyphname = caron;
lastChange = "2016-08-03 12:43:26 +0000";
layers = (
{
hints = (
{
place = "{49, 282}";
},
{
horizontal = 1;
place = "{570, 105}";
}
);
layerId = UUID0;
paths = (
{
closed = 1;
nodes = (
"234 570 LINE",
"331 675 LINE",
"249 675 LINE",
"190 621 LINE",
"131 675 LINE",
"49 675 LINE",
"147 570 LINE"
);
}
);
width = 381;
}
);
unicode = 02C7;
},
{
glyphname = breve;
lastChange = "2016-08-03 12:43:26 +0000";
layers = (
{
hints = (
{
place = "{320, 24}";
},
{
horizontal = 1;
place = "{567, 59}";
}
);
layerId = UUID0;
paths = (
{
closed = 1;
nodes = (
"291 567 OFFCURVE",
"344 610 OFFCURVE",
"344 662 CURVE SMOOTH",
"344 673 OFFCURVE",
"342 682 OFFCURVE",
"338 691 CURVE",
"338 691 LINE",
"320 691 LINE",
"316 653 OFFCURVE",
"275 626 OFFCURVE",
"226 626 CURVE SMOOTH",
"175 626 OFFCURVE",
"135 653 OFFCURVE",
"131 691 CURVE",
"113 691 LINE",
"110 682 OFFCURVE",
"107 673 OFFCURVE",
"107 662 CURVE SMOOTH",
"107 610 OFFCURVE",
"160 567 OFFCURVE",
"226 567 CURVE SMOOTH"
);
}
);
width = 465;
}
);
unicode = 02D8;
},
{
glyphname = dotaccent;
lastChange = "2016-08-03 12:43:26 +0000";
layers = (
{
hints = (
{
place = "{74, 89}";
},
{
horizontal = 1;
place = "{579, 83}";
}
);
layerId = UUID0;
paths = (
{
closed = 1;
nodes = (
"163 579 LINE",
"163 662 LINE",
"74 662 LINE",
"74 579 LINE"
);
}
);
width = 235;
}
);
unicode = 02D9;
},
{
glyphname = ring;
lastChange = "2016-08-03 12:43:26 +0000";
layers = (
{
hints = (
{
place = "{74, 46}";
},
{
place = "{208, 46}";
},
{
horizontal = 1;
place = "{556, 45}";
},
{
horizontal = 1;
place = "{690, 45}";
}
);
layerId = UUID0;
paths = (
{
closed = 1;
nodes = (
"214 556 OFFCURVE",
"254 596 OFFCURVE",
"254 645 CURVE SMOOTH",
"254 695 OFFCURVE",
"214 735 OFFCURVE",
"163 735 CURVE SMOOTH",
"163 735 LINE SMOOTH",
"114 735 OFFCURVE",
"74 695 OFFCURVE",
"74 645 CURVE SMOOTH",
"74 596 OFFCURVE",
"114 556 OFFCURVE",
"163 556 CURVE SMOOTH"
);
},
{
closed = 1;
nodes = (
"140 601 OFFCURVE",
"120 621 OFFCURVE",
"120 645 CURVE SMOOTH",
"120 670 OFFCURVE",
"140 690 OFFCURVE",
"163 690 CURVE SMOOTH",
"188 690 OFFCURVE",
"208 670 OFFCURVE",
"208 645 CURVE SMOOTH",
"208 621 OFFCURVE",
"188 601 OFFCURVE",
"163 601 CURVE SMOOTH",
"163 601 LINE SMOOTH"
);
}
);
width = 323;
}
);
unicode = 02DA;
},
{
glyphname = ogonek;
lastChange = "2016-08-03 12:43:26 +0000";
layers = (
{
hints = (
{
place = "{57, 77}";
},
{
horizontal = 1;
place = "{-193, 54}";
}
);
layerId = UUID0;
paths = (
{
closed = 1;
nodes = (
"185 -193 OFFCURVE",
"215 -181 OFFCURVE",
"239 -168 CURVE",
"239 -129 LINE",
"229 -136 OFFCURVE",
"213 -139 OFFCURVE",
"197 -139 CURVE SMOOTH",
"162 -139 OFFCURVE",
"134 -123 OFFCURVE",
"134 -90 CURVE SMOOTH",
"134 -45 OFFCURVE",
"199 -15 OFFCURVE",
"229 2 CURVE",
"229 2 LINE",
"173 2 LINE",
"126 -20 OFFCURVE",
"57 -52 OFFCURVE",
"57 -119 CURVE SMOOTH",
"57 -170 OFFCURVE",
"102 -193 OFFCURVE",
"150 -193 CURVE SMOOTH"
);
}
);
width = 309;
}
);
unicode = 02DB;
},
{
glyphname = tilde;
lastChange = "2016-08-03 12:43:26 +0000";
layers = (
{
hints = (
{
place = "{71, 313}";
},
{
horizontal = 1;
place = "{609, 59}";
},
{
horizontal = 1;
place = "{569, 58}";
}
);
layerId = UUID0;
paths = (
{
closed = 1;
nodes = (
"352 569 OFFCURVE",
"377 618 OFFCURVE",
"384 667 CURVE",
"352 667 LINE",
"347 650 OFFCURVE",
"332 627 OFFCURVE",
"303 627 CURVE SMOOTH",
"257 627 OFFCURVE",
"232 668 OFFCURVE",
"168 668 CURVE SMOOTH",
"103 668 OFFCURVE",
"77 619 OFFCURVE",
"71 570 CURVE",
"102 570 LINE",
"108 587 OFFCURVE",
"121 609 OFFCURVE",
"152 609 CURVE SMOOTH",
"198 609 OFFCURVE",
"223 569 OFFCURVE",
"288 569 CURVE SMOOTH"
);
}
);
width = 463;
}
);
unicode = 02DC;
},
{
glyphname = macron;
lastChange = "2016-08-03 12:43:26 +0000";
layers = (
{
hints = (
{
place = "{57, 264}";
},
{
horizontal = 1;
place = "{582, 60}";
}
);
layerId = UUID0;
paths = (
{
closed = 1;
nodes = (
"321 582 LINE",
"321 642 LINE",
"57 642 LINE",
"57 582 LINE"
);
}
);
width = 382;
}
);
unicode = 00AF;
},
{
glyphname = hungarumlaut;
lastChange = "2016-08-03 12:43:26 +0000";
layers = (
{
hints = (
{
place = "{86, 324}";
},
{
horizontal = 1;
place = "{570, 105}";
}
);
layerId = UUID0;
paths = (
{
closed = 1;
nodes = (
"303 570 LINE",
"410 675 LINE",
"303 675 LINE",
"242 570 LINE"
);
},
{
closed = 1;
nodes = (
"147 570 LINE",
"254 675 LINE",
"147 675 LINE",
"86 570 LINE"
);
}
);
width = 523;
}
);
unicode = 02DD;
},
{
glyphname = endash;
lastChange = "2016-08-03 12:43:26 +0000";
layers = (
{
hints = (
{
place = "{55, 500}";
},
{
horizontal = 1;
place = "{262, 67}";
}
);
layerId = UUID0;
paths = (
{
closed = 1;
nodes = (
"555 262 LINE",
"555 329 LINE",
"55 329 LINE",
"55 262 LINE"
);
}
);
width = 610;
}
);
leftKerningGroup = hyphen;
rightKerningGroup = hyphen;
unicode = 2013;
},
{
glyphname = emdash;
lastChange = "2016-08-03 12:43:26 +0000";
layers = (
{
hints = (
{
place = "{73, 1000}";
},
{
horizontal = 1;
place = "{262, 67}";
}
);
layerId = UUID0;
paths = (
{
closed = 1;
nodes = (
"1073 262 LINE",
"1073 329 LINE",
"73 329 LINE",
"73 262 LINE"
);
}
);
width = 1146;
}
);
leftKerningGroup = hyphen;
rightKerningGroup = hyphen;
unicode = 2014;
},
{
glyphname = quoteleft;
lastChange = "2016-08-03 12:43:26 +0000";
layers = (
{
hints = (
{
place = "{36, 156}";
},
{
horizontal = 1;
place = "{475, 213}";
}
);
layerId = UUID0;
paths = (
{
closed = 1;
nodes = (
"134 475 LINE",
"192 688 LINE",
"124 688 LINE",
"36 475 LINE"
);
}
);
width = 218;
}
);
leftKerningGroup = quoteleft;
rightKerningGroup = quoteleft;
unicode = 2018;
},
{
glyphname = quoteright;
lastChange = "2016-08-03 12:43:26 +0000";
layers = (
{
hints = (
{
place = "{40, 156}";
},
{
horizontal = 1;
place = "{475, 213}";
}
);
layerId = UUID0;
paths = (
{
closed = 1;
nodes = (
"108 475 LINE",
"196 688 LINE",
"98 688 LINE",
"40 475 LINE"
);
}
);
width = 211;
}
);
leftKerningGroup = quoteright;
rightKerningGroup = quoteright;
unicode = 2019;
},
{
glyphname = quotesinglbase;
lastChange = "2016-08-03 12:43:26 +0000";
layers = (
{
hints = (
{
place = "{11, 156}";
},
{
horizontal = 1;
place = "{-133, 213}";
}
);
layerId = UUID0;
paths = (
{
closed = 1;
nodes = (
"79 -133 LINE",
"167 80 LINE",
"69 80 LINE",
"11 -133 LINE"
);
}
);
width = 220;
}
);
leftKerningGroup = quotesinglbase;
rightKerningGroup = quotesinglbase;
unicode = 201A;
},
{
glyphname = quotedblleft;
lastChange = "2016-08-03 12:43:26 +0000";
layers = (
{
hints = (
{
place = "{36, 306}";
},
{
horizontal = 1;
place = "{475, 213}";
}
);
layerId = UUID0;
paths = (
{
closed = 1;
nodes = (
"284 475 LINE",
"342 688 LINE",
"274 688 LINE",
"186 475 LINE"
);
},
{
closed = 1;
nodes = (
"134 475 LINE",
"192 688 LINE",
"124 688 LINE",
"36 475 LINE"
);
}
);
width = 368;
}
);
leftKerningGroup = quoteleft;
rightKerningGroup = quoteleft;
unicode = 201C;
},
{
glyphname = quotedblright;
lastChange = "2016-08-03 12:43:26 +0000";
layers = (
{
hints = (
{
place = "{40, 306}";
},
{
horizontal = 1;
place = "{475, 213}";
}
);
layerId = UUID0;
paths = (
{
closed = 1;
nodes = (
"258 475 LINE",
"346 688 LINE",
"248 688 LINE",
"190 475 LINE"
);
},
{
closed = 1;
nodes = (
"108 475 LINE",
"196 688 LINE",
"98 688 LINE",
"40 475 LINE"
);
}
);
width = 361;
}
);
leftKerningGroup = quoteright;
rightKerningGroup = quoteright;
unicode = 201D;
},
{
glyphname = quotedblbase;
lastChange = "2016-08-03 12:43:26 +0000";
layers = (
{
hints = (
{
place = "{11, 306}";
},
{
horizontal = 1;
place = "{-133, 213}";
}
);
layerId = UUID0;
paths = (
{
closed = 1;
nodes = (
"229 -133 LINE",
"317 80 LINE",
"219 80 LINE",
"161 -133 LINE"
);
},
{
closed = 1;
nodes = (
"79 -133 LINE",
"167 80 LINE",
"69 80 LINE",
"11 -133 LINE"
);
}
);
width = 370;
}
);
leftKerningGroup = quotesinglbase;
rightKerningGroup = quotesinglbase;
unicode = 201E;
},
{
glyphname = dagger;
lastChange = "2016-08-03 12:43:26 +0000";
layers = (
{
hints = (
{
place = "{187, 61}";
},
{
horizontal = 1;
place = "{439, 61}";
},
{
horizontal = 1;
place = "{662, -20}";
target = down;
type = TopGhost;
}
);
layerId = UUID0;
paths = (
{
closed = 1;
nodes = (
"248 -131 LINE",
"248 439 LINE",
"397 439 LINE",
"397 500 LINE",
"248 500 LINE",
"248 662 LINE",
"187 662 LINE",
"187 500 LINE",
"38 500 LINE",
"38 439 LINE",
"187 439 LINE",
"187 -131 LINE"
);
}
);
width = 435;
}
);
unicode = 2020;
},
{
glyphname = daggerdbl;
lastChange = "2016-08-03 12:43:26 +0000";
layers = (
{
hints = (
{
place = "{197, 61}";
},
{
horizontal = 1;
place = "{31, 61}";
},
{
horizontal = 1;
place = "{439, 61}";
},
{
horizontal = 1;
place = "{662, -20}";
target = down;
type = TopGhost;
}
);
layerId = UUID0;
paths = (
{
closed = 1;
nodes = (
"258 -131 LINE",
"258 31 LINE",
"407 31 LINE",
"407 92 LINE",
"258 92 LINE",
"258 439 LINE",
"407 439 LINE",
"407 500 LINE",
"258 500 LINE",
"258 662 LINE",
"197 662 LINE",
"197 500 LINE",
"48 500 LINE",
"48 439 LINE",
"197 439 LINE",
"197 92 LINE",
"48 92 LINE",
"48 31 LINE",
"197 31 LINE",
"197 -131 LINE"
);
}
);
width = 455;
}
);
unicode = 2021;
},
{
glyphname = bullet;
lastChange = "2016-08-03 12:43:26 +0000";
layers = (
{
hints = (
{
place = "{36, 268}";
},
{
horizontal = 1;
place = "{186, 268}";
}
);
layerId = UUID0;
paths = (
{
closed = 1;
nodes = (
"244 186 OFFCURVE",
"304 246 OFFCURVE",
"304 320 CURVE SMOOTH",
"304 394 OFFCURVE",
"244 454 OFFCURVE",
"170 454 CURVE SMOOTH",
"96 454 OFFCURVE",
"36 394 OFFCURVE",
"36 320 CURVE SMOOTH",
"36 320 LINE SMOOTH",
"36 246 OFFCURVE",
"96 186 OFFCURVE",
"170 186 CURVE SMOOTH"
);
}
);
width = 340;
}
);
unicode = 2022;
},
{
glyphname = ellipsis;
lastChange = "2016-08-03 12:43:26 +0000";
layers = (
{
hints = (
{
place = "{53, 97}";
},
{
place = "{345, 97}";
},
{
place = "{637, 97}";
},
{
horizontal = 1;
place = "{0, 102}";
}
);
layerId = UUID0;
paths = (
{
closed = 1;
nodes = (
"734 0 LINE",
"734 102 LINE",
"637 102 LINE",
"637 0 LINE"
);
},
{
closed = 1;
nodes = (
"150 0 LINE",
"150 102 LINE",
"53 102 LINE",
"53 0 LINE"
);
},
{
closed = 1;
nodes = (
"442 0 LINE",
"442 102 LINE",
"345 102 LINE",
"345 0 LINE"
);
}
);
width = 787;
}
);
leftKerningGroup = period;
unicode = 2026;
},
{
glyphname = perthousand;
lastChange = "2016-08-03 12:43:26 +0000";
layers = (
{
hints = (
{
place = "{43, 61}";
},
{
place = "{281, 62}";
},
{
place = "{504, 61}";
},
{
place = "{742, 62}";
},
{
place = "{852, 61}";
},
{
place = "{1090, 62}";
},
{
horizontal = 1;
place = "{-8, 57}";
},
{
horizontal = 1;
place = "{313, 58}";
},
{
horizontal = 1;
place = "{609, 58}";
},
{
horizontal = 1;
place = "{288, 57}";
},
{
horizontal = 1;
place = "{670, -20}";
target = down;
type = TopGhost;
}
);
layerId = UUID0;
paths = (
{
closed = 1;
nodes = (
"225 -12 LINE",
"684 670 LINE",
"621 670 LINE",
"162 -12 LINE"
);
},
{
closed = 1;
nodes = (
"285 288 OFFCURVE",
"343 354 OFFCURVE",
"343 477 CURVE SMOOTH",
"343 574 OFFCURVE",
"301 665 OFFCURVE",
"193 667 CURVE",
"193 667 LINE",
"100 667 OFFCURVE",
"43 601 OFFCURVE",
"43 477 CURVE SMOOTH",
"43 354 OFFCURVE",
"100 288 OFFCURVE",
"193 288 CURVE SMOOTH"
);
},
{
closed = 1;
nodes = (
"137 345 OFFCURVE",
"104 389 OFFCURVE",
"104 477 CURVE SMOOTH",
"104 565 OFFCURVE",
"137 609 OFFCURVE",
"193 609 CURVE SMOOTH",
"247 609 OFFCURVE",
"281 565 OFFCURVE",
"281 477 CURVE SMOOTH",
"281 416 OFFCURVE",
"260 347 OFFCURVE",
"193 345 CURVE",
"193 345 LINE"
);
},
{
closed = 1;
nodes = (
"746 -8 OFFCURVE",
"804 58 OFFCURVE",
"804 181 CURVE SMOOTH",
"804 278 OFFCURVE",
"762 369 OFFCURVE",
"654 371 CURVE",
"654 371 LINE",
"561 371 OFFCURVE",
"504 305 OFFCURVE",
"504 181 CURVE SMOOTH",
"504 58 OFFCURVE",
"561 -8 OFFCURVE",
"654 -8 CURVE SMOOTH"
);
},
{
closed = 1;
nodes = (
"598 49 OFFCURVE",
"565 93 OFFCURVE",
"565 181 CURVE SMOOTH",
"565 269 OFFCURVE",
"598 313 OFFCURVE",
"654 313 CURVE SMOOTH",
"708 313 OFFCURVE",
"742 269 OFFCURVE",
"742 181 CURVE SMOOTH",
"742 120 OFFCURVE",
"721 51 OFFCURVE",
"654 49 CURVE",
"654 49 LINE"
);
},
{
closed = 1;
nodes = (
"1094 -8 OFFCURVE",
"1152 58 OFFCURVE",
"1152 181 CURVE SMOOTH",
"1152 278 OFFCURVE",
"1110 369 OFFCURVE",
"1002 371 CURVE",
"1002 371 LINE",
"909 371 OFFCURVE",
"852 305 OFFCURVE",
"852 181 CURVE SMOOTH",
"852 58 OFFCURVE",
"909 -8 OFFCURVE",
"1002 -8 CURVE SMOOTH"
);
},
{
closed = 1;
nodes = (
"946 49 OFFCURVE",
"913 93 OFFCURVE",
"913 181 CURVE SMOOTH",
"913 269 OFFCURVE",
"946 313 OFFCURVE",
"1002 313 CURVE SMOOTH",
"1056 313 OFFCURVE",
"1090 269 OFFCURVE",
"1090 181 CURVE SMOOTH",
"1090 120 OFFCURVE",
"1069 51 OFFCURVE",
"1002 49 CURVE",
"1002 49 LINE"
);
}
);
width = 1193;
}
);
unicode = 2030;
},
{
glyphname = guilsinglleft;
lastChange = "2016-08-03 12:43:26 +0000";
layers = (
{
hints = (
{
place = "{39, 219}";
},
{
horizontal = 1;
place = "{57, 404}";
}
);
layerId = UUID0;
paths = (
{
closed = 1;
nodes = (
"258 57 LINE",
"121 259 LINE",
"258 461 LINE",
"258 461 LINE",
"169 461 LINE",
"39 259 LINE",
"169 57 LINE"
);
}
);
width = 303;
}
);
leftKerningGroup = guilsinglleft;
rightKerningGroup = guilsinglleft;
unicode = 2039;
},
{
glyphname = guilsinglright;
lastChange = "2016-08-03 12:43:26 +0000";
layers = (
{
hints = (
{
place = "{45, 219}";
},
{
horizontal = 1;
place = "{57, 404}";
}
);
layerId = UUID0;
paths = (
{
closed = 1;
nodes = (
"134 57 LINE",
"264 259 LINE",
"134 461 LINE",
"45 461 LINE",
"182 259 LINE",
"45 57 LINE"
);
}
);
width = 303;
}
);
leftKerningGroup = guilsinglright;
rightKerningGroup = guilsinglright;
unicode = 203A;
},
{
glyphname = fraction;
lastChange = "2016-08-03 12:24:03 +0000";
layers = (
{
hints = (
{
place = "{-8, 484}";
},
{
horizontal = 1;
place = "{-14, 688}";
}
);
layerId = UUID0;
paths = (
{
closed = 1;
nodes = (
"56 -14 LINE",
"476 674 LINE",
"412 674 LINE",
"-8 -14 LINE"
);
}
);
width = 468;
}
);
unicode = 2044;
},
{
glyphname = trademark;
lastChange = "2016-08-03 12:43:26 +0000";
layers = (
{
hints = (
{
place = "{180, 49}";
},
{
place = "{408, 49}";
},
{
place = "{691, 49}";
},
{
horizontal = 1;
place = "{509, -20}";
target = down;
type = TopGhost;
},
{
horizontal = 1;
place = "{615, 47}";
}
);
layerId = UUID0;
paths = (
{
closed = 1;
nodes = (
"457 313 LINE",
"457 582 LINE",
"575 433 LINE",
"691 582 LINE",
"691 313 LINE",
"740 313 LINE",
"740 662 LINE",
"689 662 LINE",
"689 662 LINE",
"575 509 LINE",
"460 662 LINE",
"408 662 LINE",
"408 313 LINE"
);
},
{
closed = 1;
nodes = (
"229 313 LINE",
"229 615 LINE",
"348 615 LINE",
"348 662 LINE",
"62 662 LINE",
"62 615 LINE",
"62 615 LINE",
"180 615 LINE",
"180 313 LINE"
);
}
);
width = 815;
}
);
unicode = 2122;
},
{
glyphname = Omega;
lastChange = "2016-08-03 12:43:26 +0000";
layers = (
{
hints = (
{
place = "{45, 70}";
},
{
place = "{563, 70}";
},
{
horizontal = 1;
place = "{0, 59}";
},
{
horizontal = 1;
place = "{599, 71}";
}
);
layerId = UUID0;
paths = (
{
closed = 1;
nodes = (
"280 0 LINE",
"280 59 LINE",
"185 116 OFFCURVE",
"115 199 OFFCURVE",
"115 343 CURVE SMOOTH",
"115 471 OFFCURVE",
"195 599 OFFCURVE",
"339 599 CURVE SMOOTH",
"483 599 OFFCURVE",
"563 471 OFFCURVE",
"563 343 CURVE SMOOTH",
"563 199 OFFCURVE",
"493 116 OFFCURVE",
"398 59 CURVE",
"398 0 LINE",
"624 0 LINE",
"624 59 LINE",
"480 59 LINE",
"559 116 OFFCURVE",
"633 217 OFFCURVE",
"633 353 CURVE SMOOTH",
"633 353 LINE",
"633 524 OFFCURVE",
"515 670 OFFCURVE",
"339 670 CURVE SMOOTH",
"163 670 OFFCURVE",
"45 524 OFFCURVE",
"45 353 CURVE SMOOTH",
"45 217 OFFCURVE",
"119 116 OFFCURVE",
"197 59 CURVE",
"54 59 LINE",
"54 0 LINE"
);
}
);
width = 678;
}
);
unicode = 03A9;
},
{
glyphname = partialdiff;
lastChange = "2016-08-03 12:43:26 +0000";
layers = (
{
hints = (
{
place = "{41, 77}";
},
{
place = "{478, 72}";
},
{
horizontal = 1;
place = "{-8, 73}";
},
{
horizontal = 1;
place = "{351, 71}";
},
{
horizontal = 1;
place = "{658, 64}";
}
);
layerId = UUID0;
paths = (
{
closed = 1;
nodes = (
"465 -8 OFFCURVE",
"550 260 OFFCURVE",
"550 440 CURVE SMOOTH",
"550 440 LINE",
"550 598 OFFCURVE",
"484 724 OFFCURVE",
"327 722 CURVE SMOOTH",
"245 721 OFFCURVE",
"186 685 OFFCURVE",
"143 638 CURVE",
"184 604 LINE",
"216 636 OFFCURVE",
"257 658 OFFCURVE",
"308 658 CURVE SMOOTH",
"439 658 OFFCURVE",
"478 571 OFFCURVE",
"478 432 CURVE SMOOTH",
"478 416 OFFCURVE",
"475 373 OFFCURVE",
"472 360 CURVE",
"433 395 OFFCURVE",
"390 422 OFFCURVE",
"308 422 CURVE SMOOTH",
"173 422 OFFCURVE",
"41 315 OFFCURVE",
"41 169 CURVE SMOOTH",
"41 65 OFFCURVE",
"123 -8 OFFCURVE",
"235 -8 CURVE SMOOTH"
);
},
{
closed = 1;
nodes = (
"173 65 OFFCURVE",
"118 112 OFFCURVE",
"118 182 CURVE SMOOTH",
"118 182 LINE",
"118 280 OFFCURVE",
"212 351 OFFCURVE",
"298 351 CURVE SMOOTH",
"380 351 OFFCURVE",
"423 328 OFFCURVE",
"459 297 CURVE",
"434 172 OFFCURVE",
"360 65 OFFCURVE",
"248 65 CURVE SMOOTH"
);
}
);
width = 603;
}
);
unicode = 2202;
},
{
glyphname = product;
lastChange = "2016-08-03 12:24:03 +0000";
layers = (
{
hints = (
{
place = "{77, 74}";
},
{
place = "{521, 73}";
},
{
horizontal = 1;
place = "{682, 66}";
}
);
layerId = UUID0;
paths = (
{
closed = 1;
nodes = (
"151 -180 LINE",
"151 682 LINE",
"521 682 LINE",
"521 -180 LINE",
"594 -180 LINE",
"594 748 LINE",
"77 748 LINE",
"77 -180 LINE"
);
}
);
width = 671;
}
);
unicode = 220F;
},
{
glyphname = summation;
lastChange = "2016-08-03 12:43:26 +0000";
layers = (
{
hints = (
{
place = "{42, 564}";
},
{
horizontal = 1;
place = "{-180, 73}";
},
{
horizontal = 1;
place = "{675, 73}";
}
);
layerId = UUID0;
paths = (
{
closed = 1;
nodes = (
"606 -180 LINE",
"606 -107 LINE",
"143 -107 LINE",
"478 284 LINE",
"143 675 LINE",
"606 675 LINE",
"606 748 LINE",
"42 748 LINE",
"42 682 LINE",
"375 284 LINE",
"42 -113 LINE",
"42 -180 LINE"
);
}
);
width = 653;
}
);
unicode = 2211;
},
{
glyphname = pi;
lastChange = "2016-08-03 12:43:26 +0000";
layers = (
{
hints = (
{
place = "{116, 74}";
},
{
place = "{387, 73}";
},
{
horizontal = 1;
place = "{-7, 54}";
},
{
horizontal = 1;
place = "{424, 66}";
},
{
horizontal = 1;
place = "{0, 21}";
target = up;
type = BottomGhost;
}
);
layerId = UUID0;
paths = (
{
closed = 1;
nodes = (
"535 47 LINE",
"490 47 OFFCURVE",
"460 68 OFFCURVE",
"460 119 CURVE SMOOTH",
"460 424 LINE",
"557 424 LINE",
"557 490 LINE",
"19 490 LINE",
"19 424 LINE",
"116 424 LINE",
"116 0 LINE",
"190 0 LINE",
"190 424 LINE",
"387 424 LINE",
"387 129 LINE SMOOTH",
"387 16 OFFCURVE",
"453 -7 OFFCURVE",
"535 -7 CURVE"
);
}
);
width = 578;
}
);
unicode = 03C0;
},
{
glyphname = minus;
lastChange = "2016-08-03 12:43:26 +0000";
layers = (
{
hints = (
{
place = "{50, 450}";
},
{
horizontal = 1;
place = "{203, 65}";
}
);
layerId = UUID0;
paths = (
{
closed = 1;
nodes = (
"500 203 LINE",
"500 268 LINE",
"50 268 LINE",
"50 203 LINE"
);
}
);
width = 550;
}
);
unicode = 2212;
},
{
glyphname = radical;
lastChange = "2016-08-03 12:43:26 +0000";
layers = (
{
hints = (
{
place = "{3, 666}";
},
{
horizontal = 1;
place = "{-163, 903}";
}
);
layerId = UUID0;
paths = (
{
closed = 1;
nodes = (
"397 -163 LINE",
"669 723 LINE",
"613 740 LINE",
"358 -82 LINE",
"191 294 LINE",
"3 220 LINE",
"25 164 LINE",
"142 209 LINE",
"310 -163 LINE"
);
}
);
width = 672;
}
);
unicode = 221A;
},
{
glyphname = infinity;
lastChange = "2016-08-03 12:43:26 +0000";
layers = (
{
hints = (
{
place = "{46, 62}";
},
{
place = "{643, 62}";
},
{
horizontal = 1;
place = "{96, 58}";
},
{
horizontal = 1;
place = "{356, 58}";
}
);
layerId = UUID0;
paths = (
{
closed = 1;
nodes = (
"268 96 OFFCURVE",
"332 150 OFFCURVE",
"376 212 CURVE",
"419 150 OFFCURVE",
"483 96 OFFCURVE",
"553 96 CURVE SMOOTH",
"660 96 OFFCURVE",
"705 185 OFFCURVE",
"705 255 CURVE SMOOTH",
"705 325 OFFCURVE",
"660 414 OFFCURVE",
"553 414 CURVE SMOOTH",
"553 414 LINE SMOOTH",
"483 414 OFFCURVE",
"419 359 OFFCURVE",
"376 298 CURVE",
"332 359 OFFCURVE",
"268 414 OFFCURVE",
"198 414 CURVE SMOOTH",
"91 414 OFFCURVE",
"46 325 OFFCURVE",
"46 255 CURVE SMOOTH",
"46 185 OFFCURVE",
"91 96 OFFCURVE",
"198 96 CURVE SMOOTH"
);
},
{
closed = 1;
nodes = (
"137 154 OFFCURVE",
"108 209 OFFCURVE",
"108 255 CURVE SMOOTH",
"108 301 OFFCURVE",
"137 356 OFFCURVE",
"204 356 CURVE SMOOTH",
"253 356 OFFCURVE",
"310 308 OFFCURVE",
"347 255 CURVE",
"310 202 OFFCURVE",
"253 154 OFFCURVE",
"204 154 CURVE SMOOTH",
"204 154 LINE SMOOTH"
);
},
{
closed = 1;
nodes = (
"498 154 OFFCURVE",
"440 202 OFFCURVE",
"404 255 CURVE",
"440 308 OFFCURVE",
"498 356 OFFCURVE",
"547 356 CURVE SMOOTH",
"614 356 OFFCURVE",
"643 301 OFFCURVE",
"643 255 CURVE SMOOTH",
"643 209 OFFCURVE",
"614 154 OFFCURVE",
"547 154 CURVE SMOOTH",
"547 154 LINE SMOOTH"
);
}
);
width = 751;
}
);
unicode = 221E;
},
{
glyphname = integral;
lastChange = "2016-08-03 12:43:26 +0000";
layers = (
{
hints = (
{
place = "{121, 66}";
},
{
horizontal = 1;
place = "{-178, 54}";
},
{
horizontal = 1;
place = "{727, 54}";
}
);
layerId = UUID0;
paths = (
{
closed = 1;
nodes = (
"113 -178 OFFCURVE",
"187 -169 OFFCURVE",
"187 -34 CURVE",
"187 636 LINE",
"187 706 OFFCURVE",
"210 726 OFFCURVE",
"290 727 CURVE",
"290 781 LINE",
"195 781 OFFCURVE",
"121 772 OFFCURVE",
"121 637 CURVE",
"121 637 LINE",
"121 -33 LINE",
"121 -103 OFFCURVE",
"98 -123 OFFCURVE",
"18 -124 CURVE",
"18 -178 LINE"
);
}
);
width = 308;
}
);
unicode = 222B;
},
{
glyphname = notequal;
lastChange = "2016-08-03 12:43:26 +0000";
layers = (
{
hints = (
{
place = "{7, 536}";
},
{
horizontal = 1;
place = "{-1, 21}";
target = up;
type = BottomGhost;
},
{
horizontal = 1;
place = "{103, 67}";
},
{
horizontal = 1;
place = "{301, 67}";
},
{
horizontal = 1;
place = "{499, -20}";
target = down;
type = TopGhost;
}
);
layerId = UUID0;
paths = (
{
closed = 1;
nodes = (
"238 103 LINE",
"493 103 LINE",
"493 170 LINE",
"274 170 LINE",
"343 301 LINE",
"493 301 LINE",
"493 368 LINE",
"379 368 LINE",
"434 471 LINE",
"381 499 LINE",
"311 368 LINE",
"57 368 LINE",
"57 301 LINE",
"275 301 LINE",
"206 170 LINE",
"57 170 LINE",
"57 103 LINE",
"170 103 LINE",
"115 -1 LINE",
"168 -29 LINE"
);
}
);
width = 550;
}
);
unicode = 2260;
},
{
glyphname = lessequal;
lastChange = "2016-08-03 12:43:26 +0000";
layers = (
{
hints = (
{
place = "{31, 481}";
},
{
horizontal = 1;
place = "{-34, 66}";
}
);
layerId = UUID0;
paths = (
{
closed = 1;
nodes = (
"512 158 LINE",
"117 296 LINE",
"512 434 LINE",
"512 512 LINE",
"31 327 LINE",
"31 264 LINE",
"512 80 LINE"
);
},
{
closed = 1;
nodes = (
"512 -34 LINE",
"512 32 LINE",
"31 32 LINE",
"31 -34 LINE"
);
}
);
width = 550;
}
);
unicode = 2264;
},
{
glyphname = greaterequal;
lastChange = "2016-08-03 12:43:26 +0000";
layers = (
{
hints = (
{
place = "{37, 481}";
},
{
horizontal = 1;
place = "{-34, 66}";
}
);
layerId = UUID0;
paths = (
{
closed = 1;
nodes = (
"518 264 LINE",
"518 327 LINE",
"37 512 LINE",
"37 434 LINE",
"432 296 LINE",
"37 158 LINE",
"37 80 LINE"
);
},
{
closed = 1;
nodes = (
"518 -34 LINE",
"518 32 LINE",
"37 32 LINE",
"37 -34 LINE"
);
}
);
width = 550;
}
);
unicode = 2265;
},
{
glyphname = lozenge;
lastChange = "2016-08-03 12:43:26 +0000";
layers = (
{
hints = (
{
place = "{36, 546}";
},
{
horizontal = 1;
place = "{-58, 778}";
}
);
layerId = UUID0;
paths = (
{
closed = 1;
nodes = (
"348 -58 LINE",
"582 331 LINE",
"348 720 LINE",
"270 720 LINE",
"36 331 LINE",
"270 -58 LINE"
);
},
{
closed = 1;
nodes = (
"118 331 LINE",
"309 648 LINE",
"500 331 LINE",
"309 14 LINE"
);
}
);
width = 618;
}
);
unicode = 25CA;
},
{
glyphname = longs;
lastChange = "2016-08-03 12:43:26 +0000";
layers = (
{
hints = (
{
place = "{99, 75}";
},
{
horizontal = 1;
place = "{0, 21}";
target = up;
type = BottomGhost;
},
{
horizontal = 1;
place = "{434, 66}";
},
{
horizontal = 1;
place = "{637, 71}";
}
);
layerId = UUID0;
paths = (
{
closed = 1;
nodes = (
"174 0 LINE",
"174 538 LINE SMOOTH",
"174 607 OFFCURVE",
"210 637 OFFCURVE",
"280 637 CURVE",
"290 637 LINE",
"290 708 LINE",
"284 708 LINE SMOOTH",
"169 708 OFFCURVE",
"99 653 OFFCURVE",
"99 544 CURVE SMOOTH",
"99 500 LINE",
"13 500 LINE",
"13 434 LINE",
"99 434 LINE",
"99 0 LINE"
);
}
);
width = 239;
}
);
unicode = 017F;
},
{
glyphname = fi;
lastChange = "2016-08-03 12:43:26 +0000";
layers = (
{
hints = (
{
place = "{99, 75}";
},
{
place = "{356, 75}";
},
{
place = "{353, 81}";
},
{
horizontal = 1;
place = "{0, 21}";
target = up;
type = BottomGhost;
},
{
horizontal = 1;
place = "{434, 66}";
},
{
horizontal = 1;
place = "{584, 98}";
},
{
horizontal = 1;
place = "{637, 71}";
}
);
layerId = UUID0;
paths = (
{
closed = 1;
nodes = (
"174 0 LINE",
"174 434 LINE",
"356 434 LINE",
"356 0 LINE",
"431 0 LINE",
"431 500 LINE",
"174 500 LINE",
"174 538 LINE SMOOTH",
"174 607 OFFCURVE",
"210 637 OFFCURVE",
"280 637 CURVE SMOOTH",
"290 637 LINE",
"290 708 LINE",
"284 708 LINE SMOOTH",
"169 708 OFFCURVE",
"99 653 OFFCURVE",
"99 544 CURVE SMOOTH",
"99 500 LINE",
"13 500 LINE",
"13 434 LINE",
"99 434 LINE",
"99 0 LINE"
);
},
{
closed = 1;
nodes = (
"434 584 LINE",
"434 682 LINE",
"353 682 LINE",
"353 584 LINE"
);
}
);
width = 496;
}
);
leftKerningGroup = f;
rightKerningGroup = i;
unicode = FB01;
},
{
glyphname = f_j;
lastChange = "2016-08-03 12:43:26 +0000";
layers = (
{
hints = (
{
place = "{99, 75}";
},
{
place = "{357, 75}";
},
{
place = "{354, 81}";
},
{
horizontal = 1;
place = "{-198, 21}";
target = up;
type = BottomGhost;
},
{
horizontal = 1;
place = "{0, 21}";
target = up;
type = BottomGhost;
},
{
horizontal = 1;
place = "{434, 66}";
},
{
horizontal = 1;
place = "{584, 98}";
},
{
horizontal = 1;
place = "{637, 71}";
}
);
layerId = UUID0;
paths = (
{
closed = 1;
nodes = (
"432 -198 LINE",
"432 500 LINE",
"174 500 LINE",
"174 538 LINE SMOOTH",
"174 607 OFFCURVE",
"210 637 OFFCURVE",
"280 637 CURVE SMOOTH",
"290 637 LINE",
"290 708 LINE",
"284 708 LINE SMOOTH",
"169 708 OFFCURVE",
"99 653 OFFCURVE",
"99 544 CURVE SMOOTH",
"99 500 LINE",
"13 500 LINE",
"13 434 LINE",
"99 434 LINE",
"99 0 LINE",
"174 0 LINE",
"174 434 LINE",
"357 434 LINE",
"357 -198 LINE"
);
},
{
closed = 1;
nodes = (
"435 584 LINE",
"435 682 LINE",
"354 682 LINE",
"354 584 LINE"
);
}
);
width = 497;
}
);
leftKerningGroup = f;
rightKerningGroup = i;
},
{
glyphname = f_f;
lastChange = "2016-08-03 12:43:26 +0000";
layers = (
{
hints = (
{
place = "{99, 75}";
},
{
place = "{396, 75}";
},
{
horizontal = 1;
place = "{0, 21}";
target = up;
type = BottomGhost;
},
{
horizontal = 1;
place = "{434, 66}";
},
{
horizontal = 1;
place = "{637, 71}";
}
);
layerId = UUID0;
paths = (
{
closed = 1;
nodes = (
"174 0 LINE",
"174 434 LINE",
"396 434 LINE",
"396 0 LINE",
"471 0 LINE",
"471 434 LINE",
"587 434 LINE",
"587 500 LINE",
"471 500 LINE",
"471 538 LINE SMOOTH",
"471 607 OFFCURVE",
"507 637 OFFCURVE",
"577 637 CURVE SMOOTH",
"587 637 LINE",
"587 708 LINE",
"581 708 LINE SMOOTH",
"466 708 OFFCURVE",
"396 653 OFFCURVE",
"396 544 CURVE SMOOTH",
"396 500 LINE",
"174 500 LINE",
"174 538 LINE SMOOTH",
"174 607 OFFCURVE",
"210 637 OFFCURVE",
"280 637 CURVE SMOOTH",
"290 637 LINE",
"290 708 LINE",
"284 708 LINE SMOOTH",
"169 708 OFFCURVE",
"99 653 OFFCURVE",
"99 544 CURVE SMOOTH",
"99 500 LINE",
"13 500 LINE",
"13 434 LINE",
"99 434 LINE",
"99 0 LINE"
);
}
);
width = 604;
}
);
leftKerningGroup = f;
rightKerningGroup = f;
},
{
glyphname = f_f_i;
lastChange = "2016-08-03 12:43:26 +0000";
layers = (
{
hints = (
{
place = "{99, 75}";
},
{
place = "{396, 75}";
},
{
place = "{653, 75}";
},
{
place = "{650, 81}";
},
{
horizontal = 1;
place = "{0, 21}";
target = up;
type = BottomGhost;
},
{
horizontal = 1;
place = "{434, 66}";
},
{
horizontal = 1;
place = "{637, 71}";
},
{
horizontal = 1;
place = "{584, 98}";
}
);
layerId = UUID0;
paths = (
{
closed = 1;
nodes = (
"174 0 LINE",
"174 434 LINE",
"396 434 LINE",
"396 0 LINE",
"471 0 LINE",
"471 434 LINE",
"653 434 LINE",
"653 0 LINE",
"728 0 LINE",
"728 500 LINE",
"471 500 LINE",
"471 538 LINE SMOOTH",
"471 607 OFFCURVE",
"507 637 OFFCURVE",
"577 637 CURVE SMOOTH",
"587 637 LINE",
"587 708 LINE",
"581 708 LINE SMOOTH",
"466 708 OFFCURVE",
"396 653 OFFCURVE",
"396 544 CURVE SMOOTH",
"396 500 LINE",
"174 500 LINE",
"174 538 LINE SMOOTH",
"174 607 OFFCURVE",
"210 637 OFFCURVE",
"280 637 CURVE SMOOTH",
"290 637 LINE",
"290 708 LINE",
"284 708 LINE SMOOTH",
"169 708 OFFCURVE",
"99 653 OFFCURVE",
"99 544 CURVE SMOOTH",
"99 500 LINE",
"13 500 LINE",
"13 434 LINE",
"99 434 LINE",
"99 0 LINE"
);
},
{
closed = 1;
nodes = (
"731 584 LINE",
"731 682 LINE",
"650 682 LINE",
"650 584 LINE"
);
}
);
width = 793;
}
);
leftKerningGroup = f;
rightKerningGroup = i;
},
{
glyphname = f_f_l;
lastChange = "2016-08-03 12:43:26 +0000";
layers = (
{
hints = (
{
place = "{99, 75}";
},
{
place = "{396, 75}";
},
{
place = "{653, 75}";
},
{
horizontal = 1;
place = "{0, 21}";
target = up;
type = BottomGhost;
},
{
horizontal = 1;
place = "{434, 66}";
},
{
horizontal = 1;
place = "{637, 71}";
}
);
layerId = UUID0;
paths = (
{
closed = 1;
nodes = (
"174 0 LINE",
"174 434 LINE",
"396 434 LINE",
"396 0 LINE",
"471 0 LINE",
"471 434 LINE",
"587 434 LINE",
"587 500 LINE",
"471 500 LINE",
"471 538 LINE SMOOTH",
"471 607 OFFCURVE",
"507 637 OFFCURVE",
"577 637 CURVE SMOOTH",
"587 637 LINE",
"587 708 LINE",
"581 708 LINE SMOOTH",
"466 708 OFFCURVE",
"396 653 OFFCURVE",
"396 544 CURVE SMOOTH",
"396 500 LINE",
"174 500 LINE",
"174 538 LINE SMOOTH",
"174 607 OFFCURVE",
"210 637 OFFCURVE",
"280 637 CURVE SMOOTH",
"290 637 LINE",
"290 708 LINE",
"284 708 LINE SMOOTH",
"169 708 OFFCURVE",
"99 653 OFFCURVE",
"99 544 CURVE SMOOTH",
"99 500 LINE",
"13 500 LINE",
"13 434 LINE",
"99 434 LINE",
"99 0 LINE"
);
},
{
closed = 1;
nodes = (
"728 0 LINE",
"728 700 LINE",
"653 700 LINE",
"653 0 LINE"
);
}
);
width = 793;
}
);
leftKerningGroup = f;
rightKerningGroup = l;
},
{
glyphname = exclam;
lastChange = "2016-08-03 12:43:26 +0000";
layers = (
{
hints = (
{
place = "{62, 97}";
},
{
place = "{73, 74}";
},
{
horizontal = 1;
place = "{0, 102}";
},
{
horizontal = 1;
place = "{662, -20}";
target = down;
type = TopGhost;
}
);
layerId = UUID0;
paths = (
{
closed = 1;
nodes = (
"138 183 LINE",
"157 662 LINE",
"64 662 LINE",
"83 183 LINE"
);
},
{
closed = 1;
nodes = (
"159 0 LINE",
"159 102 LINE",
"62 102 LINE",
"62 0 LINE"
);
}
);
width = 221;
}
);
unicode = 0021;
},
{
glyphname = idotless;
lastChange = "2016-08-03 12:43:26 +0000";
layers = (
{
hints = (
{
place = "{65, 75}";
},
{
horizontal = 1;
place = "{0, 21}";
target = up;
type = BottomGhost;
},
{
horizontal = 1;
place = "{500, -20}";
target = down;
type = TopGhost;
}
);
layerId = UUID0;
paths = (
{
closed = 1;
nodes = (
"140 0 LINE",
"140 500 LINE",
"65 500 LINE",
"65 0 LINE"
);
}
);
width = 205;
}
);
leftKerningGroup = i;
rightKerningGroup = i;
unicode = 0131;
},
{
glyphname = guillemetleft;
lastChange = "2016-08-03 12:43:26 +0000";
layers = (
{
hints = (
{
place = "{39, 403}";
},
{
horizontal = 1;
place = "{57, 404}";
}
);
layerId = UUID0;
paths = (
{
closed = 1;
nodes = (
"442 57 LINE",
"305 259 LINE",
"442 461 LINE",
"353 461 LINE",
"223 259 LINE",
"353 57 LINE"
);
},
{
closed = 1;
nodes = (
"258 57 LINE",
"121 259 LINE",
"258 461 LINE",
"169 461 LINE",
"39 259 LINE",
"169 57 LINE"
);
}
);
width = 487;
}
);
leftKerningGroup = guilsinglleft;
rightKerningGroup = guilsinglleft;
unicode = 00AB;
},
{
glyphname = guillemetright;
lastChange = "2016-08-03 12:43:26 +0000";
layers = (
{
hints = (
{
place = "{45, 403}";
},
{
horizontal = 1;
place = "{57, 404}";
}
);
layerId = UUID0;
paths = (
{
closed = 1;
nodes = (
"318 57 LINE",
"448 259 LINE",
"318 461 LINE",
"229 461 LINE",
"366 259 LINE",
"229 57 LINE"
);
},
{
closed = 1;
nodes = (
"134 57 LINE",
"264 259 LINE",
"134 461 LINE",
"45 461 LINE",
"182 259 LINE",
"45 57 LINE"
);
}
);
width = 487;
}
);
leftKerningGroup = guilsinglright;
rightKerningGroup = guilsinglright;
unicode = 00BB;
},
{
glyphname = .notdef;
lastChange = "2016-08-03 12:43:26 +0000";
layers = (
{
hints = (
{
place = "{33, 45}";
},
{
place = "{448, 45}";
},
{
horizontal = 1;
place = "{0, 45}";
},
{
horizontal = 1;
place = "{617, 45}";
}
);
layerId = UUID0;
paths = (
{
closed = 1;
nodes = (
"493 0 LINE",
"493 662 LINE",
"33 662 LINE",
"33 662 LINE",
"33 0 LINE"
);
},
{
closed = 1;
nodes = (
"263 292 LINE",
"263 292 LINE",
"434 45 LINE",
"91 45 LINE"
);
},
{
closed = 1;
nodes = (
"78 558 LINE",
"235 331 LINE",
"235 331 LINE",
"78 104 LINE"
);
},
{
closed = 1;
nodes = (
"290 331 LINE",
"290 331 LINE",
"448 558 LINE",
"448 104 LINE"
);
},
{
closed = 1;
nodes = (
"91 617 LINE",
"91 617 LINE",
"434 617 LINE",
"263 370 LINE"
);
}
);
width = 524;
}
);
},
{
glyphname = euro;
lastChange = "2016-08-03 12:43:26 +0000";
layers = (
{
hints = (
{
place = "{125, 75}";
},
{
horizontal = 1;
place = "{-8, 73}";
},
{
horizontal = 1;
place = "{252, 54}";
},
{
horizontal = 1;
place = "{375, 54}";
},
{
horizontal = 1;
place = "{597, 73}";
}
);
layerId = UUID0;
paths = (
{
closed = 1;
nodes = (
"471 -8 OFFCURVE",
"524 8 OFFCURVE",
"566 36 CURVE",
"552 108 LINE",
"523 87 OFFCURVE",
"483 65 OFFCURVE",
"415 65 CURVE SMOOTH",
"281 65 OFFCURVE",
"224 149 OFFCURVE",
"206 252 CURVE",
"405 252 LINE",
"426 306 LINE",
"201 306 LINE",
"200 315 OFFCURVE",
"200 323 OFFCURVE",
"200 331 CURVE SMOOTH",
"200 346 OFFCURVE",
"201 361 OFFCURVE",
"202 375 CURVE",
"453 375 LINE",
"474 429 LINE",
"210 429 LINE",
"230 523 OFFCURVE",
"287 597 OFFCURVE",
"408 597 CURVE SMOOTH",
"462 597 OFFCURVE",
"500 586 OFFCURVE",
"528 565 CURVE",
"555 633 LINE",
"515 656 OFFCURVE",
"466 670 OFFCURVE",
"404 670 CURVE SMOOTH",
"243 670 OFFCURVE",
"160 563 OFFCURVE",
"134 429 CURVE",
"64 429 LINE",
"42 375 LINE",
"127 375 LINE",
"126 361 OFFCURVE",
"125 346 OFFCURVE",
"125 331 CURVE SMOOTH",
"125 323 OFFCURVE",
"125 315 OFFCURVE",
"126 306 CURVE",
"64 306 LINE",
"42 252 LINE",
"131 252 LINE",
"152 110 OFFCURVE",
"235 -8 OFFCURVE",
"404 -8 CURVE SMOOTH"
);
}
);
width = 613;
}
);
unicode = 20AC;
},
{
glyphname = increment;
lastChange = "2016-08-03 12:43:26 +0000";
layers = (
{
hints = (
{
place = "{34, 511}";
},
{
horizontal = 1;
place = "{0, 71}";
},
{
horizontal = 1;
place = "{662, -20}";
target = down;
type = TopGhost;
}
);
layerId = UUID0;
paths = (
{
closed = 1;
nodes = (
"545 0 LINE",
"314 662 LINE",
"314 662 LINE",
"268 662 LINE",
"34 0 LINE"
);
},
{
closed = 1;
nodes = (
"278 559 LINE",
"439 71 LINE",
"107 71 LINE",
"107 71 LINE"
);
}
);
width = 579;
}
);
unicode = 2206;
},
